<svg id="Layer_1" data-name="Layer 1" xmlns="http://www.w3.org/2000/svg" viewBox="0 0 320 194.42"><defs><style>.cls-1{fill:#000810;}.cls-2{fill:#ee3166;}</style></defs><title>Artboard 3</title><g id="TXT_EntreLasRamas" data-name="TXT EntreLasRamas"><path id="Ornamento" class="cls-1" d="M160.21,173.84a.93.93,0,0,0,0-.45c0-.11.08-.43-.26-.3,0,0-.2,0-.15-.12s.09-.24,0-.34a.15.15,0,0,1,0-.13.69.69,0,0,0-.08-.63,3.49,3.49,0,0,0-.72-.79,9.66,9.66,0,0,0-1-.69c-.08-.06-.22,0-.3-.09a1.31,1.31,0,0,0-.64-.23c-.42,0-.8-.32-1.24-.2-.2.06-.36-.06-.55-.07a1.69,1.69,0,0,1-.93-.25s-.14,0-.2,0l0,0s.07,0,0,.06-.07,0-.08,0c-.1-.17-.23-.13-.36,0s-.06,0-.08,0c-.09-.24-.33-.29-.52-.38a1.15,1.15,0,0,0-.61-.12l-.38,0c-.19,0-.38,0-.57,0a.31.31,0,0,0-.09,0c.09.21-.08,0-.1.06h-.57a.22.22,0,0,0-.13,0s0,0,0,0,.08,0,.12,0,.18.07.27.08,0,0,0,0l-.07,0s-.19-.14-.11.07a.79.79,0,0,1-.19,0s-.12-.06-.06.05,0,0,0,0c-.24,0-.41.21-.65.26s-.27.17-.42.24c-.33.14-.58.4-.91.55a7.53,7.53,0,0,0-1.18.65c-.2.14-.5.15-.68.33a1,1,0,0,1-.66.32c-.18,0-.21.24-.36.32s-.49.29-.73.45a2.25,2.25,0,0,1-.61.33.84.84,0,0,0-.3.18s0,0-.07,0a9.64,9.64,0,0,0-1.48-.79,3.5,3.5,0,0,1-.93-.55,3.81,3.81,0,0,1-.46-.55c-.09-.1-.15-.23-.23-.33s.09-.19.14-.2c.33-.05.55-.32.85-.43a3.65,3.65,0,0,0,.46-.25c.06,0,.05-.07,0-.11s-.08-.05,0-.1.07,0,.1,0,.13,0,.12.08.07.07.1,0l.79-.42.5-.25a6.71,6.71,0,0,0,1-.56c.22-.17.49-.17.71-.33a4.5,4.5,0,0,1,.54-.29c.12-.07.27-.06.39-.19s.23.09.35.14a5,5,0,0,0,.65.35l.53.15a6.44,6.44,0,0,0,1.14.34c.52.08,1,.06,1.57.09a1,1,0,0,1,.57.09h0c0-.26.22-.11.34-.15s.11,0,.08,0,0-.16,0-.23a.24.24,0,0,1,.25-.08c.13,0,.18-.12.3-.09s0,0,0,0a.32.32,0,0,0-.28,0h-.08l.06-.05a4.74,4.74,0,0,1,.77-.3c.17-.06.17-.07,0-.18a.1.1,0,0,1,0-.09c.15-.31.46-.42.72-.59a.24.24,0,0,0,.12-.18c0-.1-.09,0-.14,0s-.1,0-.1-.05c0-.27.19-.47.26-.71,0-.06.26-.14,0-.18,0,0,0-.05,0-.05s0-.19.05-.28-.13.05-.18.1,0,0-.07,0c-.18,0-.39-.12-.54.08a1.68,1.68,0,0,1-.42.36,3.87,3.87,0,0,1-1.8.62,12.61,12.61,0,0,1-1.48.08c-.43,0-.86-.05-1.29-.05l0,0,0-.05a4.19,4.19,0,0,1,.63-.43l0,0,0,0c-.14.13-.37,0-.48.11s-.2.16-.28.26-.28,0-.41,0,0,0,0,0,.16-.08.23-.13l.08,0a5.38,5.38,0,0,1,1.06-.69,8.19,8.19,0,0,1,1.32-.58c.12,0,.34,0,.21-.28,0,0,0,0,0-.06a.67.67,0,0,1,.48-.14c.32,0,.59-.24.92-.19l0,0-.05,0c-.1,0-.16-.16-.29-.17s0,0,0,0a.88.88,0,0,0,.52-.13c.07-.06.18.05.28.07a2,2,0,0,0,.3,0l-.22-.11-.18-.06c-.05,0-.15,0-.14-.08s0-.17.08-.23.05-.12,0-.15a3.62,3.62,0,0,0-1.36-.24,8.56,8.56,0,0,1-1,0,1.24,1.24,0,0,0-.73,0,3.19,3.19,0,0,1-.52.17,1.82,1.82,0,0,0-1,.5.94.94,0,0,1-.34.28,1.18,1.18,0,0,0-.67.39.24.24,0,0,1-.11.07c-.14,0-.31,0-.28.27l0,0c-.21-.13-.32,0-.43.15a.46.46,0,0,1-.63.12c-.06-.05-.1-.13-.17-.18l-1-.77s-.08-.06,0-.1l1-.7a2.28,2.28,0,0,0,.81-.76l.05,0c.21.09.21-.06.24-.19s0-.15,0-.16c.18,0,.19-.27.35-.34s.15,0,.17-.06a1.32,1.32,0,0,1,.46-.43.85.85,0,0,0,.22-.24.48.48,0,0,0-.28.05h0s-.09,0-.13,0a.11.11,0,0,1,0-.09s.07,0,.12,0,.4-.28.37-.37a.31.31,0,0,1,.13-.33c.16-.08.24-.29.45-.28,0,0,0,0,0-.06-.11-.23,0-.38.19-.51s.19-.27.16-.31,0-.29,0-.42.13-.13.07-.21a.2.2,0,0,0-.23-.08c-.11,0-.27.1-.3.19s-.1.25-.25.24-.16.09-.17.18,0,.06,0,.06a.6.6,0,0,0-.38.24,6.43,6.43,0,0,1-.55.52s-.06.09-.12.13a1.85,1.85,0,0,0-.49.41.76.76,0,0,1-.25.21,2.72,2.72,0,0,0-.42.36c-.09.07-.1.23-.26.22s-.09.08-.14.11-.16.4-.49.39-.35.42-.65.45c0,0,0,0,0,0s-.2.35-.46.23c0,0,0,0-.07,0s-.06.13-.13.15a2.63,2.63,0,0,0-.66.36c-.15.12-.31.31-.57.2s-.55-.2-.81-.33-.32,0-.31-.06c0-.29-.39-.07-.34-.34-.16,0-.17-.22-.32-.27a.11.11,0,0,1-.05-.18c.06-.07,0-.1-.06-.14s-.07,0-.11,0-.12.17-.24.11a.77.77,0,0,0-.53-.1c-.15,0-.26-.08-.4-.12a.15.15,0,0,0-.17,0c-.07.07,0,.06.06.08a1.3,1.3,0,0,1,.16.17c.1.16.12.39.4.33l.06,0,0,0,0,0a8,8,0,0,1-.9,0,1.54,1.54,0,0,1-.33,0,.91.91,0,0,0-.53-.09.45.45,0,0,1-.28,0,.74.74,0,0,0-.76,0,2.78,2.78,0,0,1-.53.35c-.09,0-.25.06-.26.1a.63.63,0,0,1-.26.34s-.06,0,0,.06,0,0,.08,0l.07,0s0,0,0,0l-.06,0-.19.05c0,.22-.19.29-.28.43a.81.81,0,0,0,0,1,.36.36,0,0,1,0,.1l0,0-.08-.09s0-.08,0-.05a.06.06,0,0,0,0,.08.6.6,0,0,0,.07.18.24.24,0,0,0,.26.1c.12,0,0-.08,0-.12s0,0,.07,0h.21c.09,0,.12-.08.14-.16s-.06-.07-.11-.08-.18-.18-.3-.22a.28.28,0,0,0,0-.26c0-.08,0-.1.07-.13s.07,0,.12,0,.28.27.42,0c.06-.13.13-.33.19-.36a1.32,1.32,0,0,0,.4-.31h0c0-.05.15,0,.15-.14l.08,0s0,.06,0,.06-.12.12-.21.05h0c.1.11,0,.2,0,.29s0,.1,0,.11.05,0,.07-.05l.05,0s0,0,0,.06-.12.17,0,.2a.3.3,0,0,0,.36-.12c.13-.17.29-.38.51-.34.46.08.92.18,1.39.24s1.18.28,1.8.31c0,0,.08,0,.08.06s0,.06-.08.06a2.86,2.86,0,0,0-1.06.32c-.13.06-.22.2-.4.16a.52.52,0,0,0-.33,0,1.94,1.94,0,0,1-.59.19c-.2,0-.34.13-.54.12s-.29,0-.45,0l-1.19-.1c-.08,0-.11.07-.15.11s0,0,0,0h0c.13-.11.25-.09.3.08s.15.11.24.15,0,0,0,.06-.06.18,0,.25.15.07.2.08a5.44,5.44,0,0,0,.85.07,2.82,2.82,0,0,1,1,.05,1.35,1.35,0,0,0,.48,0l.17,0a.16.16,0,0,1-.14.14c-.05,0-.12.05-.06.1a.92.92,0,0,0,.42.18c.24,0,.46-.14.72-.14s.39-.17.61-.21.53-.19.78-.23a3.18,3.18,0,0,0,.88-.35,1.55,1.55,0,0,1,1-.1,1.81,1.81,0,0,1,.83.52c.17.15.17.28-.06.34-.42.12-.71.46-1.1.6-.05,0-.15,0-.16,0-.07.33-.41.23-.59.38s-.5.13-.55.45h-.05c-.29-.17-.48.14-.68.22s-.4.23-.61.31-.36.31-.62.31c0,0,0,0,0,0a.71.71,0,0,1-1.05.16,6.23,6.23,0,0,0-1-.6,2,2,0,0,1-.38-.14,3.3,3.3,0,0,0-.47-.2,4.06,4.06,0,0,0-.89-.32c-.16,0-.28-.2-.44-.25-.48-.14-1-.23-1.44-.37-.13,0-.24,0-.36,0a2.45,2.45,0,0,0-.74-.19,8.45,8.45,0,0,1-.89-.21c-.45-.07-.91-.06-1.35-.16a2.39,2.39,0,0,0-.84.09,6.6,6.6,0,0,0-1,.3l-.91.24a2.61,2.61,0,0,0-.48.16c-.09,0-.14.17-.23.23a5.69,5.69,0,0,0-1,.93,1.43,1.43,0,0,0-.28.91s0,.09.07.08,0,0,0-.06a.62.62,0,0,1,.13-.45s0-.16.07-.13.08.1.06.18,0,.14.11.1c0,.13.1.05.16,0s.15,0,.18.06,0,.11.05.09.14-.05.14-.08.11-.19.17-.26a3.1,3.1,0,0,1,.89-.7c0-.07.06-.14.16-.09s.07,0,.11,0,.13-.14.17,0-.11.06-.19,0,0,0-.06,0l0,0a.11.11,0,0,0,.15,0s.05,0,.09,0,0,0,0,0a.24.24,0,0,1-.08,0c-.09,0-.19.11-.28,0h0c0,.06,0,.11-.08.15a.45.45,0,0,0-.24.28h0c-.18.05-.22.35-.48.26,0,0,0,0-.06,0s0,0,0,0,0,.09,0,.14V169l.06,0c.09,0,.15-.22.26,0,0,0,.06,0,.08,0l.45-.53a.51.51,0,0,1,.52-.19,2.43,2.43,0,0,0,.7,0,7.88,7.88,0,0,0,1.35-.34,4.5,4.5,0,0,1,2,.09c.13,0,.14.19.32.23.59.11,1.15.36,1.76.42l1,.1s.08,0,.08,0,0,.07.1.07a2.25,2.25,0,0,1,.73.28,10.08,10.08,0,0,1,1,.38.28.28,0,0,1,.15.29c0,.11-.1,0-.15,0a.54.54,0,0,0-.14.08.89.89,0,0,1-.8.42c-.27,0-.46.18-.69.25s-.31.07-.37.16-.31.11-.41.24-.35.06-.51.17-.23.24-.42.2l0,0c-.1.07-.17.18-.31.18s-.27,0-.28.22-.07.08-.11.1-.07,0-.07,0-.09,0-.13,0-.25,0-.39.05a1,1,0,0,1-.54.12c-.18,0-.32.21-.45.19-.37,0-.65.26-1,.22-.11,0-.24.15-.34.13a.85.85,0,0,0-.55.15,1.39,1.39,0,0,1-.62.16c-.3,0-.59.14-.89,0a.86.86,0,0,0-.42.05c-.15,0-.29-.06-.45,0s-.26,0-.4-.09-.22-.19-.39-.17a1.5,1.5,0,0,1-1.34-.53,1.24,1.24,0,0,1-.22-.44.2.2,0,0,0-.21-.1.81.81,0,0,0-.22.19c-.05,0,0,.09,0,.11a2.25,2.25,0,0,1,.77,1c.11.23.41.26.5.53,0,.1.29.12.45.18s.1,0,.07.07,0,.15.11.17l.1,0-.09,0,0,0,0,0c.34,0,.58.26.92.27s.62.13.94.13a7.1,7.1,0,0,1,.73.06s.12,0,.12.08-.06.08-.12.1-.16-.06-.25,0a3.82,3.82,0,0,1-.94,0s-.12,0-.11.05.07.06.12.05a3,3,0,0,1,.58,0,5.34,5.34,0,0,0,1.12,0,6.52,6.52,0,0,0,2.07-.59c.18-.09.42-.06.62-.16,0,.08.2-.21.17.06l0,0c.24,0,.48-.06.72-.12s.46-.16.68-.24a5.93,5.93,0,0,0,1.16-.44c.07,0,.19-.11.23,0s-.08.11-.14.14l-1.38.56s-.09,0-.08.07.07,0,.09,0c.22-.09.46-.08.68-.2.06,0,.21-.06.27,0s.15,0,.22,0,.14,0,.06-.13,0-.05,0,0c.22.1.35-.06.54-.12.57-.19,1.11-.43,1.66-.66s1.34-.63,2-1c.12-.06.22-.14.33-.2s.32-.24.43-.2.37.33.51.53a5.74,5.74,0,0,0,.53.63,2.14,2.14,0,0,0,.63.44c.34.16.66.35,1,.53.1.05.25.06.27.18s-.11.15-.19.19c-.25.14-.5.26-.75.39l-.28.17a4.14,4.14,0,0,0-.53.34l-.32.28s-.06,0-.1,0-.08,0-.05.05.2.09.24.06a1.21,1.21,0,0,1,.47-.24c.08,0,0-.13.14-.16a3.42,3.42,0,0,0,.49-.2c.07,0,.17-.08.18-.12s.17-.12.26-.17h0l0,0,0,0,.05,0c.09,0,.07.06.07.11s-.05,0-.09.06a.3.3,0,0,0-.12.06,3.53,3.53,0,0,1-.54.41c-.19.09-.39.16-.59.27a3.85,3.85,0,0,0-.41.34c-.23.18-.46.36-.78.28a10.07,10.07,0,0,1-1.84-.82,9.53,9.53,0,0,0-1-.44,5.11,5.11,0,0,0-2.1-.13c-.12,0-.24.07-.37.08a5.85,5.85,0,0,0-1,.18,4.92,4.92,0,0,0-.95.34c-.27.15-.57.25-.83.4s-.34.29-.53.4a4.18,4.18,0,0,0-1,1,3.52,3.52,0,0,0-.5.82c0,.1-.17.17-.16.28s-.16.24-.2.38-.23.08-.27.17a.36.36,0,0,1-.4.24s-.11,0-.07,0,0,.38.14.52a.28.28,0,0,1,.07.14c.08.27,0,.59.22.83,0,.06.08.22,0,.24s-.09.1-.06.16c.11.21.28.38.26.67,0,.14-.06.1-.11.14s0,0,0,.05a3.5,3.5,0,0,1,.5.63s.09.13.14.12c.19,0,.33.08.31.23l0,0c.26.12.55-.1.82.14s.48.1.73.09c.1,0,.09.13.19.12s.24-.11.37,0a.45.45,0,0,0,.22.05s.06-.06.09,0,0,0,0,.05a.23.23,0,0,1-.1,0l-.44,0s0,0-.05,0l0,0a3.87,3.87,0,0,0,1.25-.18,9.46,9.46,0,0,0,1.38-.54c.07,0,.17,0,.23-.06l1.58-1c.35-.22.7-.44,1-.67a9.08,9.08,0,0,1,.76-.54c.47-.25.89-.58,1.37-.83.26-.14.51-.33.78-.47a.76.76,0,0,0,.22-.14,4.57,4.57,0,0,1,.53-.42c0,.07,0,.16.12.21s0,.12,0,.16l-.64.44,0,0h.05a1.37,1.37,0,0,1,.35-.21c.26-.06.39-.58.81-.18a4.39,4.39,0,0,0,.73.62s0,.07,0,.09-.18.19-.25.22a8,8,0,0,0-1.18.66c-.28.14-.62.2-.83.47,0,0,0,0-.07,0a1.42,1.42,0,0,0-.53.24c-.13.14-.27.37-.41.38s-.29.18-.38.26-.39.31-.56.48a5.24,5.24,0,0,0-.66.72,2,2,0,0,0-.3.78,2.09,2.09,0,0,0-.09.82c.08.45.12.91.24,1.36,0,.11,0,.3,0,.32s.21.26.27.42a3.5,3.5,0,0,0,.33.54,3.2,3.2,0,0,0,.66.82,1.73,1.73,0,0,0,1.06.52,5.49,5.49,0,0,1,1.24.31c.13,0,.32,0,.37.18a3.87,3.87,0,0,1,.26.76.19.19,0,0,0,.15.17s.07,0,.08.07a2.44,2.44,0,0,0,.49,1.16c.12.19.32.36.41.53a3.18,3.18,0,0,0,.47.62c.19.22.33.52.65.6,0,0,0,0,0,0s0,.08.07.11.2,0,.22.18.32.15.41.33,0,.34.24.11l.05,0a.87.87,0,0,1,.24.34c0,.12.2.15.31.14.32,0,.46-.44.83-.39a.08.08,0,0,0,0-.05c-.06-.15,0-.13.12-.11s.1,0,.1-.06-.26-.35-.3-.35c-.28,0-.27-.42-.56-.34,0-.3-.44-.21-.51-.52s-.28-.28-.44-.41a.47.47,0,0,1-.11-.22v0c-.13,0-.12-.16-.22-.21s-.13-.27-.3-.35-.1-.22-.17-.32a7.57,7.57,0,0,1-.67-1.14c-.1-.21-.18-.44-.27-.66s-.1-.39.23-.51.54-.08.61-.42c0,0,0,0,.06,0s0,.05,0,.07,0,.06,0,0l.52-.37a2.14,2.14,0,0,0,.46-.57s.11,0,.07-.09-.08,0-.11,0-.13.15-.24.08-.06-.13,0-.18a.5.5,0,0,1,.11-.18c.06-.09.09-.14-.06-.17s-.16-.13-.14-.17a.44.44,0,0,0-.09-.51,3.41,3.41,0,0,1-.26-.57.56.56,0,0,0-.66-.34.2.2,0,0,1-.17,0c-.13-.14-.25-.22-.44-.11s-.11,0-.12-.05,0-.07-.05,0-.14,0-.22,0a.16.16,0,0,0-.25,0,.22.22,0,0,1-.25.08c-.08,0-.19-.05-.23.07a.21.21,0,0,1-.17.16.93.93,0,0,0-.66.57c0,.06,0,.06,0,.07s.06,0,0,0-.07.08,0,.14a.11.11,0,0,1,0,.17.64.64,0,0,0-.18.65c0,.15.08.24-.11.24s-.25.07-.38,0a.49.49,0,0,0-.33-.1c-.36,0-.57-.21-.81-.4,0,0-.05-.08,0-.08l.06,0-.07,0s-.08,0-.08-.06.05,0,.08,0,.06-.07,0-.12-.14-.14-.14-.27a3.54,3.54,0,0,1,.2-.78c.08-.28.34-.39.54-.55s.17-.19.28-.27.25-.12.36-.19c.31-.18.55-.46.85-.65s.76-.42,1.15-.63.53-.27.78-.43.39-.15.45-.23a.86.86,0,0,1,.64-.34,6.44,6.44,0,0,0,.8-.28,1.37,1.37,0,0,1,1.11-.06c.06,0,.19.11.23,0s0-.05.08,0c.29.06.47.31.7.46a6.05,6.05,0,0,1,.67.48s.15,0,.17,0c.11.23.37.23.54.34s.34.36.63.4.31.12.48.17a2.1,2.1,0,0,0,.67,0c.06,0,.27.18.19-.11,0,0,0,0,.07,0a2.25,2.25,0,0,0,.24-.05l1.28-.51c.06,0,.17,0,.16-.07s-.12,0-.19,0-.11,0-.14,0,0-.1.08-.1c.37,0,.47-.43.76-.56v0a2.2,2.2,0,0,0,.36-1.2,1.08,1.08,0,0,0-.26-.75.2.2,0,0,1-.05-.14.57.57,0,0,0-.4-.57c-.08,0-.17,0-.25,0-.34-.12-.56-.44-.92-.53-.11,0-.21,0-.33,0-.43-.2-.9-.27-1.33-.46a2,2,0,0,0-.74-.2c-.41,0-.81,0-1.21.06a9.59,9.59,0,0,1-1,.21,1.8,1.8,0,0,0-.41.06c-.23,0-.38.26-.63.26-.08,0-.24,0-.31.11s-.1,0-.15,0,0,0,0,0,0-.1,0-.09a.45.45,0,0,0,.36-.16.27.27,0,0,0,0-.06s-.05,0-.07,0a1.48,1.48,0,0,0-.54.17c-.17.11-.4.1-.53.29a.17.17,0,0,1-.16,0c-.33-.2-.66-.39-1-.62s-.31-.34-.57-.38c-.09,0-.1-.1,0-.16l1.3-.78s.15,0,.1-.08-.1,0-.15,0a6.72,6.72,0,0,1-1,.51.5.5,0,0,0-.39.27c0,.08-.11,0-.15,0a.69.69,0,0,1-.11-.16c.05,0,0-.08.12-.11s.25,0,.26-.1a.16.16,0,0,1,.1-.14c.1-.07.31,0,.32-.2,0,0,0-.05.06-.05.24,0,.38-.23.59-.32a4.46,4.46,0,0,1,1-.49,2.68,2.68,0,0,0,.75-.39c.18-.1.33-.25.58-.17s0,.16.06.12c.27-.1.47.09.66.19a11.82,11.82,0,0,0,1.64.62.82.82,0,0,0,.27.07c.28,0,.55,0,.83,0a11.63,11.63,0,0,1,1.24.15c.34.05.71-.07,1,.19,0,0,0,0,0,0s0-.07.07-.06a7.93,7.93,0,0,0,1.5,0c.73-.08,1.47-.13,2.19-.27a10.7,10.7,0,0,0,1.77-.51c.53-.2,1-.46,1.56-.69l0,0h0c-.05,0-.1.07-.16,0s.09-.14.15-.16a3.37,3.37,0,0,0,1-.81c.06-.06.14-.17.12-.22A1.06,1.06,0,0,1,160.21,173.84ZM145,168a1.55,1.55,0,0,1,.26-.1c.23-.06.37-.3.62-.32,0,0,.08,0,.09,0s-.14.15-.22.16a6.45,6.45,0,0,0-.72.27H145S145,168,145,168Zm-5.93-5.33-.43-.15v0a.69.69,0,0,1,.37.1l.08.07Zm-3.87,10.51s-.06,0-.08,0l.19-.14h0A2.13,2.13,0,0,1,135.22,173.18Zm3.39-1.54a.14.14,0,0,0-.14,0l.07,0,0,0-.07,0c-.15,0-.23.1-.34.13s-.35.25-.57.31-.28.17-.45.19H137s-.08,0-.09,0,0,0,.06,0,0,0,0,0l-.89.33a.35.35,0,0,1-.11,0l.07-.06c.31-.16.63-.3.93-.46s.38-.06.52-.22.09,0,.13,0h.09l-.05,0,.19-.12c.15-.08.33-.05.48-.15s0-.19.13-.15.19-.19.24,0a.23.23,0,0,0,0,.06ZM133,177.21l-.2.14v0l.19-.12Zm-.17-.11h.08l-.16.15-.05,0C132.71,177.17,132.73,177.1,132.82,177.1Zm4.74.68s-.06,0-.09,0l-.05,0c0,.25-.29.29-.45.42s-.49.3-.71.5-.4.27-.59.42-.23.2-.34.31,0,0,0,0c-.26-.07-.38.18-.56.28a11.31,11.31,0,0,1-1.3.73c-.31.12-.63.22-1,.32,0,0-.09,0-.13,0s0-.09.07-.09a4.54,4.54,0,0,0,.84-.39,2.11,2.11,0,0,1,.3-.12s0,0,0,0-.15-.08-.21-.06-.23,0-.32.13-.23,0-.37.06a2.45,2.45,0,0,0-.78.47s-.06,0-.06,0,0,0,0,0a4.8,4.8,0,0,1-.89-.09.37.37,0,0,0-.34.13s-.1,0-.09,0c.07-.19-.11-.32-.12-.47a.71.71,0,0,1,.18-.58A3.2,3.2,0,0,0,131,179s0-.13.12-.09l0,0a.56.56,0,0,1,.4-.54c.07,0,.14-.09.19-.16.17-.22.32-.45.5-.66a.51.51,0,0,1,.39-.17.07.07,0,0,1,0,0s0,0,0,0c-.31.15-.43.48-.66.71.19,0,.21-.17.3-.26s.53-.34.76-.55c0,0,0,0,.07,0l0,0-.57.48s0,.06,0,.09l.08,0a1.17,1.17,0,0,1,.18-.15,1.64,1.64,0,0,0,.26-.1c.21-.15.43-.29.65-.42a7.76,7.76,0,0,1,1.19-.53,2.71,2.71,0,0,1,.86-.26,4.49,4.49,0,0,1,.94,0,1.44,1.44,0,0,0,.35,0c.06,0,0,0,0,.06s.07.17.16.05,0-.05.07,0,0,0,0,.06-.09.12-.08.15.09,0,.14,0,.24,0,.29.13v0l0,0s0-.09.07-.06a.07.07,0,0,1,0,.11s0,.06,0,.08,0,.06,0,0c-.23-.08-.06.12-.1.17a1.06,1.06,0,0,1-.32.3l-.42.26s0,0,0,0,.2.15.32.09a2.7,2.7,0,0,0,.28-.17s.08-.07.1,0S137.58,177.72,137.56,177.78Zm.16-.13-.1-.1s0,0,0,0,.12,0,.13.09S137.73,177.63,137.72,177.64Zm1.21,8.35a.29.29,0,0,1,0,.08c-.1,0-.09,0-.07,0s0-.1.06-.09S138.94,186,138.93,186Zm.15-.83a3.67,3.67,0,0,1-.14.61s0,.08-.07.09-.06,0-.08-.08a1.31,1.31,0,0,1,0-.89c0-.06.07-.06.14-.05C139.19,184.88,139.08,185.07,139.08,185.16Zm8.18-4.82a1.4,1.4,0,0,1,.44-.16,5.18,5.18,0,0,0,1-.18c.08,0,.14.13.24,0l0,0h-.15l0,0s.07-.1.13-.06a.17.17,0,0,0,.19,0c.08,0,.2-.08.17.1s0,.08.08.06a1.31,1.31,0,0,1,1.09,0,7,7,0,0,0,1,.46.09.09,0,0,1,.07.12c0,.06-.07,0-.1,0h-.07s0,0,0,0,0,.18-.06.22c-.22.13-.46.24-.62.33s-.24,0-.31.09a.24.24,0,0,1-.2.08c-.21-.07-.36.08-.53.14a1.32,1.32,0,0,1-1.23-.12c-.24-.16-.5-.29-.75-.43l-.05,0c0-.23-.19-.17-.27-.27s0,0,0,0a.08.08,0,0,1,0,0l.85-.2s.08,0,.06-.08-.08-.06-.12-.05l-.9.22s-.07,0-.11,0a1.1,1.1,0,0,0-.12-.11Zm-2.52,1.1.1-.05s.07-.09.1,0-.05.08-.08.08,0,.13-.11.13-.09,0-.1-.06S144.71,181.46,144.74,181.44Zm14-7.94c-.31.17-.48.5-.8.67s-.74.31-1.11.49a11,11,0,0,1-2.18.66c-.33.08-.68,0-1,.11a12.16,12.16,0,0,0-1.24.14,1.47,1.47,0,0,1-.4,0H151c-.12,0-.21-.24-.37,0a.14.14,0,0,1-.22-.1.22.22,0,0,0-.15,0,2.2,2.2,0,0,1-1.07,0,2.73,2.73,0,0,1-.56-.08,3.37,3.37,0,0,0-.95-.15s-.05,0-.08,0a.62.62,0,0,1,.15-.12,9.21,9.21,0,0,0,1-.5s.06-.07.09-.1l-.12,0-1.21.61a.43.43,0,0,1-.3,0s0,0,0-.06c.21-.09.19-.45.54-.4.18,0,.28-.23.47-.29a13.35,13.35,0,0,0,1.3-.68,9.81,9.81,0,0,0,1-.59c.17-.09.32-.23.5-.3a11,11,0,0,0,1.08-.43,8.92,8.92,0,0,1,.9-.42,3.52,3.52,0,0,1,1.22-.31,9.49,9.49,0,0,1,1.1.14h.17a.19.19,0,0,0-.14-.12h-.09l-.25-.07v0c.1,0,.18-.05.28,0s.32.07.49.1c0-.16.22.06.25-.16s.32-.05.49-.08h.1s0,0,0,0h-.11l-.4,0-.14,0,.14-.07h.1s.14.09.1-.05-.08,0-.12-.07l0,0h.07l.35,0h0c.12-.07.23,0,.34,0s.38.16.45.15a1,1,0,0,1,.69.26c.06,0,.06,0,0,.08s0,0,0,.09.11,0,.06.1a.13.13,0,0,1-.13,0c-.09-.08-.19,0-.28,0l0,0,.07,0a1.28,1.28,0,0,1,.95.48c.05.08,0,.21,0,.32a6.5,6.5,0,0,1,0,.71s0,0,0,.07-.14,0-.11.09.06,0,.1,0h0S158.81,173.49,158.79,173.51Z"/><g id="Rama_Abajo" data-name="Rama Abajo"><path class="cls-1" d="M77.69,152.31a26.43,26.43,0,0,0,4.14-.54c.89-.14,1.77-.34,2.65-.51l2.14-.39c.1,0,.29-.06.31,0s-.16.09-.26.12c-1.06.42-2.21.58-3.27,1a.63.63,0,0,1-.18.05,37.68,37.68,0,0,1-4.7.5,3.16,3.16,0,0,1-.9-.09l-.15-.08c.05-.11.14-.09.21-.09m2.45-.65c.6-.12,1.19-.28,1.78-.43s1.07-.35,1.62-.45c0,0,.09-.13.1,0s0,.2.22.13a23.85,23.85,0,0,1,3.13-.76,3.47,3.47,0,0,1,.83,0c.05,0,.14,0,.13.08s-.08.08-.12.08a9.51,9.51,0,0,0-3.32.69c-1.07.27-2.18.38-3.26.57-.44.08-.88.18-1.32.27l-.15,0v-.08a2.28,2.28,0,0,1,.34-.13m10.23-1.26a9.71,9.71,0,0,0,1.38-.39.89.89,0,0,0,.33.1h0a2.75,2.75,0,0,1-1.72.38l-.1,0a.37.37,0,0,1,.11-.07m3.49-2.54a3.12,3.12,0,0,1,1.23-.6c-.3.4-.8.47-1.21.69a.27.27,0,0,1-.11,0,.81.81,0,0,1,.09-.1m13.33-4.54c.29-.09.57-.2.86-.27s.57-.27,1,0a2.3,2.3,0,0,0,1.32.3,12.49,12.49,0,0,1,2.05.12c1,.15,1.92.31,2.89.43a8.71,8.71,0,0,1,2.11.49,1.94,1.94,0,0,1,.29.17c-.11.14-.19,0-.29,0-.51,0-1-.1-1.53-.1a15.34,15.34,0,0,1-2.55-.34c-.92-.16-1.82-.45-2.77-.51a28.07,28.07,0,0,0-3.38-.09c-.07,0-.18.06-.2-.14l.24-.07m12.39,2.2.11,0a2.93,2.93,0,0,0,.72.19c.09,0,.19.08.17.17s-.13,0-.19,0a16.09,16.09,0,0,0-2.67-.14,15.05,15.05,0,0,1-1.7-.26,3.23,3.23,0,0,1-1-.35s-.1-.06-.09-.09.07-.06.12-.05a26.61,26.61,0,0,1,4.51.49m3.77,1.31A8.5,8.5,0,0,1,124.9,148c.17.17.32.36.62.34a.42.42,0,0,1,.41.29c0,.11,0,.19-.17.18a.27.27,0,0,0-.16-.33h-.07c0,.13.12.18.16.28l0,0,.06,0-.06,0a14.33,14.33,0,0,1-1.94-1.53c-.16-.13-.34-.21-.49-.33s-.14-.06-.12-.16a.73.73,0,0,1,.21.06m2.35,3.52c.11.17.31-.27.45.1a1.84,1.84,0,0,0,.82.81c.06,0,.17.06.14.14s-.13,0-.17,0a4.26,4.26,0,0,1-.94-.72.77.77,0,0,1-.14-.13c-.07-.09-.23-.06-.26-.2s.09,0,.1,0m2.28-.54c.33.12.71,0,1,.22,0,0,.1.07.1.1s-.1.07-.15.06a4.57,4.57,0,0,1-1-.23l-.47-.21a.79.79,0,0,1,.5.06m3.69,1.3a9,9,0,0,1,3.47.76,1.18,1.18,0,0,1,.79.73s.06.06.08.06c.58-.16.65.56,1.1.63,0,0,.09.14,0,.15a.77.77,0,0,1-.28,0c0,.25,0,.4.31.35.07,0,.21,0,.18,0s.07.25,0,.33-.19,0-.27,0l-1.28-.79a22.51,22.51,0,0,0-4-2l-.25-.1s-.14,0-.11-.11.09,0,.14,0m1.38-.74a1.64,1.64,0,0,1,1.37.1c.38,0,.65.4,1,.51.07,0,.15.08.07.16s-.09.18-.23.12-.46-.14-.67-.24a5.25,5.25,0,0,0-1.53-.41c-.11,0-.29,0-.3-.11s.16-.1.25-.13m7,4.27c.13.09.08.23,0,.34s-.31,0-.47,0-.36-.25-.5-.43-.42-.5-.63-.74c0-.05-.1-.11-.07-.18l0,0,0,0,.09,0c.5.33,1,.66,1.49,1m-4.78.15-1.14-.57a1.93,1.93,0,0,1-.74-.56,1.38,1.38,0,0,0-.59-.39c-.07,0-.2,0-.2-.13l.05,0,0,0s.1.09.14.08a.36.36,0,0,0,.37.08.31.31,0,0,1,.28,0,16.31,16.31,0,0,1,1.86,1.41s.14.07.1.13-.1,0-.15,0m5.12.79c.15-.13.27.05.38.15a5.82,5.82,0,0,0,2.29,1.11c1.24.41,2.17-.26,3.14-.78.22-.12.45-.22.66-.35s.22-.21,0-.28-.17-.14,0-.23L147,155c.09-.06.23-.26.29-.1s.42.28.17.57a1.59,1.59,0,0,1-.49.4c-.9.44-1.81.86-2.71,1.28a1.58,1.58,0,0,1-1.07,0c-.52-.13-1-.31-1.55-.46a2.28,2.28,0,0,1-1.18-.78c-.1-.13-.23-.3-.08-.43M151,152.84s.06,0,.1-.06.46-.22.51-.12-.2.24-.31.36a17.2,17.2,0,0,1-1.36,1.21s-.08.11-.16.06,0-.07,0-.11c.27-.21.34-.6.68-.74s.21-.54.54-.61m.56.76s0,.09,0,.14a3.26,3.26,0,0,1-.83,1,12.1,12.1,0,0,0-1.66,1.88,2,2,0,0,1-.5.45s-.11.1-.16,0,0-.11,0-.15a.8.8,0,0,1,.07-.12,20.72,20.72,0,0,1,2.26-2.62c.24-.19.46-.39.69-.59,0,0,.09-.11.15,0m-2.18,3.66c-.05.05-.08,0-.07-.07a3.39,3.39,0,0,1,1.11-1h.06a.25.25,0,0,1,0,.09,7.74,7.74,0,0,1-1.08,1m3.58-4.48a.19.19,0,0,1,0,.31,8.93,8.93,0,0,1-.85.6c-.16.1-.23,0-.22-.17a2,2,0,0,1,1.08-.74m2.08-1.44a2.59,2.59,0,0,1,1.75-.27l.1,0s-.05,0-.08,0a8.57,8.57,0,0,0-1.73.28.45.45,0,0,1-.14,0l.11-.08m2.52.54a10.22,10.22,0,0,1,1.58.24c.05,0,.14.07.14.1s-.11.08-.17.09a1.83,1.83,0,0,1-.87-.16,2.23,2.23,0,0,0-.66-.14c-.06,0-.16,0-.16-.07s.1-.06.14-.05m4.26.52c1,.51,1.81,1.19,2.77,1.69a4.31,4.31,0,0,0,2.19.67,1.29,1.29,0,0,1,.89.17.22.22,0,0,1-.27.13,10.76,10.76,0,0,1-2.41-.52,12.89,12.89,0,0,1-2-1.19c-.45-.33-1-.57-1.44-.86-.29-.18-.64-.26-.83-.59a5.3,5.3,0,0,0,1.07.5m6.5,2.37c.1,0,.23,0,.23.14s-.14.07-.23.07a1.26,1.26,0,0,1-.64-.06,2.16,2.16,0,0,1,.64-.16m5.95-1.59a.83.83,0,0,1,.16-.09s.12,0,.14,0,0,.08-.06.11a12,12,0,0,1-2.93,1.74c-.09,0-.18.1-.29.05s0,0,0-.08l.19-.1a19.87,19.87,0,0,0,2.79-1.62m.35,1s.06,0,.1.05.34-.11.34.07-.28.21-.42.32-.13,0-.12-.07.07-.23-.07-.24-.08.17-.16.23c-.36.29-.61.74-1.12.83a.77.77,0,0,0-.29.17,1,1,0,0,1-.77.28c-.14,0-.32.18-.42,0s.24-.16.4-.21a8,8,0,0,0,2.07-1.32c.13-.09.26-.26.45-.1m5.13-4.65a11.81,11.81,0,0,0,2.24-2.36c.38-.57.84-1.1,1.22-1.67a11.4,11.4,0,0,1,.84-1.2c.11-.13.45-.32.14-.61,0,0,.07-.12.11-.19a17.48,17.48,0,0,1,2-2.81,8,8,0,0,0,.87-1.36,5.55,5.55,0,0,1,1.7-1.73,14.34,14.34,0,0,1,2-1.05c.08,0,.21-.1.24-.05s-.06.17-.12.23a3.82,3.82,0,0,1-1.19.9c-.12,0-.22.12-.22.23,0,.35-.25.47-.51.6a1.33,1.33,0,0,0-.49.4c0,.05-.26.7-.47,0-.05-.17-.26,0-.35.05a1.23,1.23,0,0,0-.18.32,15,15,0,0,1-1.16,2,8.2,8.2,0,0,0-1.44,2.41.68.68,0,0,1-.3.35c-.31.21-.36.6-.59.88s-.59.49-.42.93a8.63,8.63,0,0,1-2.08,2.59,3.5,3.5,0,0,0-.48.63l-.18.21a.82.82,0,0,0-.39.26l-.11.14-.14.06a4.72,4.72,0,0,0-1.76,1.31c-.37.39-.73.79-1.07,1.21a.74.74,0,0,1-.77.31c-.24,0-.42.2-.68.16-.06,0-.15.08-.19,0s.06-.1.1-.14a19,19,0,0,1,2-1.64c.61-.49,1.27-.92,1.86-1.42m-.84-.5a7.79,7.79,0,0,0,.87-1.1,6.12,6.12,0,0,1,.87-1,.61.61,0,0,1,.1-.08c.08.06,0,.1,0,.14a12.25,12.25,0,0,1-1.72,2.22c-.08.07-.2.22-.27.15s.08-.2.14-.29m1.65-1.14,1.41-1.91c.05-.07.12-.15.22-.1s0,.13,0,.18a5.69,5.69,0,0,1-1,1.29c-.17.21-.37.41-.56.61a.48.48,0,0,1-.12.07.42.42,0,0,1,0-.13m4.08-5.86a20.32,20.32,0,0,0-1.16,2.15c-.13.3-.42.42-.64.62,0,0-.07,0-.1,0v-.08c.26-.36.49-.7.75-1,.41-.5.6-1.13,1-1.65,0,0,0,0,0-.07a.82.82,0,0,1,.38-.34c0,.16-.14.25-.21.37m-3,3.35c.21-.46.46-.91.67-1.37a2.45,2.45,0,0,1,.65-1.09c.16-.12.14-.36.24-.53a12.93,12.93,0,0,1,1.17-1.79,17.74,17.74,0,0,1,2.48-2.88,11.36,11.36,0,0,1,2-1.51,13.84,13.84,0,0,1,1.63-.59h.09l.05.07-.15.1c-.49.29-1,.44-1.54.68a4.47,4.47,0,0,0-1.47,1.58c-.23.32-.36.71-.81.85a.76.76,0,0,0-.44.54,2.31,2.31,0,0,1-1.06,1.36,4.32,4.32,0,0,0-1.19,1.61,13.11,13.11,0,0,1-1.57,2,3.7,3.7,0,0,0-.57,1,.43.43,0,0,1-.29.27l.14-.29m-2.77,7.87c-.2.21-.26.57-.68.52-.12,0-.21.13-.26.24a.64.64,0,0,1-.35.33c-.07,0-.19.11-.24,0s.09-.1.14-.14.31-.25.33-.39c0-.4.42-.51.61-.77s.28,0,.42,0,0,.13,0,.2m-8,3a7.57,7.57,0,0,1-1.29.09s-.05,0-.08-.06l.08-.06c.39-.34.86,0,1.3-.18,0,0,.08.06.08.1s0,.11-.08.11m21.75-20.58c.51-.3,1-.62,1.54-.89a6.78,6.78,0,0,0,1.85-1.25c.23-.24.6-.39.82-.65.63-.75,1.41-1.36,2-2.15a6.79,6.79,0,0,1,.79-1l.12-.09c.06.07,0,.1-.05.15a20.65,20.65,0,0,0-.84,1.9,2.16,2.16,0,0,1-.6.86,3.61,3.61,0,0,0-.69.89,3.63,3.63,0,0,1-1.33,1.08,6,6,0,0,1-1,.58,11.65,11.65,0,0,1-1.25.43,8.59,8.59,0,0,0-1.24.31.33.33,0,0,1-.14,0,.63.63,0,0,1,0-.07l.09-.06m3.38.24a10.33,10.33,0,0,1-1.54,1.36c-.06,0-.14.16-.21,0s0-.17.07-.23c.34-.3.55-.72.9-1a1.49,1.49,0,0,1,.75-.34c.18.05.1.13,0,.18M66.47,149a7,7,0,0,0,1.24.54.88.88,0,0,1,.18.12c-.06.09-.14,0-.2,0a3.27,3.27,0,0,0-1.35,0c-.09,0-.24,0-.23.13s.13.1.22.12l1.17.29a.52.52,0,0,1,.12.07l-.1,0c-.33,0-.66.19-1,0,0,0-.14,0-.16,0s.07.12.14.13c.36.05.6.36,1,.4.07,0,.2.08.18.16s-.18.08-.26,0a2.91,2.91,0,0,0-.69-.3h-.11a.38.38,0,0,0,.06.08c.06.05.22.06.19.14s-.17,0-.27,0-.18,0-.26,0-.2.11-.16.22.16,0,.22,0a2,2,0,0,1,1.4.07,1.15,1.15,0,0,0,.31.07c.16-.38.38-.06.57-.06s.37.2.6.2a1.63,1.63,0,0,1,.42.12l-.39-.37c-.09-.08-.29-.12-.21-.25s.21,0,.33.07a.59.59,0,0,1,.14.06,9.84,9.84,0,0,0,3.21.88c.39.07.78.1,1.17.14a.88.88,0,0,0,0,.15c-1.22,0-2.4-.26-3.56-.36a2.86,2.86,0,0,0,.93.55c.57.16,1.11.39,1.67.57.07,0,.2.07.22-.05S73,153,73,153l-.18,0,.09,0,1.5.42c.08,0,.16.09.18,0a1,1,0,0,0,.5,0,.57.57,0,0,0,.24,0,16.38,16.38,0,0,1,2,0c.49,0,1,.08,1.49,0a18.72,18.72,0,0,1,2,0c.32,0,.57-.24.86-.21a8.55,8.55,0,0,0,2.71-.34c.41-.09.71-.49,1.14-.46a4,4,0,0,0,1.42-.4,12.67,12.67,0,0,1,2.2-.37,11.3,11.3,0,0,0,1.77-.22,7.45,7.45,0,0,0,1.88-.76c.09,0,.19-.09.22-.19s0-.05-.06-.07-.09-.06,0-.1l2.07-1.18a4.44,4.44,0,0,0,.44-.2c.08-.06.27-.11.3,0,.1.33.27.11.39.06l.21-.09a.92.92,0,0,0,.5-.2l.2-.16a2.45,2.45,0,0,1,.65-.22.2.2,0,0,0,.13-.07,1.6,1.6,0,0,1,1.15-.62c.51-.11.85-.52,1.37-.63a10.53,10.53,0,0,0,1.32-.57c.9-.33,1.85-.46,2.73-.86a15.47,15.47,0,0,1,2.62-.82c1.8-.46,3.45.38,5.16.63a.58.58,0,0,1-.22,0c-.07,0-.17-.06-.2,0s.09.1.15.12l.55.16a1.26,1.26,0,0,0,.26.09l.18,0,2.12.63.1,0-.08,0-.91.23c-.27.07-.72,0-.48.54.07.17.08.21.25.18a2.78,2.78,0,0,1,1.05-.07c.32.09.59-.14.88,0,0,0,.06,0,.06-.05s.09-.24.2-.2a2.27,2.27,0,0,0,1.69,0,.23.23,0,0,1,.18,0,.91.91,0,0,0,.58.09,7.37,7.37,0,0,1,3.5.88c.2.1.51.2.51.44a.33.33,0,0,0,.18.33,19.06,19.06,0,0,1,3.92,3.53c.72.85,2.62,1.7,4,.77.12-.09.26-.19.23-.31s-.2,0-.31,0-.18.07-.22-.06.09-.13.17-.14a2.49,2.49,0,0,1,1.24.32c.36.17.51.61.92.69a1.63,1.63,0,0,1,.58.26c.82.51,1.53,1.16,2.31,1.74a6.23,6.23,0,0,0,1.65,1.08,6.47,6.47,0,0,1,1.43.86,2.22,2.22,0,0,0,.48.2l.17.08a22.73,22.73,0,0,0,2.38,1,3.54,3.54,0,0,1,1.23.39c.49.37,1.08.15,1.61.24l0,0a.62.62,0,0,0,.31,0l0,.06c.34,0,.73.15,1-.29,0,0,.14-.07.21-.05.34.1.56-.27.9-.2.13,0,.32,0,.27-.24l.21,0a1.42,1.42,0,0,0,.3,0,1.56,1.56,0,0,0,.33.05l0,0c-.06.06-.14.14-.09.23s.15,0,.23,0a1.53,1.53,0,0,0,.6-.39l.11,0a.33.33,0,0,0,.16-.18,8.32,8.32,0,0,0,1.8-1.79,10.83,10.83,0,0,1,1.28-1.71s0-.14.13-.06.14.13.27,0,.51-.28.62-.58c0-.11.22-.11.34-.08s.12,0,.16-.06.31-.25.48-.37.26-.27.39-.21a4.71,4.71,0,0,0,1.83.11,10,10,0,0,1,2.46.66c.75.24,1.46.56,2.17.87a9.08,9.08,0,0,0,.94.25c.92.29,1.81.65,2.74.88A23.12,23.12,0,0,0,167,157a4.73,4.73,0,0,1,1.3.56,2.84,2.84,0,0,0,1.41.3c.52,0,1,0,1.57-.12.15,0,.42.05.41-.14s-.24,0-.36,0l-.17-.08a.81.81,0,0,1,.16-.08c.15,0,.36,0,.43-.08a.51.51,0,0,1,.76,0c.26.31.4.08.56,0s.48-.29.63-.15.33.11.5.07l.87-.23a2.88,2.88,0,0,1-1.7.64c-.3,0-.59.3-.94.09-.06,0-.17.12-.19.24s.06.18.17.18h.83a.19.19,0,0,0,.18-.11c0-.06-.16-.11,0-.16s.13.08.15.15c.09.33.29.23.5.15a3.76,3.76,0,0,1,.61-.28c.73-.15,1.33-.65,2.06-.81a.21.21,0,0,0,.09-.07c.06-.06.06-.14,0-.12s-.16-.11-.19-.19-.25.15-.12-.08.2-.08.31-.13.24-.15.18-.25-.22,0-.31.05-.16.13-.15,0c0-.47-.2-.21-.33-.1a5.51,5.51,0,0,1-.89.72c0-.38.2-.53.5-.68a1.35,1.35,0,0,0,.77-.9c0-.11.14-.2.22-.09.27.37.46.18.7,0,.07-.07.18-.26.3-.12s0,.23-.15.33-.49.2-.68.39a.64.64,0,0,0-.07.12.47.47,0,0,0,.13,0,10.19,10.19,0,0,0,1.88-.83,4.66,4.66,0,0,0,1.15-1.16c.36-.4.43-1,.85-1.31a0,0,0,0,0,0,0c-.07-.52.4-.81.56-1.25a4.28,4.28,0,0,1,.85-1.58c.25-.26.34-.6.66-.84a2.07,2.07,0,0,0,.76-1.15c0-.11-.1-.27.11-.35s.23-.26.18-.47a1.08,1.08,0,0,1,.61-.85,3.07,3.07,0,0,0,.92-1.06,2.49,2.49,0,0,1,.25-.78,4.1,4.1,0,0,1,.52-.78,6.91,6.91,0,0,1,1-1.39,2.44,2.44,0,0,0,1-1.43.81.81,0,0,1,.59-.58.58.58,0,0,0,.5-.61.12.12,0,0,1,.11-.13,4.74,4.74,0,0,0,.59-.29c.08-.58.52-.49.92-.51.1,0,.25,0,.2-.17s.08-.12.16-.13c.48-.05.92-.24,1.39-.34a6.33,6.33,0,0,1,.87-.3c.09,0,.18-.17.28,0s0,.22-.11.29a.82.82,0,0,0-.36.63c0,.08-.08.19,0,.23s.15-.06.22-.12c.33-.29.66-.6,1-.87a13.05,13.05,0,0,0,2.57-2.67c.31-.42.48-.94,1-1.25a2.51,2.51,0,0,0,1.14-2,1.78,1.78,0,0,1,.49-1,6,6,0,0,0,1-1.34,3,3,0,0,1,1.06-1.2c.42-.27.5-.76.81-1.11s.31-.55.72-.51c.16,0,.29-.05.11-.23a.55.55,0,0,1-.44-.14c.16-.1.33,0,.49,0,.38.15.43-.17.52-.39a.47.47,0,0,0-.17-.48c-.14-.14-.28,0-.4,0-.42,0-.38.65-.84.51a9.18,9.18,0,0,0-1.33,1.58,1.1,1.1,0,0,1-.29.32c-.06-.19.13-.24.2-.36s.27-.31.12-.46-.33,0-.48.13a6.8,6.8,0,0,0-1.24,1.3c-.06.09-.17.21-.25.21h0l.27-.51q1.4-1.84,2.64-3.79c.14-.23-.19-.47-.34-.24q-.65,1-1.35,2a5.63,5.63,0,0,0,.15-.57h0v-.05c0-.23-.33-.31-.4-.09a18.86,18.86,0,0,1-.89,2.16l-.41.65c-.11,0-.17.09-.21.18a6.81,6.81,0,0,1-.87,1.41,6.93,6.93,0,0,1-1.27,1.5,4,4,0,0,0-1.45,1.49c0,.06-.09.12-.15.1-.36-.13-.53.17-.79.31s-.42.45-.69.51a5.08,5.08,0,0,0-.7.2,3.63,3.63,0,0,1-1.24.38c-.44,0-.52.39-.85.47-.16,0,.08.16.07.26s-.1,0-.15,0c-.23-.1-.47-.18-.7-.29a.29.29,0,0,0-.39.1c-.1.12-.15.2,0,.3s0,.19,0,.23-.15,0-.21-.07-1-.1-1,.09-.32.38-.57.45a.19.19,0,0,0-.16.14.57.57,0,0,1-.2.35.17.17,0,0,0-.2,0l0,0h0a.52.52,0,0,0-.33.16c-.38.45-.86.8-1.27,1.22a19.11,19.11,0,0,0-1.84,2.24c-1,1.42-1.86,2.92-2.72,4.43-.07.12-.16.24,0,.34s.06.16,0,.14c-.4-.09-.35.24-.48.44a2,2,0,0,0-.28.8s0,.13-.05.1c-.35-.12-.39.17-.49.36a1.91,1.91,0,0,1-.55.61,12.08,12.08,0,0,0-1.4,1.08h-.06a.7.7,0,0,0-.52.16l-.34.37a.8.8,0,0,0-.26.5.77.77,0,0,0,0,.32,3.29,3.29,0,0,0-.46.63,1.17,1.17,0,0,1-.61.55,15.28,15.28,0,0,0-3.42,2.23,5,5,0,0,1-1,.57.64.64,0,0,0-.54-.12,3,3,0,0,0-.89.35.9.9,0,0,0-.32.3l-.08,0a6.47,6.47,0,0,1-2.77,0,5.2,5.2,0,0,1-2.61-.95c-.18-.16-.35-.33-.54-.47a16.8,16.8,0,0,0-3.44-1.57c-.07,0-.16-.06-.2,0s.07.13.12.17l.72.51c-.13-.06-.29.05-.42,0a3.11,3.11,0,0,0-1.49-.51c-.38-.07-.75-.2-1.12-.3,0,0-.09,0-.09,0s0,0,.07,0h1.45l-.09-.09a3.21,3.21,0,0,0-1.31-.64,3.74,3.74,0,0,0-2.27.1,10.49,10.49,0,0,1-1,.37,25.44,25.44,0,0,0-3.38,1.05,22.39,22.39,0,0,0-2.18,1.27,8.23,8.23,0,0,0-2.2,1.68,1.53,1.53,0,0,1-.91.63c-.59.07-1.17.17-1.75.27a.56.56,0,0,1-.5-.1,1.12,1.12,0,0,0-1.09-.39.11.11,0,0,1-.14-.08,1.26,1.26,0,0,0-.62-.57,29.27,29.27,0,0,1-2.56-1.71c-.5-.38-.91-1-1.66-.94-.24,0-.31-.13-.43-.32-.71-1.16-1.54-2.19-3.08-2.17l-.19,0a9.86,9.86,0,0,0-2.4,0,7.62,7.62,0,0,1-1.57,0,9,9,0,0,1-3.14-.71c-.41-.2-.81-.33-1-.8a.46.46,0,0,0-.26-.26c-.45-.11-.69-.55-1.1-.7s-.26-.84-.84-.76c0,0,0,0,0-.06a2,2,0,0,0-1.69-1.14,8.49,8.49,0,0,1-1.39-.43,3.15,3.15,0,0,0-1.54-.41.9.9,0,0,1-.53-.11,10.07,10.07,0,0,0-2-.7c-1.2-.28-2.43-.4-3.65-.57-.13,0-.28,0-.41,0-.33-.07-.73,0-1-.28a1.12,1.12,0,0,0-.79-.42c-.26,0-.52,0-.77-.06a2.4,2.4,0,0,0-1.49.16,2.93,2.93,0,0,1-1.51.58c-.1,0-.29.1-.29.13,0,.23-.14.18-.23.16a.54.54,0,0,0-.47.08c-.53.44-1.23.32-1.84.51s-1.16.31-1.75.46a.86.86,0,0,0-.5,0l-.38.1s.12-.08.17-.13.45-.14.36-.28-.38,0-.52.13a5.59,5.59,0,0,1-1.47.74,7.29,7.29,0,0,0-1.2.58l0,0h0c-.35,0-.51.31-.78.4-.69.21-1.07.86-1.65,1.24a6.12,6.12,0,0,1-.9.5c0-.08.16-.17-.06-.17a2.46,2.46,0,0,0-.91.29,7.2,7.2,0,0,0-1.29.62.8.8,0,0,0-.34.08l-.29.13-.21.05a1,1,0,0,0-.6.38,1,1,0,0,0-.18.52,3.6,3.6,0,0,1-1.4.27,11.09,11.09,0,0,0-2.72.15c-.1,0-.29.1-.31-.07s.18-.14.3-.18h.11l1.32-.27s.08-.05.11-.08-.08-.07-.12-.07a3,3,0,0,0-1.94.28,6.89,6.89,0,0,1-1.85.73,15.89,15.89,0,0,0-2.15.48c-.63.24-1.25.5-1.89.67a18.06,18.06,0,0,1-3.86.42,20.74,20.74,0,0,1-2.29,0,7.22,7.22,0,0,1-2.56-.51c-1.47-.64-2.94-1.29-4.42-1.91a2.72,2.72,0,0,0-1-.28c-.11,0-.26,0-.29.11s.11.15.2.2"/><path class="cls-1" d="M68,160.61s0,0,0,0a16.37,16.37,0,0,0-2.14,3.09s0,0,0,0A16.41,16.41,0,0,1,68,160.61m-8.71,5.15a.55.55,0,0,0,.75,0c.08-.07.13-.11.22-.06.31.16.53,0,.77-.19s.27-.32.53-.26a1,1,0,0,0,1.08-.49c.07-.11.15-.34.25-.29s0,.23-.06.36A2.56,2.56,0,0,0,63,166.7a.45.45,0,0,0,.55.28c.22-.08,0-.28-.06-.4a1.92,1.92,0,0,1,0-.93c.09-.51.49-.31.78-.36s.51-.17.69-.09.08.44.17.66c0,.06,0,.13.09.15s.15,0,.17-.11.13-.41.19-.61.12-.29.3-.29.19.16.21.3,0,.27.15.1.29-.21.5-.26.41-.22.64-.29c.07,0,.11-.09,0-.14-.29-.19,0-.15.07-.2s.47,0,.62-.19A1,1,0,0,1,69.3,164a6.59,6.59,0,0,0,1.66.26c.19,0,.32,0,.4-.26.22-.68.45-.74,1-.36.35.25.37.24.4-.2,0-.1,0-.21.14-.23a.24.24,0,0,1,.29.11,1.72,1.72,0,0,0,.25.37.44.44,0,0,0,.47.15c.15-.06,0-.24,0-.38a1.26,1.26,0,0,0-.11-.55,3.3,3.3,0,0,1-.21-2,.31.31,0,0,1,.3-.3c.48.25.35-.18.43-.37a.48.48,0,0,0,0-.47.41.41,0,0,1,.07-.54.43.43,0,0,0,.1-.51.62.62,0,0,1,.17-.77.38.38,0,0,0,.12-.43,12.77,12.77,0,0,0-.47-1.47,1.55,1.55,0,0,1-.11-.28,27.13,27.13,0,0,1-5.37,3.89l-1.22.78c-1.1.79-2.22,1.55-3.3,2.38q-.71.57-1.39,1.17a0,0,0,0,1,0,0c.46-.4.93-.78,1.41-1.15,1.06-.84,2.16-1.63,3.3-2.38l.88-.64c.83-.62,1.65-1.26,2.46-1.91a15.22,15.22,0,0,1-4.91,1.38s0,0,0,0a14,14,0,0,0,5.43-1.78l2.5-2a.18.18,0,0,1,.26,0,1,1,0,0,1,.4-.29c.61-.29,1.09-.82,1.79-.93.05,0,.1,0,.08-.1s-.06,0-.09,0a3.09,3.09,0,0,0-2.3.57.27.27,0,0,1-.27.09,4.69,4.69,0,0,0-1.46-.08,1.84,1.84,0,0,0-1.9.25.79.79,0,0,0-1,.38c-.36.14-.75.23-1.11.36a17.75,17.75,0,0,0-3.11,1.46c-.47.29-1,.64-.84,1.37.05.27-.1.51-.43.42a8.33,8.33,0,0,0-1.16-.11.69.69,0,0,0-.53.15.85.85,0,0,0-.37.65c0,.32.28.23.43.33a.86.86,0,0,0,.32.11c.16,0,.22.1.13.26-.23.42-.44.84-.69,1.25-.14.22-.24.42-.07.65a.19.19,0,0,1-.05.3c-.27.16-.43.45-.73.57a.65.65,0,0,0-.42.58.46.46,0,0,1-.33.44c-.08,0-.22,0-.2.13s.14,0,.22,0,.19.14.26.24,0,.18-.06.18c-.48,0-.7.5-1.13.61-.15,0-.45.27-.23.48"/><path class="cls-1" d="M184.71,171.09a0,0,0,0,1,0,0,46.9,46.9,0,0,0,3.57-6s0,0,0,0a46.67,46.67,0,0,1-3.57,6M182.28,170a23.07,23.07,0,0,0-2.61,1.68s0,0,0,0a27.87,27.87,0,0,1,2.61-1.71s0,0,0,0m6.18.07s.14.08.06.13-.15,0-.22-.07l.16-.05m-.16,1.74c0-.18-.2-.33-.25-.53s-.29,0-.23-.23.26-.13.35-.13c.47,0,.5-.33.53-.66,0-.13,0-.33-.25-.2a3.35,3.35,0,0,1-.47-.19c0-.16.05-.28,0-.28l.07,0a.38.38,0,0,1,.38.1c.08.09.3-.07.41-.18s0-.2-.05-.3a.58.58,0,0,0-.1-.11,1,1,0,0,0,.14-.43c0-.06,0-.13,0-.2h0c.06,0,.06,0,0-.11s.23-.4.33-.37.17.18.22,0-.08-.23-.2-.29-.21.2-.27,0,.12-.2.21-.29.33-.47.59-.62a.2.2,0,0,0,.07-.16c-.06-.46.28-.79.45-1.15a2.85,2.85,0,0,0,0-2.83l0-.11c-.87,1-1.82,2-2.76,2.95a18.27,18.27,0,0,1-3.54,3.33c-.07,0-.15-.08-.08-.13a21,21,0,0,0,2.75-2.56,13.61,13.61,0,0,0-2.08,1.23,6.82,6.82,0,0,1-1.16.78,41.88,41.88,0,0,1-4,1.26.09.09,0,0,1-.08-.16c1.28-.61,2.68-.86,4-1.41,1.14-.48,2.27-1.15,3.38-1.71,0,0,0,0,0,0l.75-.76c1-1,1.95-1.89,2.84-2.91-.13-.26-.26-.31-.56-.14a.31.31,0,0,1-.21,0,1.08,1.08,0,0,0-.59,0,.76.76,0,0,0-.28,0,14.78,14.78,0,0,1-2.52.09,2.38,2.38,0,0,0-1.35.07c-.19,0-.39,0-.58,0a.91.91,0,0,0-.6.24c-.05-.17-.21-.08-.35,0s-.28.31-.18.52a1.67,1.67,0,0,0,.2.32s0,0,0,.05a7.31,7.31,0,0,1-1.43.83c-.14-.16-.35-.22-.48-.1a.33.33,0,0,0-.06.31l-.13.05a.68.68,0,0,0-.36.93,11.42,11.42,0,0,1-1.13.7c-.56.37-.57.93-1,1.42l-.18,0a.21.21,0,0,0-.21.29h0a.32.32,0,0,0-.15.24s0,0,.07.07.11-.11.17-.13a1.27,1.27,0,0,0,.1.16h0a.52.52,0,0,0,.12.12h0l-.06.12a.22.22,0,0,0,0,.1l-.15-.06a.74.74,0,0,0-.51-.07.21.21,0,0,0-.19,0h-.07a.28.28,0,0,0-.21.34c-.12.16-.29.37-.41.3-.28-.16-.21.07-.24.15a.48.48,0,0,0,.26.65c.44.24.44.25.48.68a.11.11,0,0,0,.07.08c.34.1.49.49.86.57,0,0,.06,0,.09.06s0,.06-.07.06c-.27,0-.32.19-.41.35a.58.58,0,0,1-.81.26,5,5,0,0,0-1-.36c-.21,0-.31.07-.28.15s0,.14-.1.1l-.23-.12c-.29-.13-.29.22-.47.3s0,.19.05.3c.23.3.61.33.9.53s.17.39,0,.54c-.43.31-.79.7-1.2,1-.2.15,0,.4-.27.54a4.93,4.93,0,0,0-1.44,1.72c0,.07-.14.14,0,.23a.19.19,0,0,0,.22,0,6.52,6.52,0,0,0,.89-.48,4.9,4.9,0,0,1,1.47-.88,2.86,2.86,0,0,0,1-.74c.07-.07.23-.11.2-.2v0l.22-.17h0c.08,0,.17,0,.2-.07s0-.09,0-.1l.14-.16a.17.17,0,0,0,.23,0c.44-.23.88-.44,1.33-.63s.68-.22,1-.35l1-.24c0,.15.11.22.24.28s.55.28.84.4,1,.29,1.13.07c.39-.49,1.16-.46,1.43-1.09.34,0,.29-.54.68-.44a.24.24,0,0,0,0-.13s0,0,0,0a.63.63,0,0,0,.29,0,.79.79,0,0,0,.19-.07c-.08.21.11.28.33.33a3.13,3.13,0,0,0,1.38,0,.85.85,0,0,0,.61-.65"/><path class="cls-1" d="M183.69,172.34s0,0,0,0,0,0,0,0"/><path class="cls-1" d="M204.42,171.57l0-.14a1,1,0,0,0-.09-.52,1.36,1.36,0,0,0-.46-.59l-.07-.05c.11-.21.06-.48,0-.52-.49-.22-.24-.65-.35-1,0-.09-.08-.18-.11-.28a2.22,2.22,0,0,0-1-1.08c-.25-.17-.17-.52-.42-.67,0,0,0,0,0-.07.27,0,.34-.28.58-.31a.44.44,0,0,0,.39-.39.47.47,0,0,0-.29-.45,1.06,1.06,0,0,0-.48-.2,1,1,0,0,1-.67-.31.61.61,0,0,0-.39-.14c-.34,0-.68.06-1-.32a6,6,0,0,0-1.82-1.29.28.28,0,0,0-.06-.08.27.27,0,0,0-.21-.08.34.34,0,0,0-.41.11c-.09.09-.42-.27-.69-.18a1.29,1.29,0,0,0-.36.15,4.38,4.38,0,0,0,.64,1.33,15.89,15.89,0,0,0,2.07,2c.3.26.64.5,1,.75a4.56,4.56,0,0,1,1.57.62s0,0,0,0a4.55,4.55,0,0,0-1.52-.61,6.14,6.14,0,0,1,1.65,1.56c.11.18-.15.36-.31.25s-.52-.39-.78-.6a7.21,7.21,0,0,0,.54,3,0,0,0,0,1,0,0,4.2,4.2,0,0,1-.5-1.63c0-.45,0-.9,0-1.35a19.71,19.71,0,0,1-2.12-2.06c0,.72-.14,1.43-.17,2.15,0,0,0,0,0,0,0-.72.16-1.44.17-2.17l-.17-.19a9.67,9.67,0,0,1-2.06-2.91s0,0,0,0a3.56,3.56,0,0,0,.47.92,4,4,0,0,1-.44-1,.44.44,0,0,0-.09.1c-.08.13-.15.27-.31.13s-.32-.16-.17-.38,0-.26-.06-.38a16.62,16.62,0,0,0-1.33-2.07,5.74,5.74,0,0,1-1-3.73c0-.06,0-.16,0-.17-.27-.12-.22-.4-.32-.6s0-.32-.15-.31-.21.25-.18.37a7.4,7.4,0,0,0,.48,1.76,1.66,1.66,0,0,1-.14,1.69c-.09.1-.19.15-.18.34s-.24.11-.36.16-.1-.13-.09-.21c0-.43.07-.85.11-1.28,0-.08.09-.19,0-.23s-.13.1-.17.17a5.31,5.31,0,0,0-.44,1.93c-.09.43-.11.94-.52,1.15a1.25,1.25,0,0,0-.52.47c-.06.09-.22.15-.14.27s.24.08.38,0,.26-.16.31,0,.18.11.26,0c.34-.38.32-1.11,1.1-1.08.18,0,.38-.28.45-.52s.12-.44.18-.65c0,0,0-.12.07-.12s.05.06.07.1a18,18,0,0,0,2,3.06c.21.29.71.54.26,1-.05.05,0,.17-.05.25a7.71,7.71,0,0,0,0,1.42,4.58,4.58,0,0,0,.21,1.54c.12.37.26.8.81.81.22,0,.32.14.31.37a4.12,4.12,0,0,0,.06.66.79.79,0,0,0,0,.15,1.22,1.22,0,0,0,0,.37,1.27,1.27,0,0,1,0,.25c0,.13-.08.4.12.51.4.22.76.57,1.29.43a.72.72,0,0,1,.48,0c.49.27,1.16.15,1.54.68,0,.06.13,0,.21,0,.38,0,.76,0,1,.44.12.26.37.44.64.27a.57.57,0,0,1,.69,0,1,1,0,0,0,1.15-.13.46.46,0,0,0,.17-.78"/><path class="cls-1" d="M190.05,150.92a4.6,4.6,0,0,1,1.3.18,3.72,3.72,0,0,0,2.91.1c.14-.07.33-.15.32.16s.12.22.25.1.38-.15.29-.44-.07-.63-.47-.68a2,2,0,0,0-1.23.2,3,3,0,0,1-2,.13,20.34,20.34,0,0,1-2.41-.79c-.29-.09-.55-.23-.84-.31-.49-.15-1-.15-1.39-.61a4.49,4.49,0,0,0-1.29-.75,8.65,8.65,0,0,0-1.27-.3c-.23,0-.33.12-.4.27s.09.25.2.3a20.94,20.94,0,0,0,2.34,1,21.45,21.45,0,0,1,3.53,1.78.6.6,0,0,1,.37.59c0,.19,0,.48.38.28.14-.08.22,0,.27.13a7.61,7.61,0,0,1,.33.72c.1.24.13.52.38.67a1.32,1.32,0,0,1,.48.57c.18.37.35.74.52,1.12.05.12.14.26.26.21s.08-.21,0-.33a11.87,11.87,0,0,0-.55-1.51c-.27-.52-.47-1.13-1.13-1.34a.24.24,0,0,1-.16-.3c.06-.12.18,0,.27,0a1.61,1.61,0,0,1,.23.13c.09,0,.22.07.28,0a.29.29,0,0,0,0-.25,1.11,1.11,0,0,0-.75-.62,9.36,9.36,0,0,1-1-.32s-.07,0-.05-.06a.12.12,0,0,1,.09-.05"/><path class="cls-1" d="M89.16,172.81a23,23,0,0,1,1.4-2.4l.41-.55-.08.28c-.22.85-.41,1.76-.57,2.63,0,.12.14.2.22.1a6.24,6.24,0,0,0,.65-2.53c.07-.37.15-.73.23-1.1.13-.18.25-.37.37-.56.31-.5.61-1,.87-1.54a.4.4,0,0,0,.45.1.45.45,0,0,0-.1-.85,11.14,11.14,0,0,0,.42-1.13c.27-.88.55-1.76.89-2.6a20.65,20.65,0,0,1,.2,3.86,27.11,27.11,0,0,0-.25,4.3,0,0,0,0,0,.09,0c0-1.56.23-3.09.26-4.65a27.27,27.27,0,0,0-.28-3.56,7.42,7.42,0,0,1,3.95-4.43.07.07,0,0,0,0-.13,7.21,7.21,0,0,0-4,3.55c0-.11,0-.22,0-.34a0,0,0,0,0,0,0c0,.12,0,.25,0,.37-.16.29-.3.6-.44.91a.6.6,0,0,0,0-.17,0,0,0,0,0,0,0,.62.62,0,0,1,0,.19c-.08.19-.16.38-.23.58a5.3,5.3,0,0,1-.56.54l-.4.33c-.63.43-1.35.79-1.66,1-.07,0,0,.15.08.1.53-.38,1.08-.71,1.58-1.1a4.27,4.27,0,0,0,.93-.79c-.09.24-.18.48-.25.73a20.9,20.9,0,0,1-1.32,3.28c-.35.21-.68.47-1,.71a12.84,12.84,0,0,1-2.12,1.31c-.15.07-.12.33.07.3,1.37-.26,2-1.54,3-2.25l-.31.57c0-.07,0-.14,0-.21a0,0,0,0,0,0,0c0,.12,0,.24-.07.36l-.37.6c-.4.62-.84,1.2-1.22,1.84a22,22,0,0,0-1,2.28c-.05.12.12.19.18.08m-3.22,4.58c0-.18.1-.38-.09-.53-.36-.28.09-.63-.09-.93.64-.49.84-1.33,1.47-1.84.18-.15.18-.48.51-.5.05,0,0-.1,0-.16s-.08-.15-.13-.16a.13.13,0,0,0-.15.13c0,.24-.09.17-.26.13a.37.37,0,0,1-.24-.59.57.57,0,0,0,0-.65.8.8,0,0,1,0-.41c0-.31,0-.63,0-.92a2.31,2.31,0,0,1,.24-1.19,4.12,4.12,0,0,0,.57-1.38,1,1,0,0,1,.94-1h.07l0-.12a.1.1,0,0,1-.08-.05.13.13,0,0,1,0-.1c0-.07.1-.06.16-.06l0-.11a.3.3,0,0,1-.07-.15c0-.14-.12-.16-.22-.13s-.43,0-.44-.31c0-.55-.28-1.1,0-1.67a.3.3,0,0,0,0-.18,6.55,6.55,0,0,1-.11-2,1.18,1.18,0,0,1,.32-.88.64.64,0,0,0,.2-.78c0-.11-.08-.2,0-.31a6.78,6.78,0,0,1,1.77-1.38,15.77,15.77,0,0,1,1.7-.93c.71-.29,1.32-.81,2-1.07a12.07,12.07,0,0,1,3.84-.65,3,3,0,0,1,.87.25c.18,0,0,.28.09.4l.1.14a1.1,1.1,0,0,0,.1-.15,11.64,11.64,0,0,0,.6-1.9.62.62,0,0,0,0-.26,1.45,1.45,0,0,1,.34-1.29,9.73,9.73,0,0,1,1-1,3.56,3.56,0,0,1,1.8-.78c1.62-.23,3.23-.48,4.82-.86a1.35,1.35,0,0,1,.56,0,1,1,0,0,1,.17.06s-.08.11-.13.13a8.69,8.69,0,0,1-1,.36,15.2,15.2,0,0,1-2,.58,12.47,12.47,0,0,0-3.1.71,11.63,11.63,0,0,0-1.32.69,1.2,1.2,0,0,0-.71,1,5.87,5.87,0,0,1-.75,3.32c-.1.2-.42.4,0,.66a1.59,1.59,0,0,1,.55,1c.11.38.42.74,0,1.13-.05.06,0,.08,0,.11a.26.26,0,0,1,.07.34c-.16.4-.2.87-.59,1.16a.37.37,0,0,0-.14.17c0,.16-.34.31-.14.44s.2-.19.3-.3.18-.21.29-.22-.11.26.12.27a3.67,3.67,0,0,0-.11,1.13.82.82,0,0,1-.22.76,4.34,4.34,0,0,0-.62.9c-.16.35-.53.57-.68.95-.06.14-.18.28-.18.43,0,.3,0,.6-.3.75-.14.06-.15.19-.19.31a2.43,2.43,0,0,1-.27.62,3.52,3.52,0,0,0-.88,1.88,2.86,2.86,0,0,1-.25.62.28.28,0,0,1-.4.17c-.16-.09-.19,0-.3.07s-.31.64-.67.18c0,0-.07,0-.11,0a2.16,2.16,0,0,0-.95,1.21c0,.6-.46,1.41-.94,1.39a2.55,2.55,0,0,0-1.36.51l-.11,0a11.86,11.86,0,0,0-1.36.48.84.84,0,0,1-.69-.1c-.28-.13-.91-.06-1.06.21-.29.51-.79.87-1,1.44,0,.07-.08.2-.16,0s-.2-.07-.23,0a.52.52,0,0,1-.29.31.58.58,0,0,0-.29.47,1,1,0,0,1-.29.63c-.17-.21-.11-.46-.11-.7"/><path class="cls-1" d="M109.19,165.2a14.38,14.38,0,0,0,4,3.19,0,0,0,0,0,0,0c-1.44-1.22-3-2.25-4.3-3.6-1.51-1.52-2.85-3.14-4.52-4.51a0,0,0,0,0,0,0,53.93,53.93,0,0,1,4.8,4.92m2.87-.9a43.84,43.84,0,0,0,6.19,2.52s.06,0,0-.05a60,60,0,0,1-6.08-2.74,25.11,25.11,0,0,0-2.92-1.57l-.33-.13c1,.12,1.95.31,2.94.35,1.27,0,2.53,0,3.8,0,0,0,0,0,0,0a44.59,44.59,0,0,1-4.54,0c-.76-.08-1.51-.21-2.26-.3-.92-.36-1.86-.65-2.78-1a.15.15,0,0,0-.13.28c1.08.5,2.21.87,3.31,1.31a25.39,25.39,0,0,1,2.79,1.42M101,160.22c0-.42.17-.88-.23-1.27a.68.68,0,0,1-.22-.45c0-.1,0-.21,0-.28s.22,0,.31,0a.56.56,0,0,1,.27.35.61.61,0,0,0,.25.31,1.66,1.66,0,0,0,1.78.14c.82-.36,1.65-.68,2.48-1a12,12,0,0,1,3.83-.67c.23,0,.54,0,.65.26s.21.25.38.2.51,0,.78-.11.5.13.78.16.56.24.85.29.71.14.61.63c-.06.27.23.64,0,.77-.44.22-.07.26,0,.34a13.42,13.42,0,0,1,1.36,1c.06.06.33.16.07.29s0,.17,0,.23.2.08.25.15a5.87,5.87,0,0,0,1.68,1.28c.29.18.44.36.26.69,0,.07,0,.14.06.12.32-.06.37.17.4.38a1.62,1.62,0,0,0,1.12,1.4.47.47,0,0,1,.31.44.37.37,0,0,0,.14.3,1.35,1.35,0,0,1,.43,1.15c0,.34-.11.4-.4.31s-.31-.16-.46,0a.87.87,0,0,1-1,.23.79.79,0,0,0-.4-.06c-.59.12-1.18.25-1.76.42a5.08,5.08,0,0,1-1.82.22l-.45,0a2.1,2.1,0,0,0-1.43.23l-.21.13a1,1,0,0,1-.93.48h-.22l-.38.08c-.51.09-.76.27-1.09,0l-.49.08a.86.86,0,0,1-.94-.59,3.92,3.92,0,0,1-.51-.56,1.56,1.56,0,0,1-.46-1c0-.11-.16-.3,0-.38s.16.14.24.23.06.16.16.09a.12.12,0,0,0,0-.17c-.18-.22-.18-.74-.69-.44,0,0-.06,0-.08,0a4.54,4.54,0,0,0-1.27-1.22c-.41-.21-.54-.69-.74-1.1a14.84,14.84,0,0,0-2.61-3.32.4.4,0,0,0-.2-.09.58.58,0,0,1-.48-.59"/><path class="cls-1" d="M104.25,160.17s0,0,0,0,0,0,0,0"/><path class="cls-1" d="M98.74,166.05a.1.1,0,0,1,.09,0,.09.09,0,0,1-.06.14s-.06,0-.08,0,0-.12,0-.14"/><path class="cls-1" d="M87.17,177a.18.18,0,0,1-.1.18s0,0-.09-.06a1.29,1.29,0,0,1,.11-.16s.08,0,.08,0"/><path class="cls-1" d="M109.86,149c-.05,0-.13-.07-.17-.05A3.32,3.32,0,0,0,108.1,150c-.07.11-.05.26-.14.33a3.27,3.27,0,0,0-.6.76c-.18.28-.31.59-.46.89l-1,1.9c0,.18-.22.39,0,.48s.23-.19.3-.33c.49-1,1.22-1.83,1.63-2.87.07-.18.21-.51.29-.53.31-.08.38-.27.42-.53,0,0,.05-.11.08-.11.33,0,.38-.46.72-.43,0,0,.08-.06.07-.08-.08-.26,0-.14.16-.1s.13-.26.32-.29,0-.09,0-.12"/><path class="cls-1" d="M111.53,148.34c-.11-.08-.17.07-.22.14s-.36.42-.51.65-.37.32-.38.59c0,.06,0,.12,0,.17l.12-.08a3.52,3.52,0,0,0,1-1.14c0-.14.14-.25,0-.32"/><polygon class="cls-1" points="111.07 147.82 111.07 147.82 111.07 147.82 111.07 147.82"/><path class="cls-1" d="M111.07,147.82c-.31.29-.47.74-.92.91-.07,0-.24.07-.13.2a.25.25,0,0,0,.31.06,4.47,4.47,0,0,0,.75-.66c.08-.1.23-.34,0-.5"/><polyline class="cls-1" points="111.07 147.82 111.07 147.82 111.07 147.82 111.07 147.82"/><path class="cls-1" d="M111.82,147.29c0-.15-.23.06-.38.06a.39.39,0,0,0-.37.47,1.35,1.35,0,0,0,.35-.08c.19-.1.43-.24.4-.45"/><path class="cls-1" d="M112.75,147.1s0,.08,0,.08a.49.49,0,0,0,.17,0s0-.07,0-.08a.18.18,0,0,0-.2,0"/><path class="cls-1" d="M110,150.13s0,.09,0,.08a.32.32,0,0,0,.14-.09s0-.05,0-.11l-.16.12"/><path class="cls-1" d="M146.18,140.52s0,0,0,0a7.53,7.53,0,0,1,.24,2.92l.08-.15c.4-.74.93-1.4,1.37-2.11a9.56,9.56,0,0,1,2.73-3.35s.08,0,0,.06c-1.3.89-2,2.35-2.79,3.64-.31.49-.65.95-1,1.43.91-.47,1.88-.81,2.81-1.25.07,0,.11.08,0,.11-.94.43-1.94.69-2.86,1.15-.11.18-.22.37-.32.56-.4.79-.71,1.62-1.1,2.41a0,0,0,0,1-.08,0,18.07,18.07,0,0,1,1-2.45,7,7,0,0,0-.26-2.94m1.92-1.17a6.58,6.58,0,0,1-.75,1.94h0a6.57,6.57,0,0,0,.74-1.94h0m-3,.09c0,.06,0,.1.07.13l.06,0s0,0-.08,0-.14.14-.1.15c.21.06.11.26.18.37a.25.25,0,0,1,0,.29c0,.05-.05.12-.1.14a1.16,1.16,0,0,0-.49.72c0,.06-.07.06-.12.06s-.24.14-.14.28l0,.06c-.22.11.11.28,0,.41.06.09,0,.21.06.3s0,0,0,0l-.06,0c0-.05,0-.15-.12-.13s0,.11,0,.18a.75.75,0,0,1-.07.22c0,.06-.15.14,0,.24s.06.26,0,.37-.07.13,0,.17c.24.19.16.46.18.7a11.56,11.56,0,0,0,.12,1.64c.05.22.11.43.35.52a.13.13,0,0,1,.07.16,5.12,5.12,0,0,1-.33,1.44c0,.06,0,.17-.14.16s-.14,0-.11-.14-.16-.11-.22-.14-.1.09-.07.16.07.32.15.46c.21.38,0,.79.13,1.18,0,.15.06.31.08.46s0,.12.1.13.09-.06.12-.11,0-.18.1-.24a2.42,2.42,0,0,1,.08.27,3.83,3.83,0,0,1,.07,1.41c0,.15,0,.3,0,.45s0,0,0,.06.08,0,.12-.06.17-.17.25.06a4.87,4.87,0,0,0,.34.63,5.22,5.22,0,0,0,.68,1.07c.12.13.17.32.29.46s.09.13.18.13.08.1.15,0a.14.14,0,0,0,0-.18c-.19-.27-.3-.59-.51-.85a.68.68,0,0,1-.08-.15c-.1-.22-.1-.47-.35-.64s-.17-.32-.24-.5,0-.23-.17-.26,0,0,0-.06,0-.16,0-.23-.1-.26,0-.38a.08.08,0,0,0,0-.12s-.08,0-.11,0,0,0-.06,0,0-.05,0-.08a5.54,5.54,0,0,0-.13-1.53c0-.12-.18-.16-.24-.29a.78.78,0,0,1-.06-.62,4.84,4.84,0,0,0,.47-1.74c0-.12.1-.11.19-.13l1.08-.18a6.2,6.2,0,0,0,1.12-.5.2.2,0,0,0,.1-.2c-.05-.27.15-.38.3-.52a5,5,0,0,0,.94-1.07c.11-.2.28-.35.39-.54a2.23,2.23,0,0,0,.35-1.1,1.08,1.08,0,0,1,.32-.68c.09-.11.17-.22.24-.33a.27.27,0,0,0,0-.34c-.08-.1-.18,0-.27,0l-.23.09c0-.11.13-.12.2-.16a1.08,1.08,0,0,0,.49-.46c0-.11,0-.26.12-.37s-.07,0-.11,0-.15,0-.16-.07-.05-.17,0-.25.33-.28.26-.54c0-.09.1-.14.17-.2a2,2,0,0,0,.43-.39c.05-.08.1-.18,0-.25s-.15,0-.22,0a1.49,1.49,0,0,0-.44.21l-.07,0s0-.06,0-.07a3.89,3.89,0,0,1,.54-.56h0c.13-.38.5-.43.8-.6.12-.07.12-.21.1-.33s-.11-.25,0-.38,0-.1-.06-.11c-.19-.06-.21-.25-.31-.38s-.1-.12-.13,0-.32.24-.46.37-.28.37-.5.48a2,2,0,0,0-.4.23c-.09.07-.22-.1-.23-.11s-.21-.16-.3-.27a.15.15,0,0,0-.23,0c-.14.2-.38.35-.33.64,0,.05.06.13,0,.15s-.22.08-.27,0-.16-.1-.22-.18-.1-.15-.17-.09a.31.31,0,0,0-.14.21.6.6,0,0,1-.29.41,2,2,0,0,0-.37.39.32.32,0,0,1-.16.14h-.09s-.05,0,0-.05,0-.22.14-.28.14,0,.1-.1-.14,0-.18,0-.15.08-.21,0a.7.7,0,0,0-.35-.29.1.1,0,0,0-.14,0s0,.13,0,.14.05.1,0,.17-.06.19,0,.26l0,0a1,1,0,0,1-.19.79c-.06,0-.07.07-.09,0a.65.65,0,0,0-.43-.42c-.18-.08-.24,0-.26.18a.16.16,0,0,1,0,.05c-.09.17.08.24.15.34s.07,0,.08.07.16.06.12.15-.12.09-.2.11-.11,0-.16-.1a1.42,1.42,0,0,0-.49-.37c-.09,0-.08.16-.19.07"/><path class="cls-1" d="M148.49,148.07a1.13,1.13,0,0,1-.52,0,2.22,2.22,0,0,0-1.66.4,3.16,3.16,0,0,0-.34.29.33.33,0,0,1-.41,0c-.1-.06,0-.15,0-.2a.4.4,0,0,1,.14-.19,2.6,2.6,0,0,1,1.37-.54c.48,0,.95.08,1.42.06,0,0,.12,0,.13,0s-.06.11-.12.12"/><path class="cls-1" d="M144.27,142.18a0,0,0,0,1,0-.06c0-.06.07,0,.11,0s0,.08-.09.05"/><polyline class="cls-1" points="144.36 142.13 144.36 142.13 144.36 142.13 144.36 142.13 144.36 142.13"/><path class="cls-1" d="M149.86,147c-.19.08-.29-.22-.11-.29,1.22-.53,2.3-1.36,3.56-1.78a7.39,7.39,0,0,1,1.79-.36,6.85,6.85,0,0,0,2.09-.29s0,0,0,0a4.72,4.72,0,0,1-1.74.35,8.55,8.55,0,0,0-2.09.44c-1.29.43-2.26,1.42-3.51,1.92m-.75-1.41c-.17.07,0,.23-.12.32a.32.32,0,0,0-.08.31.4.4,0,0,1-.19.46,1.75,1.75,0,0,0-.48,1s0,.08.05.09a1.12,1.12,0,0,1,.5.19,1.37,1.37,0,0,0,.52.13,4.35,4.35,0,0,0,1.52-.12,1.76,1.76,0,0,1,1.07,0,.78.78,0,0,0,.76-.34.32.32,0,0,1,.2-.17,1.56,1.56,0,0,1,.67-.13c.12,0,.18-.15.32-.12s0,0,0-.06-.07-.27.11-.36a1.93,1.93,0,0,0,.58-.33c.27-.31.67-.33,1-.58a.45.45,0,0,0,.17-.55c0-.07,0-.12.06-.13a5.09,5.09,0,0,0,.84-.23c.1,0,.22,0,.34,0a2,2,0,0,0,.51-.11.93.93,0,0,0,.33,0,.73.73,0,0,1,.42.05.38.38,0,0,0,.32-.68,1.36,1.36,0,0,0-.28-.1h0l-.16,0h-.25s-.17,0-.1,0a.45.45,0,0,0-.14-.07c-.1-.13-.25-.22-.31-.39s-.18-.07-.24,0a.31.31,0,0,1-.29.11c-.12,0-.27,0-.25.19,0,.07-.12.17-.23.2a.1.1,0,0,1-.12-.07c0-.09,0-.07.08-.09s.1,0,.09-.09-.07,0-.11-.07a1.09,1.09,0,0,1-.41-.33c0-.05-.07-.1-.13,0s-.21.1-.29.19-.29,0-.42.12,0,0,0-.07a.11.11,0,0,0-.06-.14.15.15,0,0,1-.06-.23c.05-.1,0-.18,0-.28s-.06,0-.09,0c-.24.19-.57.16-.8.37a.13.13,0,0,1-.2,0,.15.15,0,0,1,0-.22.32.32,0,0,0,0-.09.15.15,0,0,0,0-.16c-.05,0-.1,0-.14,0a4.63,4.63,0,0,0-.58.48c-.08.08-.16.16-.29.13s-.08,0-.11.07-.21.36-.32.54c0,0,0,.05-.05,0s0-.06,0-.08l.37-.71.07-.14a.16.16,0,0,0,0-.2c-.08-.05-.13,0-.17.09s-.24.38-.36.58c0,0,0,.06,0,.09s-.15.2-.23.19,0-.13,0-.2,0-.13,0-.19-.11-.18-.23-.13a.84.84,0,0,0-.54.52c0,.09-.06.09-.14,0a.74.74,0,0,0-1.06.29c-.1.16-.23.31-.33.48s-.17.23-.1.39,0,0,0,0c-.22,0-.12.24-.15.25"/><path class="cls-1" d="M86.7,138a6.48,6.48,0,0,0,.8,2.61,16.61,16.61,0,0,1,1.73,1.75s0,.1-.06.06c-.61-.55-1.16-1.15-1.78-1.68-.15-.13-.31-.25-.47-.37-1-.08-1.9,0-2.85,0-.07,0-.08-.12,0-.11.94.05,1.9,0,2.84.1-.43-.31-.88-.59-1.31-.9a10.24,10.24,0,0,0-3.65-2.16,0,0,0,0,1,0-.06,8.83,8.83,0,0,1,3.5,1.92c.63.46,1.31.84,1.91,1.34l.12.1a7,7,0,0,1-.81-2.59s0,0,0,0m-2.05-.34s0,0,0,0a6.08,6.08,0,0,0,1.31,1.4s0,0,0,0a6.11,6.11,0,0,1-1.31-1.4m2.64-1c-.06.11-.13-.07-.19,0a1.32,1.32,0,0,0-.29.49c0,.07,0,.12-.1.14a.24.24,0,0,1-.21,0c-.07-.06,0-.11,0-.17s0-.06,0-.09.15-.22,0-.34l0,0c-.09-.17-.16-.19-.29-.06a.61.61,0,0,0-.22.51c0,.09,0,.07-.07.06a.91.91,0,0,1-.44-.61l0,0c.07-.1,0-.17,0-.24s-.11-.07,0-.15,0-.09-.05-.12a.09.09,0,0,0-.13,0,.65.65,0,0,0-.2.37c0,.12,0,.22-.16.1s-.16,0-.17,0,.08,0,.12.05.14.14.22.19,0,0,0,.06l-.08,0a.3.3,0,0,1-.19-.07,1.83,1.83,0,0,0-.45-.21.56.56,0,0,1-.39-.25.29.29,0,0,0-.2-.13c-.07,0-.09.08-.11.14s-.1.14-.13.23-.16.07-.24.08-.06-.07-.07-.12c-.06-.27-.32-.32-.51-.44a.14.14,0,0,0-.19.09c0,.12-.18.18-.16.33s0,.21-.15.18a1.8,1.8,0,0,0-.42-.06,1.85,1.85,0,0,1-.59-.24c-.17-.07-.38,0-.53-.16s-.08,0-.1.07,0,.32-.13.43,0,.09,0,.12.09.22.12.33.07.23.2.25c.31,0,.65,0,.89.24h0a3.7,3.7,0,0,1,.66.3s.07,0,0,.05h-.07a1.37,1.37,0,0,0-.45,0c-.07,0-.17,0-.19.07s0,.15.12.2a1.88,1.88,0,0,0,.51.18c.08,0,.2,0,.21.11,0,.25.24.29.41.37s.1.13.11.21-.05.09-.11.12-.11,0-.09.06.15.2.23.28a1,1,0,0,0,.58.23c.08,0,.17,0,.23.07h-.23c-.09,0-.2,0-.23.08a.25.25,0,0,0,.1.3l.32.2a1,1,0,0,1,.51.47,2.08,2.08,0,0,0,.68.83c.17.13.36.2.53.33a4.59,4.59,0,0,0,1.18.59c.18.07.39.09.44.34,0,.05.08.14.15.14a5.72,5.72,0,0,0,1.13,0l1-.22c.08,0,.16-.05.2,0a4.49,4.49,0,0,0,1,1.33.72.72,0,0,1,.16.55c0,.14-.14.23-.11.34a5.13,5.13,0,0,0,.41,1.36s0,.06,0,.08,0,0-.06,0-.08,0-.11,0a.08.08,0,0,0,0,.11c.14.07.14.19.15.32s-.07.18.08.2,0,0,0,.06-.06.18-.05.28.05.39,0,.51-.07.45-.08.67a.66.66,0,0,1,0,.16c-.08.3-.07.61-.14.91a.13.13,0,0,0,.07.15c.08.05.08,0,.12-.07s.09-.1.11-.17,0-.34.09-.49a4.85,4.85,0,0,0,.21-1.15,4.62,4.62,0,0,0,.07-.66c0-.23,0-.23.19-.14,0,0,.08,0,.12,0s0-.05,0-.06-.09-.26-.17-.38a3.54,3.54,0,0,1-.43-1.24,2.29,2.29,0,0,1,0-.26c.08,0,.11.12.17.17s.08.08.14.05,0-.09,0-.14-.06-.28-.09-.42c-.06-.37-.34-.66-.29-1.06,0-.15-.05-.29,0-.45s0-.18-.11-.11,0,.17-.14.2a.1.1,0,0,1,0,.16c-.09,0-.13,0-.18-.09a4.73,4.73,0,0,1-.79-1.12.12.12,0,0,1,0-.17.59.59,0,0,0,.12-.57,10.78,10.78,0,0,0-.46-1.45c-.06-.21-.23-.42-.09-.66,0,0,0-.09-.08-.13s-.19-.26-.15-.31,0-.17-.07-.21a.67.67,0,0,1-.14-.16s0-.14-.1-.14,0,.1-.05.15a.22.22,0,0,1,0,.06l0,0c0-.1-.07-.18-.05-.27-.17-.05.05-.31-.18-.33v-.07c0-.16-.06-.25-.22-.19s-.08,0-.13,0a1.07,1.07,0,0,0-.67-.44s-.09-.05-.13-.09a.23.23,0,0,1-.07-.26c0-.12-.13-.25,0-.38s0-.15-.14-.1-.06,0-.08,0l0,0s0-.09,0-.13"/><path class="cls-1" d="M87.34,145.26a1,1,0,0,0,.45-.17,2.05,2.05,0,0,1,1.56-.23,2.92,2.92,0,0,1,.39.13.3.3,0,0,0,.36-.13c.06-.09,0-.13-.06-.17a.38.38,0,0,0-.19-.12,2.41,2.41,0,0,0-1.37,0c-.42.13-.78.4-1.2.54,0,0-.12,0-.1.08s.09.07.15.06"/><path class="cls-1" d="M88.92,138.75a0,0,0,0,0,0-.06c-.05,0-.07,0-.09,0s.06.05.1,0"/><polyline class="cls-1" points="88.82 138.74 88.82 138.74 88.82 138.74 88.82 138.74 88.82 138.74"/><path class="cls-1" d="M85.8,144.85c-1.25,0-2.42-.5-3.68-.43a7.89,7.89,0,0,0-1.95.35,4.37,4.37,0,0,1-1.61.3s0,0,0,0a6.35,6.35,0,0,0,1.89-.47,6.85,6.85,0,0,1,1.66-.31c1.23-.08,2.44.27,3.67.29.19,0,.2.29,0,.29m.16-1.46s0-.24-.21-.16c0,0,0,0,0,0,0-.16-.12-.22-.22-.3s-.3-.19-.45-.3a.69.69,0,0,0-1,.12c-.05.06-.09.08-.14,0a.78.78,0,0,0-.64-.26c-.11,0-.16.08-.15.19s.07.11,0,.17.16.13,0,.18-.18,0-.26-.09l-.07-.06-.51-.37s-.12-.09-.17,0a.15.15,0,0,0,0,.18l.11.09.56.48s.06,0,0,.07l-.06,0c-.16-.12-.32-.23-.46-.36s-.07-.06-.12,0-.19,0-.29,0a4.34,4.34,0,0,0-.66-.21s-.1,0-.13,0a.14.14,0,0,0,0,.15.27.27,0,0,0,.06.06.14.14,0,0,1,.06.2c0,.09-.1.1-.18.07-.27-.1-.55,0-.81,0,0,0-.09,0-.07,0s0,.18.08.25a.14.14,0,0,1,0,.22.1.1,0,0,0,0,.14s0,.08,0,.08-.27.12-.4,0-.22,0-.32-.06-.09,0-.1.07a1,1,0,0,1-.24.42s-.08,0-.07.1.07,0,.11,0,.1,0,.1.05a.09.09,0,0,1-.08.1c-.11,0-.25,0-.27-.09-.06-.21-.18-.13-.28-.08a.28.28,0,0,1-.29,0c-.08,0-.21,0-.2.09a1.34,1.34,0,0,1-.13.44.44.44,0,0,0-.1.11c0-.07-.06,0-.1,0l-.21.08-.13.07,0,0a1.27,1.27,0,0,0-.21.18c-.3.33.21.81.51.48a.68.68,0,0,1,.34-.19.85.85,0,0,0,.27-.14,1.89,1.89,0,0,0,.48-.08c.1,0,.19-.13.29-.13a4.77,4.77,0,0,0,.8-.09c.07,0,.1,0,.1.09a.41.41,0,0,0,.33.41c.33.12.68,0,1,.17a1.81,1.81,0,0,0,.61.09c.19,0,.26.11.22.27s0,.07,0,.05.22,0,.31,0a1.45,1.45,0,0,1,.62-.12.3.3,0,0,1,.23.08.72.72,0,0,0,.77,0,1.63,1.63,0,0,1,.93-.34,4,4,0,0,0,1.35-.43,1.27,1.27,0,0,0,.4-.29,1,1,0,0,1,.36-.34s0-.06,0-.09c-.21-.27-.39-.58-.75-.69-.17-.05-.3-.13-.32-.33a.3.3,0,0,0-.17-.24c-.11,0,0-.23-.21-.23"/></g><g id="Rama_Arriba" data-name="Rama Arriba"><circle class="cls-1" cx="278.02" cy="27.8"/><path class="cls-1" d="M319.83,11.59a4.45,4.45,0,0,0-.86,0,.55.55,0,0,1-.13,0c0-.07.07-.05.11-.06a2.07,2.07,0,0,0,.78-.35s.14-.06.1-.14-.1,0-.16,0l-.75.14h-.09l.05,0c.19-.09.33-.28.57-.26,0,0,.09,0,.08-.06s-.07-.05-.12,0c-.22.07-.44,0-.66,0,0,0-.14,0-.14,0s.09-.09.14-.09a1.86,1.86,0,0,0,.48,0l.06,0-.05,0c-.05,0-.14,0-.15,0s.1,0,.15-.08.1-.05.14-.09.08-.12,0-.17-.1,0-.13,0a1.27,1.27,0,0,1-.83.33.73.73,0,0,0-.2,0c0,.26-.2.14-.31.18s-.27,0-.4,0a1.06,1.06,0,0,1-.28,0l.32.11c.07,0,.2,0,.19.09s-.13,0-.21,0h-.1a6.23,6.23,0,0,0-2.09.34c-.24.06-.48.15-.71.23l0-.09c.7-.32,1.45-.49,2.15-.74a1.82,1.82,0,0,0-.68-.07c-.37.06-.74.07-1.12.11,0,0-.13,0-.11.09s.08,0,.13,0l.11,0,0,0-1,.16c-.05,0-.12,0-.11,0a.64.64,0,0,0-.29.13.37.37,0,0,0-.14.07,10.37,10.37,0,0,1-1.14.51c-.27.16-.59.22-.87.37a11.83,11.83,0,0,1-1.16.5c-.19.08-.27.29-.44.35a5.43,5.43,0,0,0-1.47.92c-.21.16-.28.47-.53.57s-.48.41-.71.61a8.09,8.09,0,0,1-1.17.8,7.18,7.18,0,0,0-1,.6,4.71,4.71,0,0,0-.88.94c0,.05-.08.1-.08.17s0,0,.05,0,.07,0,0,.06l-.88,1.24a2.9,2.9,0,0,0-.2.23c0,.05-.13.14-.17.09s-.19,0-.24.07l-.1.11a.59.59,0,0,0-.24.25l-.08.15a1.55,1.55,0,0,1-.32.3.13.13,0,0,0-.06.08,1,1,0,0,1-.5.66c-.26.2-.35.53-.62.73a6.79,6.79,0,0,0-.61.68c-.43.43-.95.76-1.35,1.23a9.86,9.86,0,0,1-1.29,1.17c-.92.74-2.09.7-3.15,1a.36.36,0,0,1,.12-.07s.12,0,.11-.07-.08,0-.12,0l-.36.05-.17,0-.11,0-1.39.2h-.07l0,0,.46-.37c.14-.11.42-.17.13-.44-.08-.08-.1-.1-.2,0a1.76,1.76,0,0,1-.59.32c-.21,0-.3.24-.51.24,0,0,0,0,0,0s0,.16-.06.17a1.44,1.44,0,0,0-1,.46.14.14,0,0,1-.11,0,.58.58,0,0,0-.36.1,4.69,4.69,0,0,1-2.25.42c-.14,0-.35,0-.41-.12a.21.21,0,0,0-.19-.15,12.14,12.14,0,0,1-3.2-1,2.06,2.06,0,0,0-2.49.61c0,.08-.1.18,0,.24s.12,0,.19-.07.09-.09.14,0,0,.1-.06.12a1.58,1.58,0,0,1-.8.14c-.25,0-.46-.22-.72-.15a1.06,1.06,0,0,1-.4,0c-.61-.07-1.19-.26-1.79-.39a4,4,0,0,0-1.24-.18,4.1,4.1,0,0,1-1.05-.11,1.43,1.43,0,0,0-.33,0h-.12a14.54,14.54,0,0,0-1.63.08,2.24,2.24,0,0,1-.81.1c-.38-.08-.66.2-1,.29h0a.39.39,0,0,0-.17.1l0,0c-.19.1-.46.11-.47.42,0,0-.06.08-.1.09-.22,0-.25.3-.47.36s-.19.08-.09.21l-.11.08c-.05,0-.14.06-.16.1l-.21.06,0,0c0-.05,0-.12,0-.16s-.09,0-.13.07a1,1,0,0,0-.24.38l0,.06a.21.21,0,0,0,0,.15,5.27,5.27,0,0,0-.56,1.51A6.8,6.8,0,0,1,269,31s0,.09-.06.07-.12,0-.16.06-.22.3-.2.5-.1.12-.18.13-.06,0-.08.08-.11.23-.18.34-.08.22-.17.22a3,3,0,0,0-1.09.43,6.32,6.32,0,0,1-1.6.27c-.49.06-1,.06-1.49.08a5.66,5.66,0,0,0-.61.1c-.61.08-1.22.11-1.82.22a14.68,14.68,0,0,0-1.65.23,3,3,0,0,1-.9,0,1.8,1.8,0,0,0-.9.2c-.29.17-.59.31-.87.48-.08.05-.26.08-.2.19s.13-.09.22-.07h.12a.5.5,0,0,1-.07.09c-.08.06-.21.1-.23.16a.32.32,0,0,1-.44.21c-.24-.11-.25.06-.31.17s-.2.29-.33.26-.22,0-.31.09l-.44.36a1.83,1.83,0,0,1,.81-.82c.17-.1.26-.33.52-.3,0,0,.07-.11,0-.19s-.08-.09-.15-.06l-.48.22a.12.12,0,0,0-.08.11s.12,0,.05.09-.09,0-.12,0-.23-.05-.33,0a2.33,2.33,0,0,1-.28.33c-.38.28-.59.73-1,1a.13.13,0,0,0,0,.06s0,.1.05.06.12,0,.16.06.1-.15.09,0-.1.1-.14.16-.1.15,0,.19.14,0,.16-.11.06-.12.1,0c.12.28.17.07.22,0A3.51,3.51,0,0,1,255,36c.12.21,0,.36-.11.53a.86.86,0,0,0-.21.72c0,.07,0,.15-.1.11-.25-.14-.31,0-.39.21s0,.2-.14.15,0-.14,0-.23.23-.24.29-.41a.4.4,0,0,0,0-.09l-.08,0a6.45,6.45,0,0,0-.86,1,3,3,0,0,0-.36,1c-.1.33,0,.67-.14,1a0,0,0,0,0,0,0c.18.28,0,.58,0,.87a2.73,2.73,0,0,1-.07,1.14,3.55,3.55,0,0,1-.16.66,1.31,1.31,0,0,0-.13.87c0,.07.13.13,0,.23s-.06.21,0,.32a.69.69,0,0,1-.12.65,2,2,0,0,0-.25.86,1.59,1.59,0,0,1,.07.52,2.65,2.65,0,0,1-.09.59,4.43,4.43,0,0,1-.23,1.07,1.55,1.55,0,0,0-.19,1.09.51.51,0,0,1-.19.49.37.37,0,0,0-.12.49.08.08,0,0,1,0,.1,3.2,3.2,0,0,0-.27.33c.11.35-.17.42-.39.54-.05,0-.15,0-.07.15s0,.09-.06.12c-.26.16-.47.39-.71.57s-.25.31-.42.4v1.67a5.8,5.8,0,0,1,.44-.42,5.48,5.48,0,0,0,.63-.51.22.22,0,0,1,.08,0l0,0,0,.06c-.22.31-.42.62-.65.92a6.25,6.25,0,0,0-.49.73v1.71a2,2,0,0,0,.3-1s0-.09.06-.09c.24,0,.26-.24.37-.39s.12-.38.27-.48a3.07,3.07,0,0,0,.35-.3c.2-.19.37-.45.61-.55s.19-.36.36-.5-.09-.07-.11-.13,0,0,.08-.05l.48,0c.12,0,.17-.06.2-.16s0-.15-.09-.17-.06-.11-.05-.13.09,0,.14,0,.58-.19.56-.32.08-.3.21-.41a.12.12,0,0,0,.05-.12.37.37,0,0,1,0-.26.11.11,0,0,0,.1-.07v0h0a.33.33,0,0,0,.15-.18c.1-.36.29-.69.41-1a12.23,12.23,0,0,0,.46-1.78c.2-1.09.29-2.18.39-3.28,0-.08,0-.18-.12-.18s-.07-.08,0-.09c.26-.05.14-.23.16-.38a1.32,1.32,0,0,0,0-.53s-.05-.06,0-.07c.23,0,.18-.2.19-.34a1.21,1.21,0,0,1,.16-.49,7.71,7.71,0,0,0,.52-1h0a.45.45,0,0,0,.26-.23l.1-.3a.51.51,0,0,0,0-.36.49.49,0,0,0-.11-.17,2.1,2.1,0,0,0,.1-.48.74.74,0,0,1,.2-.48,9.68,9.68,0,0,0,1.38-2.2,3.21,3.21,0,0,1,.45-.61.41.41,0,0,0,.34-.07,1.9,1.9,0,0,0,.42-.44A.57.57,0,0,0,259,36l0,0a4.1,4.1,0,0,1,1.6-.74,3.3,3.3,0,0,1,1.76-.15c.15,0,.29.1.44.13a10.69,10.69,0,0,0,2.4,0s.11,0,.11-.06-.07-.05-.11-.06l-.55-.1c.09,0,.15-.11.25-.08a2,2,0,0,0,1-.1c.24-.06.48-.08.72-.12,0,0,.06,0,.07,0s0,0,0,0l-.77.35-.06,0,.08,0a2,2,0,0,0,.93,0,2.37,2.37,0,0,0,1.29-.66,6.7,6.7,0,0,1,.48-.48,16.23,16.23,0,0,0,1.67-1.51,14.42,14.42,0,0,0,.92-1.31,5.24,5.24,0,0,0,.82-1.56,1,1,0,0,1,.36-.61c.32-.2.63-.41.94-.62a.36.36,0,0,1,.31-.07.72.72,0,0,0,.73-.07.07.07,0,0,1,.1,0,.81.81,0,0,0,.51.16,18.86,18.86,0,0,1,1.93.31c.39.09.79.32,1.21.1.14-.07.22,0,.33.07a2.26,2.26,0,0,0,2.36.43l.12,0a6.24,6.24,0,0,0,1.39-.63,4.88,4.88,0,0,1,.89-.44,5.76,5.76,0,0,1,2-.43,1,1,0,0,1,.78.2.29.29,0,0,0,.22.08c.29-.05.55.13.82.11s.37.42.69.22l0,0a1.27,1.27,0,0,0,1.28.21,5.39,5.39,0,0,1,.91-.12,2,2,0,0,0,1-.18.57.57,0,0,1,.34-.08,6.32,6.32,0,0,0,1.37-.14c.77-.16,1.51-.42,2.26-.64.08,0,.15-.09.24-.11s.42-.21.64-.1a.71.71,0,0,0,.57,0c.16,0,.31-.11.46-.17a1.52,1.52,0,0,0,.82-.49,1.86,1.86,0,0,1,.72-.74c.06,0,.14-.13.13-.15s0-.14.09-.15a.34.34,0,0,0,.25-.17c.19-.39.63-.51.92-.78s.59-.49.89-.73a.56.56,0,0,0,.29-.13l.19-.16s0,.08-.06.12-.23.2-.14.26.22-.11.27-.21a3.57,3.57,0,0,1,.65-.82,4.62,4.62,0,0,0,.54-.65l0,0h0c.19-.12.21-.31.35-.44.34-.31.38-.78.62-1.15a3.85,3.85,0,0,1,.39-.53c0,.06,0,.14.08.08a1.56,1.56,0,0,0,.45-.41,4.52,4.52,0,0,0,.58-.7.53.53,0,0,0,.18-.14l.14-.15.11-.09a.62.62,0,0,0,.25-.38.63.63,0,0,0,0-.35,2.29,2.29,0,0,1,.73-.53,7,7,0,0,0,1.53-.81c.05,0,.14-.13.2,0s-.06.13-.13.18l-.06,0-.69.51s0,0,0,.08a.24.24,0,0,0,.09,0,1.91,1.91,0,0,0,1-.68A4.36,4.36,0,0,1,309,16a10.3,10.3,0,0,0,1.11-.85c.3-.3.59-.62.91-.89a11.55,11.55,0,0,1,2.12-1.27,13.27,13.27,0,0,1,1.34-.58,4.58,4.58,0,0,1,1.61-.39l3.06-.07a1.72,1.72,0,0,0,.66-.11c.06,0,.16-.06.14-.14S319.89,11.59,319.83,11.59Zm-65.7,27c.07,0,.09-.13.09-.21a.41.41,0,0,1,.11-.28s.08-.12.13-.08,0,.08,0,.12-.11.23-.09.31c.08.24-.11.4-.15.6s-.15.1-.24.12,0-.08-.07-.11S253.88,38.65,254.13,38.57Zm.24,5.76c0,.32,0,.65,0,1a1.56,1.56,0,0,1-.09.8c-.06.11,0,.25,0,.37a8.26,8.26,0,0,1-.2,1.35,11.28,11.28,0,0,1-.67,2.32,7.21,7.21,0,0,1-.72,1.39,8.8,8.8,0,0,1-.79.77l0,0,0,0,.06-.1c.21-.29.48-.53.71-.81a2.84,2.84,0,0,0,.43-1.3c0-.25,0-.51.24-.71a.49.49,0,0,0,.11-.43,1.46,1.46,0,0,1,.25-1.07,2.74,2.74,0,0,0,.26-1.25,8.36,8.36,0,0,1,.37-1.58,2.39,2.39,0,0,0,.07-.71.28.28,0,0,1,.1-.23C254.37,44.19,254.37,44.26,254.37,44.33Zm-.51.63,0,0c-.05.27-.1.53-.16.79s0,.81-.12,1.21c0,0,0,0,0,0a.53.53,0,0,1-.13.3c0-.09,0-.18,0-.27a13,13,0,0,0,.1-1.55c0-.21.13-.35.21-.53C253.81,45,253.84,45,253.86,45Zm0-.86a3.62,3.62,0,0,1,.23-1c0-.17.1-.33.16-.5a.29.29,0,0,1,.05-.07.3.3,0,0,1,0,.09q-.15.74-.3,1.48c0,.05,0,.12-.1.11S253.85,44.13,253.84,44.1Zm1.1-2.59a5,5,0,0,0-.21.86,3.93,3.93,0,0,1-.23.83.43.43,0,0,1,0,.08c-.06,0,0,0,0-.08a7.79,7.79,0,0,1,.4-1.74c0-.06.06-.18.12-.16S255,41.44,254.95,41.5Zm.77-2.84a12.11,12.11,0,0,1-.7,1.47c-.22.44-.49.87-.69,1.32a7.5,7.5,0,0,0-.67,2c-.07.43-.19.86-.26,1.29a7.28,7.28,0,0,1-.16.91c0,.11-.18.31.08.39a.73.73,0,0,1,0,.14,11.12,11.12,0,0,1-.38,2.14,5.14,5.14,0,0,0-.14,1,3.51,3.51,0,0,1-.52,1.45,9.16,9.16,0,0,1-.9,1.15s-.09.11-.12.1,0-.11,0-.16a2.43,2.43,0,0,1,.45-.84.18.18,0,0,0,.06-.19c-.09-.2,0-.34.13-.48a.84.84,0,0,0,.18-.36s0-.47.26-.15c.08.08.16,0,.19-.12a.8.8,0,0,0,0-.23,9.63,9.63,0,0,1,.14-1.45,5.2,5.2,0,0,0,.19-1.77.43.43,0,0,1,.08-.28c.12-.21,0-.44.1-.66s.21-.44,0-.65a5.5,5.5,0,0,1,.51-2.05,2.22,2.22,0,0,0,.11-.49l0-.17a.51.51,0,0,0,.15-.25l0-.11.07-.08a3,3,0,0,0,.67-1.22c.11-.32.21-.65.3-1a.47.47,0,0,1,.36-.38c.15,0,.19-.23.35-.28s.06-.09.12,0S255.73,38.62,255.72,38.66Zm.57-1.45c0,.08-.08.22-.23.18H256c-.08,0-.17.15-.22.05s.1-.19.16-.3.07-.06.09,0,0,.15.1.12,0-.12,0-.17c.13-.26.16-.59.42-.78a.49.49,0,0,0,.12-.17.64.64,0,0,1,.37-.37c.09,0,.14-.19.24-.1s-.1.16-.17.23A5.1,5.1,0,0,0,256.29,37.21Zm1.41-1a12.57,12.57,0,0,0-1.18,1.68.51.51,0,0,1-.07.1s-.06,0-.08,0,0-.05,0-.08a7.63,7.63,0,0,1,1.23-1.78s.08-.11.15-.11,0,0,0,0Zm.78-1.32c-.13.3-.49.25-.7.45,0,0-.06,0-.07,0a.09.09,0,0,1,0-.08,4.77,4.77,0,0,1,.72-.4s0,0,.06,0Zm1,.5c-.06,0-.14,0-.17,0s.06-.08.11-.1a.79.79,0,0,1,.38-.14A1.36,1.36,0,0,1,259.53,35.36Zm4.38-.36c-.69,0-1.36-.2-2-.24a2.75,2.75,0,0,0-1.44.2.82.82,0,0,1-.56.14A.14.14,0,0,1,260,35a6.88,6.88,0,0,1,1.53-.34,8.25,8.25,0,0,1,1.45.16c.35.07.71.07,1.06.11a1.2,1.2,0,0,1,.63.12A3.41,3.41,0,0,0,263.91,35Zm2.6-.84a6.65,6.65,0,0,1-1,.28s-.1,0-.11,0,0-.08.08-.1a1.16,1.16,0,0,1,.55-.14,1.42,1.42,0,0,0,.41-.1s.1,0,.11,0S266.54,34.16,266.51,34.17Zm1.6-.36a1.65,1.65,0,0,1-.94.62h-.07s0,0,0,0a5.49,5.49,0,0,0,.93-.62l.08,0A.47.47,0,0,1,268.11,33.81Zm.82-1.38a.12.12,0,0,1-.08-.18,5.63,5.63,0,0,1,.33-.58c.07-.1.14-.05.17,0A1.3,1.3,0,0,1,268.93,32.42Zm.52-2.64s0,0,0-.06a4.9,4.9,0,0,1,.37-.85s0,0,.06,0a2.17,2.17,0,0,1-.38.86Zm.74,1.58c-.13.14,0,.37-.15.5,0,0,0,0,0,.06s-.21.25-.26.2.05-.19.08-.29a10.73,10.73,0,0,1,.46-1.06s0-.09.07-.08,0,0,0,.06C270.28,31,270.35,31.2,270.19,31.37Zm.25-2.49a13.21,13.21,0,0,1-.61,2.11c-.09.17-.16.35-.24.52s0,.09-.07.07,0-.06,0-.09a2.08,2.08,0,0,1,.21-.8,7.77,7.77,0,0,0,.46-1.53,1.27,1.27,0,0,1,.17-.39s0-.09.08-.07,0,.07,0,.09A.44.44,0,0,1,270.43,28.87Zm5-1.39c-.05.12-.17,0-.26,0a3.71,3.71,0,0,0-1.62,0c-.82.09-1.18.73-1.6,1.29-.1.13-.2.25-.29.38s-.07.18.08.16.14,0,.08.13l-.07.13c0,.06-.06.21-.14.13s-.32,0-.25-.28a1,1,0,0,1,.18-.36c.4-.49.82-1,1.22-1.46a1,1,0,0,1,.61-.31c.34-.07.68-.1,1-.15a1.45,1.45,0,0,1,.89.13C275.36,27.3,275.48,27.37,275.43,27.49Zm1.64.61v0H277l-1.13-.18c-.1,0-.11-.11-.1-.19s.17-.11.27-.13a.62.62,0,0,1,.4.12L277,28s.09,0,.09.09Zm1.52-1.52.81,0a1.23,1.23,0,0,1,.58.13.87.87,0,0,0,.44.07s.13,0,.15,0l0,0v0s-.08,0-.11,0a.23.23,0,0,0-.24,0,.2.2,0,0,1-.18,0,10.42,10.42,0,0,1-1.45-.32s-.1,0-.09,0S278.55,26.58,278.59,26.58Zm2.45,2c-.27.24-.33.26-.82.31-.23.08-.48-.06-.73,0,0,0-.11,0-.08-.08s0-.13.1-.13.3,0,.45,0a3.34,3.34,0,0,0,1-.17c.07,0,.17-.07.2,0S281.08,28.5,281,28.54Zm.6-.79a5.73,5.73,0,0,1-2.2.48.75.75,0,0,1-.65-.21s-.05,0-.06,0c-.29.24-.53-.15-.8-.07,0,0-.09-.06-.07-.08a.5.5,0,0,1,.17-.06c0-.16-.12-.22-.27-.12s-.11.07-.12,0-.11-.12-.11-.18.11-.06.17-.05l1,.12a14.32,14.32,0,0,0,2.81.09h.17s.09,0,.09,0S281.66,27.73,281.64,27.74Zm2.48-.23c-.22,0-.4.2-.64.14,0,0-.08,0-.08,0s0-.07.07-.07a2.83,2.83,0,0,1,.63-.13h.33A.51.51,0,0,1,284.11,27.51Zm1.17-.92c-.11-.07-.11.24-.28.06a1.17,1.17,0,0,0-.69-.25s-.12,0-.12,0,.07,0,.1,0a2.7,2.7,0,0,1,.74.17l.11,0c.06,0,.15,0,.2,0S285.3,26.59,285.29,26.59Zm2.29,1.4a5.37,5.37,0,0,1-1.21-.27.48.48,0,0,0-.45,0,.27.27,0,0,1-.31-.06c0-.05,0-.12,0-.15s.09.14.18.15h0c0-.08-.11-.07-.16-.12h0a9.15,9.15,0,0,1,1.52.37c.12,0,.25,0,.37.06s.1,0,.12.06A.47.47,0,0,1,287.58,28Zm2.52-.25H290a1.81,1.81,0,0,0-.46.08c-.06,0-.13,0-.14-.05s.07,0,.11-.06a10.26,10.26,0,0,0,1.58-.63,9.55,9.55,0,0,1,1.05-.3,2,2,0,0,1,.65-.05s.07,0,.08,0,0,.05-.05.06A16.88,16.88,0,0,1,290.1,27.74Zm7.74-2c-.14.13-.27.27-.43.38s-.26.3-.57.23a1.46,1.46,0,0,0-.84.18,7.94,7.94,0,0,1-1.22.48c-.59.17-1.19.33-1.78.52a5.55,5.55,0,0,1-1.35.28,1.25,1.25,0,0,1-.21,0c0-.11.12,0,.18-.06.3-.12.62-.22.91-.35a9.84,9.84,0,0,1,1.56-.48c.58-.16,1.17-.23,1.73-.44a17.87,17.87,0,0,0,2-.85s.09-.08.15,0Zm6.49-6.17a2,2,0,0,1-.55.67c.07-.31.34-.48.51-.72l.06,0A.48.48,0,0,1,304.32,19.55Zm1.34-2.39a6,6,0,0,0-.69.59.55.55,0,0,0-.22,0h0a1.75,1.75,0,0,1,.89-.68h.06A.28.28,0,0,1,305.66,17.16Zm5.57-3.45c-.31.23-.61.48-.91.72s-.52.49-.82.69c0,0,0,.1-.06,0s-.06-.11-.16,0a15.24,15.24,0,0,1-1.61,1.27,2.17,2.17,0,0,1-.48.2s-.08,0-.1,0,0-.07,0-.08a6.06,6.06,0,0,0,1.73-1.28c.55-.44,1.15-.8,1.73-1.19.24-.16.46-.34.69-.51l.08,0,0,0A1.48,1.48,0,0,1,311.23,13.7Zm1.24-1a16.8,16.8,0,0,0-2.25,1.41c-.48.32-.93.67-1.4,1l-1.13.8c-.05,0-.15.11-.19.06s.07-.09.11-.14c.5-.53,1.12-.92,1.62-1.45a.43.43,0,0,1,.09-.08,24,24,0,0,1,2.58-1.54,2,2,0,0,1,.54-.19h.11C312.57,12.64,312.51,12.65,312.47,12.67Z"/><path class="cls-1" d="M294.89,23.11a2.1,2.1,0,0,0,.63-1c0-.08,0-.16,0-.23a2.11,2.11,0,0,0,.14-.6c0-.21,0-.42,0-.64l.06-1.36c0-.11,0-.29-.1-.29s-.08.17-.08.27c0,.7-.22,1.38-.18,2.09,0,.12,0,.35,0,.38a.34.34,0,0,0-.1.42s0,.08,0,.09c-.19.09-.1.36-.3.44a.07.07,0,0,0,0,.06c.11.13,0,.09-.06.1s0,.19-.11.25,0,.06,0,.06S294.87,23.13,294.89,23.11Z"/><path class="cls-1" d="M294.09,23.83c0-.17.09-.34.12-.51s.13-.28.06-.44l0-.1,0,.08a2.24,2.24,0,0,0-.25.91c0,.09,0,.18.06.2S294.08,23.89,294.09,23.83Z"/><path class="cls-1" d="M294.4,24.14h0a.85.85,0,0,0-.18.14c-.08.11-.19.25-.11.36s.12-.1.2-.14a.25.25,0,0,0,.09-.37h0Z"/><path class="cls-1" d="M294.4,24.14c.1-.25.08-.55.29-.77,0,0,.12-.1,0-.15a.16.16,0,0,0-.2,0,2.88,2.88,0,0,0-.26.58C294.24,23.94,294.22,24.11,294.4,24.14Z"/><path class="cls-1" d="M317.91,10.66s.15,0,.15,0-.11,0-.16,0l-.23,0C317.74,10.7,317.83,10.62,317.91,10.66Z"/><path class="cls-1" d="M315.89,10.76s.13,0,.13-.08-.07,0-.1,0-.14,0-.15.08S315.83,10.77,315.89,10.76Z"/><path class="cls-1" d="M316.6,10.65s.13,0,.12,0-.11,0-.17,0l-.13,0C316.47,10.7,316.55,10.62,316.6,10.65Z"/><path class="cls-1" d="M303.43,18.72s0-.06,0,0a1,1,0,0,0-.14.16s0,0,0,.06S303.38,18.78,303.43,18.72Z"/><path class="cls-1" d="M293.63,25s0-.05,0,0a.32.32,0,0,0-.09.07s0,0,0,0A.11.11,0,0,0,293.63,25Z"/><path class="cls-1" d="M294.42,22.52s0-.06,0,0a.2.2,0,0,0-.06.09s0,0,0,.06A.94.94,0,0,0,294.42,22.52Z"/><path class="cls-1" d="M280.69,27.87l-.81,0v0l-.26,0a.08.08,0,0,0-.07.11c0,.05.07,0,.1,0s.21,0,.32,0a1.53,1.53,0,0,0,.73,0l.12-.07C280.78,27.85,280.73,27.87,280.69,27.87Z"/><path class="cls-1" d="M278,27.8a.6.6,0,0,0,.31.09s0,0,0,0S278.13,27.72,278,27.8Z"/><path class="cls-1" d="M315.83,5.31h0A10.4,10.4,0,0,0,316.23,3h0a10.45,10.45,0,0,1-.41,2.35M319.49,0A.35.35,0,0,0,319,.2c0,.06,0,.1-.11.09-.23,0-.3.15-.39.32s-.07.26-.24.29a.64.64,0,0,0-.49.57c0,.08,0,.24-.07.23s-.05-.14-.06-.22a1.63,1.63,0,0,0-.54-1,.29.29,0,0,0-.39,0c-.1.11.09.15.14.22a1.22,1.22,0,0,1,.26.53c.08.32-.2.31-.35.41s-.25.23-.37.24-.16-.23-.27-.33,0-.07-.09-.06a.09.09,0,0,0-.07.11c0,.14,0,.27.05.4s0,.2-.1.25-.15,0-.2-.12-.1-.14-.11,0-.11.2-.22.28-.18.24-.29.34,0,.08,0,.09c.22,0,0,.1,0,.14s-.28.1-.31.27c-.06.37-.35.46-.65.49a4.18,4.18,0,0,0-1,.29c-.12,0-.18.09-.16.26.05.45-.06.55-.47.47s-.27,0-.18.22c0,.06,0,.12,0,.17a.15.15,0,0,1-.2,0,1.11,1.11,0,0,0-.25-.15.28.28,0,0,0-.31,0c-.07.08,0,.15.08.23a.8.8,0,0,0,.21.29,2.1,2.1,0,0,1,.66,1.11.2.2,0,0,1-.1.25c-.34,0-.16.19-.15.33a.3.3,0,0,0,.14.26.26.26,0,0,1,.11.33.27.27,0,0,0,.08.32.4.4,0,0,1,.11.49.24.24,0,0,0,0,.28,8.4,8.4,0,0,0,.66.72l.14.14a17.2,17.2,0,0,1,2.06-3.68l.5-.77c.43-.75.87-1.49,1.27-2.25q.26-.52.49-1h0c-.16.35-.33.7-.51,1-.39.77-.81,1.52-1.27,2.25l-.34.61c-.32.58-.62,1.17-.91,1.76a9.71,9.71,0,0,1,2.47-2.1s0,0,0,0A8.87,8.87,0,0,0,314.68,8l-.9,1.84a.11.11,0,0,1-.15.06.61.61,0,0,1-.15.27c-.28.33-.41.76-.79,1,0,0,0,0,0,.08s0,0,.06,0c.46-.23,1-.4,1.18-.94a.17.17,0,0,1,.13-.13,3,3,0,0,0,.86-.34,1.17,1.17,0,0,0,1-.65.51.51,0,0,0,.5-.5c.17-.18.37-.33.55-.51a11.29,11.29,0,0,0,1.41-1.67c.19-.29.4-.63.12-1a.21.21,0,0,1,.13-.36,5.14,5.14,0,0,0,.7-.24.44.44,0,0,0,.27-.23.54.54,0,0,0,0-.48c-.08-.18-.22-.06-.33-.08a.56.56,0,0,0-.21,0c-.1,0-.15,0-.15-.12,0-.3,0-.6.07-.9s0-.31-.13-.4a.12.12,0,0,1,0-.18c.12-.16.13-.38.27-.53a.41.41,0,0,0,.08-.45.29.29,0,0,1,.07-.34s.12-.08.08-.13-.09,0-.13,0-.15,0-.21-.07-.06-.1,0-.12c.28-.13.27-.47.49-.65s.19-.27,0-.33"/><path class="cls-1" d="M314.63,35a14.57,14.57,0,0,0-1.44-1l-.38-.21.12.14c.36.43.7.91,1,1.37,0,.06,0,.16-.1.12a4,4,0,0,1-1-1.29c-.14-.2-.28-.38-.42-.57l-.36-.23c-.31-.21-.62-.42-.92-.66a.25.25,0,0,1-.23.18.28.28,0,0,1-.17-.52,6.93,6.93,0,0,1-.55-.54c-.39-.43-.79-.87-1.21-1.27a13.16,13.16,0,0,0,.91,2.28,17.22,17.22,0,0,1,1.29,2.42,0,0,0,0,1-.05,0c-.4-.91-1-1.72-1.39-2.61a17.26,17.26,0,0,1-.79-2.13A4.72,4.72,0,0,0,305.46,29a0,0,0,0,1,0-.09,4.59,4.59,0,0,1,3.25,1l-.08-.2h0l.09.22c.17.13.33.27.49.41a.36.36,0,0,1,0-.11h0a.41.41,0,0,0,0,.12l.29.27a3.4,3.4,0,0,0,.46.16l.32.08c.48.08,1,.1,1.22.13a0,0,0,0,1,0,.08c-.4-.08-.81-.12-1.21-.21a2.67,2.67,0,0,1-.74-.21l.34.35a13.29,13.29,0,0,0,1.63,1.54c.26,0,.52.09.78.14a8.13,8.13,0,0,0,1.57.19c.1,0,.16.16,0,.19-.86.21-1.57-.35-2.36-.49l.33.25-.06-.12h0l.13.19.37.25c.4.25.81.47,1.19.74a14,14,0,0,1,1.16,1.06c.06.06,0,.14-.08.1m3.07,1.78c0-.11-.16-.2-.09-.33s-.22-.34-.19-.56c-.5-.11-.84-.55-1.34-.67-.15,0-.23-.23-.43-.15,0,0-.05,0,0-.09s0-.11,0-.13a.09.09,0,0,1,.12,0c.06.14.1.08.18,0a.24.24,0,0,0,0-.41.36.36,0,0,1-.18-.37.51.51,0,0,0-.08-.25c-.1-.17-.16-.36-.25-.53a1.47,1.47,0,0,0-.46-.62,2.63,2.63,0,0,1-.69-.64.66.66,0,0,0-.8-.3l0,0-.06-.06a.06.06,0,0,0,0-.05.09.09,0,0,0,0-.06s-.07,0-.11,0l0-.05a.19.19,0,0,0,0-.1c0-.09,0-.12.1-.13s.24-.14.17-.29c-.14-.32-.13-.71-.42-1a.18.18,0,0,1,0-.11,4.15,4.15,0,0,0-.48-1.2.76.76,0,0,0-.42-.42c-.25-.06-.29-.21-.33-.4s0-.14-.09-.18a4.27,4.27,0,0,0-1.39-.33,10,10,0,0,0-1.23-.08c-.49,0-1-.11-1.47-.07a7.66,7.66,0,0,0-2.39.65c-.18.08-.29.25-.43.38s.08.16.05.26,0,.07,0,.11l-.1-.06a7.43,7.43,0,0,1-.85-.94.39.39,0,0,1-.06-.15.92.92,0,0,0-.54-.66,6.16,6.16,0,0,0-.84-.32,2.26,2.26,0,0,0-1.25,0c-1,.3-2,.58-3,.79a.86.86,0,0,0-.33.14l-.08.08s.07,0,.11,0a5.67,5.67,0,0,0,.67-.05,9.55,9.55,0,0,0,1.3-.19,7.92,7.92,0,0,1,2-.42,7.52,7.52,0,0,1,.95,0,.76.76,0,0,1,.69.41,3.73,3.73,0,0,0,1.32,1.72c.11.09.35.12.15.39a1,1,0,0,0-.06.72c0,.25,0,.54.28.67,0,0,0,0,0,.07a.17.17,0,0,0,.05.21c.2.19.35.45.65.51a.23.23,0,0,1,.13.06c.06.08.28.09.2.22s-.17-.06-.25-.09-.16-.07-.22-.05.13.12,0,.19a2.32,2.32,0,0,1,.36.62.52.52,0,0,0,.33.38,2.75,2.75,0,0,1,.6.36c.19.16.46.19.65.36s.18.12.22.2.14.35.37.36.14.07.19.13a1.51,1.51,0,0,0,.32.29,2.24,2.24,0,0,1,1,.85,1.85,1.85,0,0,0,.31.29.17.17,0,0,0,.28,0c.07-.09.1-.06.19,0s.35.29.43-.07c0,0,0,0,.06,0a1.37,1.37,0,0,1,.87.45c.17.34.64.69.91.55a1.62,1.62,0,0,1,.92-.06h.07a7.59,7.59,0,0,1,.91-.08.53.53,0,0,0,.37-.24c.13-.15.51-.28.67-.16s.69.29.95.57c0,0,.1.09.1,0s.1-.09.14,0a.33.33,0,0,0,.25.1.37.37,0,0,1,.29.19.66.66,0,0,0,.33.29c0-.17-.06-.3-.12-.43"/><path class="cls-1" d="M301,35.91a9.16,9.16,0,0,1-1.47,2.91h0c.51-1.09,1.11-2.09,1.52-3.22a40.34,40.34,0,0,1,1.41-3.8h0A34.16,34.16,0,0,0,301,35.91m-1.9.24a27.84,27.84,0,0,1-2.9,3.1s0,0,0,0A38.14,38.14,0,0,0,299,36a16,16,0,0,1,1.27-1.69l.16-.16c-.53.33-1,.7-1.6,1-.72.37-1.47.66-2.2,1,0,0,0,0,0,0a28.41,28.41,0,0,0,2.62-1.2c.42-.25.81-.52,1.22-.78.43-.45.9-.87,1.34-1.31.09-.09.23,0,.15.13-.49.58-1,1.09-1.56,1.64a16.24,16.24,0,0,0-1.23,1.56m5.31-5.3c-.09-.25-.33-.46-.21-.79a.44.44,0,0,0,0-.32c0-.06,0-.13-.1-.15s-.13,0-.17.1a.35.35,0,0,0-.06.27.39.39,0,0,1-.06.25,1.06,1.06,0,0,1-1,.56c-.57,0-1.13,0-1.7.08a7.6,7.6,0,0,0-2.39.63c-.13.05-.32.13-.31.32s-.05.2-.16.22-.29.14-.48.14-.25.21-.41.3-.26.29-.41.39-.38.27-.18.53,0,.43.23.44.11.13.07.2a8.65,8.65,0,0,0-.52.94s-.15.18,0,.19.07.09,0,.14-.09.1-.11.15a3.72,3.72,0,0,1-.63,1.18c-.12.18-.16.33,0,.47s.05.07,0,.08-.17.2-.13.32a1,1,0,0,1-.27,1.11.3.3,0,0,0-.06.33.24.24,0,0,1,0,.21.86.86,0,0,0,.06.78c.09.2.17.2.32.07s.14-.18.26-.12a.55.55,0,0,0,.66-.14.5.5,0,0,1,.22-.14c.37-.09.75-.17,1.13-.23a3.24,3.24,0,0,0,1.11-.36l.25-.14a1.33,1.33,0,0,1,.89-.25l.16,0a.63.63,0,0,0,.66,0l.12-.06.24-.05c.32-.09.51,0,.63-.29l.31-.08a.54.54,0,0,0,.38-.59,2.56,2.56,0,0,0,.14-.46,1,1,0,0,0,0-.71c0-.06,0-.22-.08-.23s-.05.12-.08.19,0,.11-.07.1a.08.08,0,0,1-.05-.1c0-.17-.09-.47.28-.44,0,0,0,0,0,0a2.88,2.88,0,0,1,.41-1,1.37,1.37,0,0,0,.14-.83,9.43,9.43,0,0,1,.62-2.61.27.27,0,0,1,.09-.11.37.37,0,0,0,.12-.47"/><path class="cls-1" d="M302.55,31.7a0,0,0,1,1,0,0,0,0,0,1,1,0,0"/><path class="cls-1" d="M307.3,33.63s0,0,0,0,0,.07.07.07,0,0,0,0,0-.07-.06-.07"/><path class="cls-1" d="M278.55,10.18A8.57,8.57,0,0,0,277,13.46a22.05,22.05,0,0,1,.14,3.26.06.06,0,0,1-.11,0c-.11-1.08-.12-2.17-.25-3.25,0-.26-.08-.52-.13-.78-.87-.93-1.9-1.65-2.81-2.55-.07-.07,0-.18.1-.11.88.89,1.86,1.7,2.7,2.63-.14-.69-.34-1.36-.48-2.06-.38-1.84-.54-3.81-1.66-5.39,0,0,0-.1.07,0a11.74,11.74,0,0,1,1.73,5c.2,1,.53,2,.68,3,0,.07,0,.13,0,.2a9.24,9.24,0,0,1,1.52-3.27s0,0,0,0M276.84,8h0a8.05,8.05,0,0,0,0,2.55h0a8.1,8.1,0,0,1,0-2.55m3.47,1.4c-.16.05-.06-.18-.19-.17a1.75,1.75,0,0,0-.72.22c-.08.05-.14.1-.22,0S279,9.4,279,9.31s.14-.06.2-.12.1,0,.12,0,.35-.09.32-.33a.18.18,0,0,1,0-.07c.06-.24,0-.33-.23-.32a.8.8,0,0,0-.67.3c-.07.1-.07.06-.12,0a1.2,1.2,0,0,1,.12-1h0c.16,0,.17-.15.17-.27s0-.17.1-.19.06-.11.06-.17S279,7,278.94,7a.86.86,0,0,0-.53.18c-.12.11-.2.2-.26,0C278.14,7,278,7,278,7s0,.12.07.16,0,.26,0,.38,0,0-.07,0l-.11,0a.39.39,0,0,1-.12-.23,2.47,2.47,0,0,0-.26-.61.73.73,0,0,1-.16-.6.38.38,0,0,0-.07-.31c0-.09-.16,0-.23,0s-.22,0-.33.11-.22-.07-.31-.13,0-.12,0-.18c.18-.32,0-.6-.11-.88a.19.19,0,0,0-.27-.08c-.14.09-.34,0-.45.18,0,0-.23.16-.31,0a2.42,2.42,0,0,0-.36-.43,2.44,2.44,0,0,1-.37-.76c-.11-.22-.38-.33-.37-.63,0-.11-.09-.06-.16,0s-.27.32-.52.31c0,0-.13,0-.11.11s-.11.29-.18.43-.14.29,0,.42c.27.32.67.54.66,1v0a4.78,4.78,0,0,1,.38.88s.05.07,0,.1-.05,0-.07-.06a1.83,1.83,0,0,0-.42-.43c-.07-.06-.17-.15-.25-.1s-.09.19-.06.31a2.52,2.52,0,0,0,.33.63c.05.1.17.21.11.3-.18.28,0,.5.08.73s0,.22-.08.3-.14,0-.21,0-.15-.05-.14,0,0,.33,0,.48a1.33,1.33,0,0,0,.36.74c.07.08.19.13.17.27l-.22-.2c-.09-.08-.16-.21-.3-.13a.33.33,0,0,0-.17.39c0,.16.09.32.14.48a1.32,1.32,0,0,1,.08.92,2.76,2.76,0,0,0-.07,1.42c.05.27.17.52.22.79a6.09,6.09,0,0,0,.63,1.63c.11.23.3.44.12.73a.24.24,0,0,0,0,.27c.38.32.62.8,1.07,1.06l1.16.67c.09.05.21.09.16.23a6,6,0,0,0-.19,2.21,1,1,0,0,1-.33.69c-.13.13-.34.1-.4.24a6.82,6.82,0,0,0-.81,1.71s0,.08-.07.09,0,0-.06-.06,0-.12-.11-.09a.1.1,0,0,0-.06.14c.08.19,0,.31-.14.45s-.23.11-.1.26,0,.07-.05.06c-.18,0-.21.13-.3.22s-.29.43-.48.47c-.35.09-.47.38-.67.59a.85.85,0,0,1-.16.14c-.35.21-.61.53-.94.77a.17.17,0,0,0-.07.21c0,.13.12,0,.18,0s.18,0,.26-.07.34-.3.53-.4a6.37,6.37,0,0,0,1.23-.94,6,6,0,0,0,.66-.58c.19-.23.19-.23.32,0,0,0,0,.11.11.11s.07,0,.07,0c0-.19.15-.34.18-.53a4.7,4.7,0,0,1,.69-1.6,2.83,2.83,0,0,1,.2-.28c.05.1,0,.21,0,.32s0,.15.09.18.13,0,.17-.11.19-.33.29-.49c.27-.41.25-1,.66-1.3.15-.13.21-.34.37-.47s.13-.21,0-.21-.18.14-.32.07c0,.12-.1.14-.19.12s-.08-.16-.09-.25a6.28,6.28,0,0,1,.23-1.8c0-.08.06-.16.15-.16.32,0,.47-.23.63-.46a14.46,14.46,0,0,0,.84-1.84c.13-.26.15-.61.51-.73.07,0,.07-.11,0-.2s0-.42.13-.43.13-.18.12-.27a.9.9,0,0,1,0-.28c0-.08.1-.17,0-.22s-.13.06-.19.1l-.08,0s0-.05,0-.06.09-.24.19-.32c-.12-.2.33-.26.12-.48l.08-.05c.18-.12.16-.3,0-.39s-.12,0-.12-.12a1.42,1.42,0,0,0-.26-1,.45.45,0,0,1-.05-.2c0-.15,0-.23.16-.32s.1-.36.37-.35c0,0,.1-.17-.05-.22s-.08,0-.07-.08h.08c.06,0,.12,0,.13-.12"/><path class="cls-1" d="M272.69,17.89a1.39,1.39,0,0,0,.6.24A2.72,2.72,0,0,1,275,19.3a3.83,3.83,0,0,1,.27.48.4.4,0,0,0,.47.19c.14,0,.08-.17.09-.22a.49.49,0,0,0-.08-.28,3.19,3.19,0,0,0-1.35-1.21c-.53-.25-1.12-.31-1.66-.54-.06,0-.13-.09-.17,0s0,.15.09.2"/><path class="cls-1" d="M280.06,12.91a.05.05,0,0,0,0-.07c0-.08-.08,0-.13,0s0,.11.08.1"/><polyline class="cls-1" points="279.97 12.81 279.97 12.8 279.97 12.81 279.97 12.81 279.97 12.81"/><path class="cls-1" d="M271.55,16.11c-1.22-1.11-1.93-2.66-3.23-3.71A10.49,10.49,0,0,0,266.09,11a5.8,5.8,0,0,1-1.85-1.14s0,0,0,0a8.43,8.43,0,0,0,2.28,1.22,9.06,9.06,0,0,1,1.91,1.17c1.28,1,2.16,2.44,3.35,3.57.18.17-.07.46-.25.29m1.46-1.3s.2-.26-.06-.35c0,0,0,0,0-.06s.08-.33,0-.49-.13-.46-.18-.69a.91.91,0,0,0-1.1-.79c-.11,0-.15,0-.14-.12a1,1,0,0,0-.4-.83.19.19,0,0,0-.31.05c0,.06,0,.17-.11.2s0,.27-.12.23-.14-.2-.18-.32,0-.08,0-.12c-.06-.27-.11-.55-.17-.82,0-.08,0-.2-.15-.17a.2.2,0,0,0-.12.21c0,.06,0,.13,0,.19,0,.32.08.65.12,1,0,0,0,.08,0,.09s0,0,0-.08c0-.25-.11-.51-.14-.76,0-.08,0-.12-.09-.13s-.21-.15-.27-.27a5.74,5.74,0,0,0-.46-.8s-.07-.12-.15-.09a.18.18,0,0,0-.11.17.36.36,0,0,0,0,.12.18.18,0,0,1-.11.25c-.12.05-.18,0-.23-.09-.18-.33-.58-.44-.77-.76,0,0-.08-.09-.1,0s-.16.18-.14.31,0,.22-.17.23-.12.06-.13.14-.05.09-.08.07-.37-.12-.44-.31-.2-.2-.26-.34-.1-.07-.17,0a1.34,1.34,0,0,1-.61.2c-.05,0-.12,0-.15,0s0,.1.07.14.13.06,0,.14a.12.12,0,0,1-.17,0c-.12-.08-.22-.26-.18-.33.13-.26-.06-.28-.2-.32a.38.38,0,0,1-.29-.25c0-.11-.17-.23-.28-.1a1.8,1.8,0,0,1-.52.31.54.54,0,0,0-.19,0c.1,0-.05-.06-.1-.08l-.28-.11-.19,0h0a1.69,1.69,0,0,0-.37,0,.46.46,0,0,0,.07.92.89.89,0,0,1,.5.12,1.14,1.14,0,0,0,.39.11,2.51,2.51,0,0,0,.54.35c.14.06.3,0,.4.13a6.26,6.26,0,0,0,.87.63c.07,0,.08.11,0,.18a.55.55,0,0,0,0,.7c.22.41.68.61.85,1.08a2.36,2.36,0,0,0,.52.63c.17.18.16.33,0,.46,0,0-.07.06,0,.06s.17.24.32.27a1.93,1.93,0,0,1,.72.44.39.39,0,0,1,.16.28,1,1,0,0,0,.74.71,2.16,2.16,0,0,1,1.22.5,5.32,5.32,0,0,0,1.71.79,1.68,1.68,0,0,0,.65.08,1.38,1.38,0,0,1,.66,0c.06,0,.09,0,.1-.08a2.15,2.15,0,0,0-.13-1.35.49.49,0,0,1,0-.61.39.39,0,0,0,0-.39c-.07-.14.16-.27,0-.42"/><path class="cls-1" d="M283.76,50.35a19.48,19.48,0,0,0-1.46-1.85l-.41-.41.1.22c.29.69.55,1.43.79,2.15,0,.09-.1.19-.17.11a5.32,5.32,0,0,1-.84-2.05c-.1-.3-.21-.6-.32-.9l-.38-.43c-.32-.39-.63-.78-.92-1.2a.34.34,0,0,1-.37.14.38.38,0,0,1,0-.73,9.59,9.59,0,0,1-.49-.9c-.33-.71-.67-1.42-1.06-2.09a17.6,17.6,0,0,0,.29,3.28,23.07,23.07,0,0,1,.72,3.59,0,0,0,0,1-.08,0c-.16-1.32-.56-2.58-.77-3.88a23.11,23.11,0,0,1-.19-3,6.32,6.32,0,0,0-3.85-3.26.06.06,0,0,1,0-.12,6.14,6.14,0,0,1,3.78,2.52c0-.1,0-.19,0-.29s0,0,0,0,0,.21,0,.32c.17.23.33.47.48.71a.51.51,0,0,1,0-.15,0,0,0,0,1,0,0,.55.55,0,0,0,0,.17l.27.46a4.48,4.48,0,0,0,.53.39l.37.23c.59.28,1.23.5,1.52.64.06,0,0,.13-.05.1-.49-.25-1-.47-1.47-.74a3.6,3.6,0,0,1-.87-.56c.1.19.2.38.3.58a17.8,17.8,0,0,0,1.5,2.6c.32.13.63.31.95.48a10.89,10.89,0,0,0,1.94.85c.13,0,.14.27,0,.26-1.19-.06-1.88-1.06-2.83-1.53l.33.44c0-.06,0-.12,0-.18h0c0,.1.06.2.1.29l.38.46c.41.47.85.91,1.25,1.4a18.72,18.72,0,0,1,1.08,1.81c.06.1-.08.18-.14.09M287,53.83c0-.15-.13-.31,0-.45s-.15-.52,0-.79c-.6-.34-.87-1-1.45-1.38-.17-.1-.21-.38-.49-.36,0,0,0-.08,0-.14s0-.13.09-.15a.11.11,0,0,1,.14.09c0,.2.1.14.23.07a.32.32,0,0,0,.13-.53.48.48,0,0,1-.09-.54.68.68,0,0,0,0-.35c-.05-.26-.07-.53-.12-.78a2,2,0,0,0-.34-1,3.49,3.49,0,0,1-.64-1.09.88.88,0,0,0-.91-.69h-.06l0-.1a.08.08,0,0,0,.06-.05.11.11,0,0,0,0-.09c0-.06-.09,0-.14,0l0-.09a.26.26,0,0,0,0-.13c0-.12.08-.15.17-.13s.36-.08.33-.31c-.05-.47.1-1-.16-1.41a.24.24,0,0,1,0-.16,5.57,5.57,0,0,0-.15-1.72,1,1,0,0,0-.37-.71.54.54,0,0,1-.27-.63c0-.1,0-.18,0-.26a5.73,5.73,0,0,0-1.65-1,13.18,13.18,0,0,0-1.54-.58c-.63-.16-1.21-.52-1.85-.66a10.27,10.27,0,0,0-3.31-.09,2.55,2.55,0,0,0-.7.31c-.14.06,0,.24,0,.35l-.07.13a1.12,1.12,0,0,1-.1-.12,9.89,9.89,0,0,1-.73-1.53.52.52,0,0,1,0-.22,1.23,1.23,0,0,0-.44-1,8.11,8.11,0,0,0-1-.74,3,3,0,0,0-1.61-.45c-1.39,0-2.78,0-4.16-.15a1.16,1.16,0,0,0-.47,0l-.13.07s.08.08.12.09a7.67,7.67,0,0,0,.88.19,12.79,12.79,0,0,0,1.74.25,10.64,10.64,0,0,1,2.7.23,10.05,10.05,0,0,1,1.19.42c.33.13.71.41.72.79a5,5,0,0,0,1,2.71c.11.16.4.29,0,.56a1.35,1.35,0,0,0-.35.89c-.05.33-.27.67.1,1,.05,0,0,.06,0,.09a.22.22,0,0,0,0,.29c.19.32.27.71.63.91a.31.31,0,0,1,.14.13c.05.13.33.22.17.35s-.19-.14-.29-.21-.18-.16-.27-.15.12.2-.07.24a3.11,3.11,0,0,1,.23.94.7.7,0,0,0,.27.61,3.71,3.71,0,0,1,.63.68c.17.28.51.42.69.72.07.11.18.22.2.34s0,.51.34.6c.12,0,.15.14.2.24a2,2,0,0,0,.3.49,3,3,0,0,1,1,1.48,2.43,2.43,0,0,0,.28.49.23.23,0,0,0,.36.1c.12-.1.16,0,.26,0s.34.5.58.07c0,0,.06,0,.09,0a1.83,1.83,0,0,1,.94.91c.09.5.56,1.14,1,1.06a2.18,2.18,0,0,1,1.2.27l.09,0a10.27,10.27,0,0,1,1.2.25.72.72,0,0,0,.57-.16c.22-.14.76-.16.92,0,.31.39.77.64,1,1.1,0,.06.09.16.14,0s.16-.08.19,0a.44.44,0,0,0,.28.23.5.5,0,0,1,.3.36.88.88,0,0,0,.32.5c.12-.2,0-.4,0-.6"/><path class="cls-1" d="M268.43,41.52a8.39,8.39,0,0,1,.21,3h0c-.11-1.1-.11-2.17-.31-3.26a36.94,36.94,0,0,1-.68-3.66h0a31.43,31.43,0,0,0,.78,3.94M267,42.6a25.46,25.46,0,0,1-.83,3.81,0,0,0,0,1,0,0,34.87,34.87,0,0,0,.69-3.83,14.7,14.7,0,0,1,.21-1.93l0-.2c-.27.51-.5,1-.8,1.53s-.85,1.21-1.28,1.81c0,0,0,0,0,0a26.2,26.2,0,0,0,1.51-2.18c.22-.39.4-.8.6-1.19.13-.56.3-1.11.44-1.67a.09.09,0,0,1,.18,0c-.11.69-.31,1.35-.47,2A15,15,0,0,0,267,42.6m1.7-6.68c-.19-.16-.48-.21-.54-.53a.39.39,0,0,0-.14-.25s-.09-.09-.15-.07-.08.1-.09.16a.33.33,0,0,0,.08.25.35.35,0,0,1,.07.23,1,1,0,0,1-.52.9c-.44.27-.87.57-1.3.86a7,7,0,0,0-1.59,1.62c-.08.11-.19.25-.09.4a.16.16,0,0,1,0,.25c-.12.1-.16.25-.31.34s-.1.28-.18.43-.07.35-.14.5-.17.39.1.5.23.32.38.24.15.05.15.13a7.91,7.91,0,0,0,0,1s0,.21.12.13.1,0,.1.1,0,.12,0,.17a3.43,3.43,0,0,1,.06,1.23c0,.2,0,.33.25.36,0,0,.08,0,0,.07s0,.23,0,.32a.94.94,0,0,1,.3,1,.27.27,0,0,0,.11.29.22.22,0,0,1,.1.16.79.79,0,0,0,.41.59c.16.12.23.08.28-.09s0-.2.15-.22a.51.51,0,0,0,.45-.42.46.46,0,0,1,.1-.21c.25-.24.51-.48.78-.71a3,3,0,0,0,.71-.8l.14-.23a1.23,1.23,0,0,1,.59-.61l.13-.06a.58.58,0,0,0,.54-.29l.07-.11.16-.15c.21-.22.38-.28.36-.52l.2-.21a.5.5,0,0,0,0-.65,2.32,2.32,0,0,0-.1-.43.91.91,0,0,0-.34-.56c-.05,0-.09-.18-.17-.14s0,.12,0,.19.06.08,0,.11a.07.07,0,0,1-.09-.05c0-.16-.3-.33,0-.48,0,0,0,0,0-.05a2.64,2.64,0,0,1-.16-1c0-.27-.15-.49-.28-.72a8.68,8.68,0,0,1-.73-2.35.23.23,0,0,1,0-.13.34.34,0,0,0-.12-.43"/><path class="cls-1" d="M269.56,41.5s0,0,0,0a0,0,0,0,1,0,0"/><path class="cls-1" d="M274.89,45.8a.09.09,0,0,0-.08,0,.08.08,0,0,0,.07.11s0,0,.07,0,0-.1-.06-.11"/></g><g id="Ramas"><path class="cls-2" d="M255.6,129.45c-3.56,0-3.56-4.41-3.56-7V104.61c0-9-9.13-11.84-17.95-11.84-7.12,0-20,1.24-20,10.68,0,5,3.56,7.27,7.27,7.27a6.5,6.5,0,0,0,6.89-6.5,5.06,5.06,0,0,1-2.71-4.49,6.41,6.41,0,0,1,6.42-6.27c5.73,0,5.73,5.18,5.73,10.06v4.64c-8.74,6-26.15,3.95-26.15,16.17,0,6.65,4.64,10.14,11.92,10.14,6.11,0,12.07-3.09,14.31-8.51.7,5.18,3.64,8.51,8,8.51,5.57,0,10-2.86,13.54-5.88l-.31-.39A5.57,5.57,0,0,1,255.6,129.45Zm-17.95-6.27c0,2.86-1.78,5.73-4.72,5.73-4.33,0-4.87-4.72-4.87-7.66,0-8.59,4.1-8.9,9.59-12.46Z"/><path class="cls-2" d="M134.56,128.21a5.57,5.57,0,0,1-3.4,1.24c-3.56,0-3.56-4.41-3.56-7V104.61c0-9-9.13-11.84-18-11.84-7.12,0-20,1.24-20,10.68,0,5,3.56,7.27,7.27,7.27a6.51,6.51,0,0,0,6.89-6.5,5.06,5.06,0,0,1-2.71-4.49,6.41,6.41,0,0,1,6.42-6.27c5.73,0,5.73,5.18,5.73,10.06v4.64c-8.74,6-26.15,3.95-26.15,16.17,0,6.65,4.64,10.14,11.91,10.14,6.11,0,12.07-3.09,14.31-8.51.7,5.18,3.64,8.51,8,8.51,5.57,0,10-2.86,13.54-5.88Zm-21.35-5c0,2.86-1.78,5.73-4.72,5.73-4.33,0-4.87-4.72-4.87-7.66,0-8.59,4.1-8.9,9.59-12.46Z"/><path class="cls-2" d="M75,92.77c-7.35,0-10.52,5.34-12.38,10.52l.23-10.52L41.08,98.59a7.21,7.21,0,0,0,0-1.09h-.14c0,.34,0,.66,0,1-.6,1-5.34-1.09-7.38-1.09-2.5,0-3.13,2.47-3.48,4.65l.2,0c.17-.92,1-1.12,1.84-1.12,2,0,3.79.63,5.6.63a3,3,0,0,0,3-2.3h0c-.8,3.7-8.3,5.66-8.3,9.3a2.27,2.27,0,0,0,2.47,2.18A2.06,2.06,0,0,0,37.18,109a1.6,1.6,0,0,1-.86-1.52c0-3.58,4.13-5.52,4.7-8.23,6.3-1.41,7.36.69,7.36,5.79v18.57c0,8.28-.7,9.83-6.73,9.83v.54H78.19v-.54H71c-7.89,0-8.28-1.55-8.28-9.83V104.92c1.47-4.56,4.26-10.21,8.51-10.21,2.17,0,3.25,2.4,3.25,4.64,0,2.4-1.24,5-3.87,5.65a6.51,6.51,0,0,0,6.89,6.5c5,0,8.43-4.57,8.43-9.13C85.9,96,80.25,92.77,75,92.77Z"/><path class="cls-2" d="M220.8,138.19c-3.87,0-7.35,2.24-7.58,7.12,1.55.77,3.64,2.09,3.64,5.11a4.82,4.82,0,0,1-4.87,5.11c-6.42,0-6.42-13.85-6.42-21.59V104.15c0-7.89-2.32-11.37-8.51-11.37-4.8,0-9.83,2.63-16.87,8.36-.62-5.73-3-8.36-8.36-8.36-4.8,0-9.67,2.48-16.79,8.36l.23-8.36-22.28,6,.15.54c6.58-1.55,7.66.54,7.66,5.73v18.57c0,8.28-.7,9.83-6.73,9.83v.54h25.3v-.54c-4.18,0-4.25-3.4-4.25-8.28V101.83c2.55-2,4.8-3,6.58-3,4.33,0,4.33,4.41,4.33,7.35v19c0,6.19-.08,8.28-4.18,8.28v.54h22.67v-.54c-4.1,0-4.18-2.09-4.18-8.28v-21c0-.77-.08-1.55-.08-2.24,2.48-1.93,4.87-3.1,6.65-3.1,4.33,0,4.33,4.41,4.33,7.35v27.23a22.62,22.62,0,0,0,22.13,22.9c6.81,0,15.4-2.86,15.4-10.29C228.77,141,224.9,138.19,220.8,138.19Z"/><path class="cls-2" d="M303.35,88.69a4,4,0,0,0-4.15,3.77,2.9,2.9,0,0,0,2.9,3.07,2.45,2.45,0,0,1,2.56-1.73c1.42,0,2.07.66,2.07,1.42,0,1-1.14,1.93-3.35,1.93-3,0-5.67-1.12-9.15-1.22-2.93-2.35-8.09-3.15-12.77-3.15-9.75,0-20,3.4-20,12.92,0,15.32,27.54,14.16,27.54,22.82,0,2.94-3.09,5.34-10.37,5.34-6.34,0-8.28-2.17-8.28-4.64a3.92,3.92,0,0,1,2.63-3.95c-.16-3.48-3.17-5.18-6-5.18-2.94,0-5.8,1.78-5.8,5.65,0,7,9.36,8.74,17,8.74,13.77,0,21.28-5.73,21.28-13.93,0-15.47-27-12.92-27-21.82,0-2.63,2.32-5.34,8-5.34,4.49,0,7.89,1.62,7.89,4.41a3.26,3.26,0,0,1-2.32,3.25,5,5,0,0,0,5.26,4.8,5.25,5.25,0,0,0,4.3-2,3.49,3.49,0,0,0,.78-1.67,6,6,0,0,0,.18-1.48,5.87,5.87,0,0,0-.79-3,4.35,4.35,0,0,1,2.5,4.06,4.93,4.93,0,0,1-3.13,4.7,13,13,0,0,1-2.25.84c3.75-.56,6.8-2.34,6.8-5.4,0-2.21-1.8-3.85-4.19-4.57l-.07-.1a34.83,34.83,0,0,0,6.47.91c4,0,6-2.7,6-5.18A4.24,4.24,0,0,0,303.35,88.69Z"/></g><g id="Las"><path class="cls-2" d="M282.49,72.32c0-1.33,1.36-2.41,3.39-2.41,2.55,0,6.43,1.68,6.85,5.91H293l-.35-6.15-2.31.63a14.8,14.8,0,0,0-4.3-.66c-3.64,0-8.53,1.54-8.53,5.84,0,6.89,12.45,6.47,12.45,10.28,0,1.36-1.61,2.45-3.85,2.45A8.22,8.22,0,0,1,277.74,81h-.24l.38,7.45,2.59-.66a26,26,0,0,0,5.63.73c4.89,0,8.6-2.55,8.6-6.33C294.69,75.25,282.49,76.3,282.49,72.32Z"/><path class="cls-2" d="M274.83,86.2c-1.61,0-1.61-2-1.61-3.15V75c0-4.06-4.13-5.35-8.11-5.35-3.22,0-9.06.56-9.06,4.83a3.09,3.09,0,0,0,3.29,3.29,2.94,2.94,0,0,0,3.11-2.94,2.29,2.29,0,0,1-1.22-2,2.9,2.9,0,0,1,2.9-2.83c2.59,0,2.59,2.34,2.59,4.55v2.1c-4,2.73-11.82,1.78-11.82,7.31,0,3,2.1,4.58,5.38,4.58a6.86,6.86,0,0,0,6.47-3.85c.31,2.34,1.64,3.85,3.64,3.85a9.49,9.49,0,0,0,6.12-2.66l-.14-.17A2.51,2.51,0,0,1,274.83,86.2Zm-8.11-2.83A2.37,2.37,0,0,1,264.58,86c-2,0-2.2-2.13-2.2-3.46,0-3.88,1.85-4,4.34-5.63Z"/><path class="cls-2" d="M251.78,83.54V51.32l-10,2.69.07.25c3-.7,3.46.25,3.46,2.59V83.54c0,3.74-.31,4.44-3,4.44v.25h12.55V88C252.09,88,251.78,87.28,251.78,83.54Z"/></g><path id="Entre" class="cls-2" d="M39.8,63.17c0-5.42,1.93-15.47,7.5-15.47,6,0,6.27,10.06,4.8,15.86a108.4,108.4,0,0,1-12.3-.39m27.78,9.21-.46-.23a14.41,14.41,0,0,1-13,7.43c-9.9,0-14.16-7.66-14.31-15.63a98,98,0,0,0,26.15-1c2.17-9.44-4.64-15.86-17.41-15.86-10.45,0-19.5,5.65-22.36,14.55-3-.31-10.24-.54-12.87-.54C7.74,61.08,0,62.86,0,70.21c0,5.18,3.87,7.89,8,7.89,3.87,0,7.35-2.24,7.58-7.12-1.7-.77-3.64-2.48-3.64-4.8,0-3.17,2.32-4.1,5.34-4.1,1.08,0,6.91.16,8.69.39a19.22,19.22,0,0,0-.7,5.26c0,12.38,8,21,20.66,21,11.06,0,18-7.2,21.66-16.4m55,15.32c-6,0-6.73-1.55-6.73-9.83V58.45c0-7.89-2.71-11.37-9-11.37-4.72,0-9.44,2.09-17.1,8.36L90,47.08,67.75,53l.15.54c6.58-1.55,7.66.54,7.66,5.73V77.87c0,8.28-.7,9.83-6.73,9.83H64.58v.54H94.14V87.7c-4.18,0-4.26-3.4-4.26-8.28V56.13a11.34,11.34,0,0,1,6.81-3c4.49,0,4.87,4.18,4.87,7.35v19c0,6.19-.08,8.28-4.18,8.28v.54h25.22Zm17.59-39.3h8.51v-.77H140.2V32.14h-.77a18.26,18.26,0,0,1-3.64,11.45c-3.25,2.71-7.81,4-14.16,4H120v.77h5.88V77.87c0,6,3,10.91,8.36,10.91,6.65,0,12-3.48,16.25-7.12l-.31-.39c-1.78,1.32-3.56,2.4-5.65,2.4-4.26,0-4.33-5.42-4.33-8.43Zm53.07,8.28c0-6.34-5.65-9.59-10.91-9.59-7.35,0-10.52,5.34-12.38,10.52l.23-10.52-22.28,6,.15.54c6.58-1.55,7.66.54,7.66,5.73V77.87c0,8.28-.7,9.83-6.73,9.83v.54h36V87.7h-6.71c-7.89,0-8.28-1.55-8.28-9.83V59.22c1.47-4.56,4.26-10.21,8.51-10.21,2.17,0,3.25,2.4,3.25,4.64,0,2.4-1.24,5-3.87,5.65a6.51,6.51,0,0,0,6.89,6.5c5,0,8.43-4.56,8.43-9.13m16.25,6c.08-5.42,2-15,7.5-15,6.19,0,6.11,10.21,4.87,15Zm0,.77h26.07c2.48-9.83-4.56-16.4-17.33-16.4-12.61,0-23.29,8.28-23.29,20.66s8,21,20.66,21c11.06,0,18-7.2,21.66-16.4l-.46-.23a14.41,14.41,0,0,1-13,7.43c-10.06,0-14.31-8-14.31-16.09"/></g></svg>