<svg id="Layer_1" data-name="Layer 1" xmlns="http://www.w3.org/2000/svg" viewBox="0 0 960 600"><defs><style>.cls-1{fill:#d70d56;}</style></defs><title>Artboard 4</title><path class="cls-1" d="M5,24.2H0l7.49,7h4l7.49-7H14L9.49,28.12ZM17.76,8.27a8.27,8.27,0,1,0-8.27,8.27,8.27,8.27,0,0,0,8.27-8.27"/><path class="cls-1" d="M950.14,561.81a9,9,0,1,0,0,18.07c.06,0,.17-.06.23-.06V600H953V563.81h4.33V600h2.62V563.81H960v-2h-9.86Z"/><path class="cls-1" d="M948.51,7,941,0h5l4.53,3.83L955,0h5l-7.49,7Zm2,10.27L955,13.32h5l-7.49,7h-4l-7.49-7h5Z"/><path class="cls-1" d="M10,572.18l4.62,4.56L10,581.25ZM7.18,553.32V574l-7.18-7v3.7l6.21,6.1L0,582.84v3.7l7.18-7V600H10V585l7.18-7v-2.39L10,568.48V553.32Z"/></svg>