<svg xmlns="http://www.w3.org/2000/svg" viewBox="0 0 600 600"><title>Artboard 1</title><path d="M300,152.43c48.06,0,53.75.18,72.74,1,17.55.8,27.08,3.73,33.42,6.2a59.61,59.61,0,0,1,34.16,34.16c2.46,6.34,5.4,15.87,6.2,33.42.87,19,1,24.67,1,72.74s-.18,53.75-1,72.74c-.8,17.55-3.73,27.08-6.2,33.42a59.61,59.61,0,0,1-34.16,34.16c-6.34,2.46-15.87,5.4-33.42,6.2-19,.87-24.67,1-72.74,1s-53.76-.18-72.74-1c-17.55-.8-27.08-3.73-33.42-6.2a59.61,59.61,0,0,1-34.16-34.16c-2.46-6.34-5.4-15.87-6.2-33.42-.87-19-1-24.67-1-72.74s.18-53.75,1-72.74c.8-17.55,3.73-27.08,6.2-33.42a59.61,59.61,0,0,1,34.16-34.16c6.34-2.46,15.87-5.4,33.42-6.2,19-.87,24.67-1,72.74-1M300,120c-48.89,0-55,.21-74.21,1.08s-32.24,3.92-43.69,8.37a92,92,0,0,0-52.64,52.64c-4.45,11.45-7.49,24.53-8.37,43.69S120,251.11,120,300s.21,55,1.08,74.21,3.92,32.24,8.37,43.69a92,92,0,0,0,52.64,52.64c11.45,4.45,24.53,7.49,43.69,8.37S251.11,480,300,480s55-.21,74.21-1.08,32.24-3.92,43.69-8.37a92,92,0,0,0,52.64-52.64c4.45-11.45,7.49-24.53,8.37-43.69S480,348.89,480,300s-.21-55-1.08-74.21-3.92-32.24-8.37-43.69a92,92,0,0,0-52.64-52.64c-11.45-4.45-24.53-7.49-43.69-8.37S348.89,120,300,120Z"/><path d="M300,207.57A92.43,92.43,0,1,0,392.43,300,92.43,92.43,0,0,0,300,207.57ZM300,360a60,60,0,1,1,60-60A60,60,0,0,1,300,360Z"/><circle cx="396.08" cy="203.92" r="21.6"/><path d="M300,30A270.08,270.08,0,0,1,405.09,548.79,270.08,270.08,0,0,1,194.91,51.21,268.28,268.28,0,0,1,300,30m0-30C134.31,0,0,134.31,0,300S134.31,600,300,600,600,465.69,600,300,465.69,0,300,0Z"/></svg>