<svg xmlns="http://www.w3.org/2000/svg" viewBox="0 0 600 600"><title>Artboard 1 copy 2</title><path d="M300,30A270.08,270.08,0,0,1,405.09,548.79,270.08,270.08,0,0,1,194.91,51.21,268.28,268.28,0,0,1,300,30m0-30C134.31,0,0,134.31,0,300S134.31,600,300,600,600,465.69,600,300,465.69,0,300,0Z"/><path d="M461.95,210.38H361.28v-25H462v25ZM294.26,312.92Q304,328,304,349.54c0,14.83-3.66,28.14-11.11,39.89a69.17,69.17,0,0,1-17.68,19.64A68.34,68.34,0,0,1,247,421.62,174.43,174.43,0,0,1,211.7,425H99.11V175H219.84c30.43.5,52,9.31,64.75,26.63Q296.06,217.56,296,239.8c0,15.28-3.83,27.51-11.55,36.81q-6.44,7.81-19,14.23C278.15,295.49,287.81,302.82,294.26,312.92ZM156.76,273.56h52.9c10.87,0,19.66-2.07,26.43-6.2s10.14-11.46,10.14-22c0-11.63-4.47-19.35-13.43-23.06-7.7-2.58-17.55-3.91-29.51-3.91H156.76ZM251.32,346c0-13-5.31-22-15.9-26.78-5.92-2.74-14.28-4.14-25-4.24H156.76v66.62h52.83c10.85,0,19.25-1.42,25.32-4.38C245.84,371.74,251.32,361.37,251.32,346Zm248-40.67c1.22,8.18,1.77,20,1.54,35.56H370.46q1.08,27,18.72,37.78c7.11,4.52,15.72,6.72,25.81,6.72,10.64,0,19.31-2.69,26-8.22a39.07,39.07,0,0,0,9.62-12.29h47.79c-1.25,10.63-7,21.41-17.35,32.37q-24,26.12-67.35,26.14-35.76,0-63.08-22T323.3,329.6q0-46.6,24.64-71.4c16.51-16.58,37.81-24.83,64.07-24.83q23.35,0,42.11,8.37A72.52,72.52,0,0,1,485,268.26C492.37,278.92,497.1,291.25,499.3,305.3Zm-47,4.67q-1.31-18.67-12.51-28.3T412,272c-12,0-21.33,3.46-27.94,10.27s-10.79,16-12.48,27.72h80.68Z"/></svg>