<svg id="Logo" xmlns="http://www.w3.org/2000/svg" viewBox="0 0 600 600"><defs><style>.cls-1{fill:#fff;}</style></defs><title>Artboard 1 copy</title><path class="cls-1" d="M300,30A270.08,270.08,0,0,1,405.09,548.79,270.08,270.08,0,0,1,194.91,51.21,268.28,268.28,0,0,1,300,30m0-30C134.31,0,0,134.31,0,300S134.31,600,300,600,600,465.69,600,300,465.69,0,300,0Z"/><path id="White" class="cls-1" d="M262.49,480V315.79H207.23v-64h55.26v-47.2c0-54.77,33.45-84.59,82.31-84.59a453.41,453.41,0,0,1,49.38,2.52v57.24l-33.89,0c-26.57,0-31.72,12.63-31.72,31.16v40.86H392l-8.25,64H328.58V480Z"/></svg>