<svg xmlns="http://www.w3.org/2000/svg" viewBox="0 0 50 50"><defs><style>.a{fill:#da1c5c;}</style></defs><title>FB2Artboard 6</title><path class="a" d="M50,21.21a1.29,1.29,0,0,0,0-.62c-.07-.15.11-.6-.37-.42,0,0-.28-.06-.21-.17s.12-.33-.05-.48a.21.21,0,0,1-.05-.18,1,1,0,0,0-.12-.87,4.86,4.86,0,0,0-1-1.1,13.44,13.44,0,0,0-1.35-1c-.12-.08-.31,0-.42-.12a1.82,1.82,0,0,0-.89-.32c-.58-.06-1.11-.45-1.72-.28-.27.08-.5-.08-.76-.1a2.36,2.36,0,0,1-1.29-.35c-.05,0-.2,0-.28-.07s0,0,0,0,.1,0,0,.09-.1,0-.12,0c-.14-.24-.32-.17-.51-.07s-.08,0-.11,0c-.13-.33-.46-.4-.73-.53a1.6,1.6,0,0,0-.85-.17l-.53,0c-.26,0-.53,0-.79,0a.43.43,0,0,0-.13,0c.12.3-.12,0-.13.08h-.18c-.2,0-.4,0-.61,0a.31.31,0,0,0-.18,0s0,0,0,.06.11,0,.16,0,.24.09.37.11,0,0,0,0a.26.26,0,0,0-.09,0s-.27-.19-.16.1a1.1,1.1,0,0,1-.26.06c-.07,0-.16-.09-.09.07s0,0,0,0c-.34,0-.57.3-.9.37s-.37.24-.58.33c-.46.2-.81.55-1.27.77a10.48,10.48,0,0,0-1.64.91c-.28.2-.69.21-.94.46a1.4,1.4,0,0,1-.92.44c-.25,0-.3.33-.5.44s-.69.41-1,.63a3.14,3.14,0,0,1-.84.46,1.17,1.17,0,0,0-.42.25s-.07,0-.09,0a13.42,13.42,0,0,0-2.07-1.1,4.86,4.86,0,0,1-1.3-.76,5.3,5.3,0,0,1-.64-.76c-.12-.15-.21-.31-.33-.46s.13-.26.19-.27c.46-.08.77-.44,1.19-.59a5.07,5.07,0,0,0,.64-.34c.08,0,.08-.1,0-.16s-.12-.07-.06-.14.1,0,.14,0,.18,0,.16.12.09.09.14.07l1.09-.59.69-.35a9.34,9.34,0,0,0,1.33-.78c.3-.24.68-.24,1-.46a6.26,6.26,0,0,1,.75-.4c.17-.09.37-.09.54-.26s.32.12.49.2a6.88,6.88,0,0,0,.9.48c.24.07.49.13.73.22a9,9,0,0,0,1.58.48c.73.11,1.46.09,2.18.13a1.34,1.34,0,0,1,.79.13h0c0-.36.31-.15.47-.2s.15,0,.11-.06c-.22-.14,0-.23,0-.32a.33.33,0,0,1,.35-.12c.18,0,.25-.16.41-.12,0,0,0,0,0,0a.45.45,0,0,0-.38,0h-.11a.51.51,0,0,1,.08-.08,6.59,6.59,0,0,1,1.07-.42c.24-.09.23-.1.07-.25a.14.14,0,0,1,0-.12c.2-.43.64-.58,1-.82a.34.34,0,0,0,.17-.25c0-.14-.12,0-.19,0s-.14.07-.14-.08c0-.38.26-.65.36-1,0-.08.36-.19,0-.25,0,0,0-.07,0-.08s0-.26.07-.38c-.13,0-.18.07-.25.13s-.06,0-.09,0c-.25,0-.55-.17-.75.1a2.34,2.34,0,0,1-.59.5,5.39,5.39,0,0,1-2.51.87,17.55,17.55,0,0,1-2.05.11c-.6,0-1.2-.07-1.8-.07,0,0,0,0-.06,0l.06-.07a5.83,5.83,0,0,1,.87-.6l.07,0,0,0c-.2.18-.51-.05-.67.15s-.28.22-.39.36-.39,0-.58,0c0,0-.05,0-.05,0s.22-.11.32-.18l.11-.06a7.48,7.48,0,0,1,1.47-1,11.4,11.4,0,0,1,1.84-.81c.17,0,.47-.06.29-.4,0,0,0-.07,0-.08a.93.93,0,0,1,.67-.19c.44,0,.82-.34,1.29-.26,0,0,0,0,0,0l-.07,0c-.14-.07-.22-.23-.4-.23s0-.06,0-.06a1.23,1.23,0,0,0,.72-.17c.1-.09.25.08.39.1a2.84,2.84,0,0,0,.42,0l-.3-.15-.24-.09c-.07,0-.21,0-.19-.11s0-.24.11-.32.08-.16,0-.21a5,5,0,0,0-1.89-.33,11.91,11.91,0,0,1-1.43,0,1.73,1.73,0,0,0-1,0,4.43,4.43,0,0,1-.72.24,2.53,2.53,0,0,0-1.33.69,1.3,1.3,0,0,1-.47.38,1.65,1.65,0,0,0-.94.54.33.33,0,0,1-.16.1c-.19.06-.44.07-.39.38,0,0-.06,0-.07,0-.29-.18-.44,0-.6.21a.65.65,0,0,1-.88.17c-.09-.07-.15-.18-.23-.25L27.08,8C27,8,27,8,27.06,7.91l1.45-1a3.18,3.18,0,0,0,1.13-1.06.08.08,0,0,1,.07,0c.29.13.3-.09.33-.27s0-.21,0-.22c.26-.07.27-.38.48-.48s.2,0,.23-.09a1.83,1.83,0,0,1,.64-.6,1.18,1.18,0,0,0,.3-.33.66.66,0,0,0-.38.07h0c-.06,0-.13,0-.18,0a.15.15,0,0,1,0-.13c0-.06.1-.06.17,0s.55-.39.51-.52A.43.43,0,0,1,32,2.78c.22-.11.34-.4.62-.39,0,0,0,0,0-.08-.15-.32.06-.52.27-.71s.27-.37.22-.43-.06-.41,0-.59.17-.18.1-.3a.28.28,0,0,0-.32-.12c-.15.06-.37.15-.41.27s-.14.35-.34.34-.22.12-.23.25,0,.08-.05.09a.84.84,0,0,0-.52.33,8.94,8.94,0,0,1-.77.72c-.06.05-.08.13-.16.18a2.57,2.57,0,0,0-.69.57,1.05,1.05,0,0,1-.34.29,3.78,3.78,0,0,0-.59.5c-.12.1-.14.32-.36.3s-.13.1-.2.15c-.25.15-.22.56-.68.54s-.48.58-.91.63c0,0,0,0,0,0-.17.19-.28.48-.63.32,0,0-.06,0-.09,0,.12.22-.09.18-.18.22a3.66,3.66,0,0,0-.91.5c-.21.17-.43.43-.79.28s-.76-.28-1.12-.46c-.15-.08-.44,0-.43-.09.06-.41-.55-.1-.48-.48-.22,0-.23-.31-.44-.37a.16.16,0,0,1-.07-.26c.08-.1,0-.15-.08-.2s-.1,0-.15,0-.17.23-.33.16a1.08,1.08,0,0,0-.74-.14c-.21.05-.37-.12-.55-.17a.2.2,0,0,0-.23.05c-.09.1,0,.08.08.12a1.81,1.81,0,0,1,.22.23c.13.22.17.55.55.46a.15.15,0,0,1,.08,0l0,0s0,0-.06,0a11.11,11.11,0,0,1-1.25-.06,2.14,2.14,0,0,1-.45-.06,1.27,1.27,0,0,0-.73-.13.63.63,0,0,1-.38,0,1,1,0,0,0-1.05,0,3.87,3.87,0,0,1-.74.49c-.13.06-.35.09-.36.14a.87.87,0,0,1-.37.48s-.08,0-.05.08.07,0,.11,0l.09,0s0,0,0,0l-.08,0a2.26,2.26,0,0,0-.27.07c0,.3-.27.4-.39.6a1.13,1.13,0,0,0,.05,1.34.5.5,0,0,1,0,.14l0,0-.12-.12s0-.12-.07-.07a.08.08,0,0,0,0,.12.83.83,0,0,0,.1.26.34.34,0,0,0,.37.14c.17-.05,0-.11,0-.17s.05-.06.09-.06a2.66,2.66,0,0,0,.29,0c.12,0,.17-.11.19-.22s-.09-.1-.15-.11-.25-.26-.42-.31a.39.39,0,0,0,0-.36c-.06-.11,0-.14.09-.18s.1,0,.17,0,.39.38.59,0c.08-.17.18-.47.26-.5a1.83,1.83,0,0,0,.55-.43h0c.07-.07.21-.06.22-.19l.11,0s0,.09,0,.09-.17.16-.29.07h0c.14.15.07.28,0,.41s-.05.14,0,.15.07,0,.1-.07l.07,0s0,.06,0,.09-.17.23,0,.28a.42.42,0,0,0,.49-.17c.18-.24.4-.53.7-.47.64.11,1.28.25,1.93.33.84.11,1.65.4,2.5.43,0,0,.11,0,.11.08S22.09,8,22,8a4,4,0,0,0-1.47.44c-.18.08-.31.28-.55.22a.73.73,0,0,0-.45,0,2.7,2.7,0,0,1-.82.26c-.27,0-.47.19-.76.17s-.41.07-.62.05L15.71,9c-.11,0-.15.1-.21.16s0,0,0,0h0c.19-.15.35-.12.42.11s.21.15.33.21,0,.06.06.08c.2.15-.09.25,0,.35s.21.09.28.11a7.57,7.57,0,0,0,1.19.1,3.93,3.93,0,0,1,1.34.07,1.87,1.87,0,0,0,.67,0,1.36,1.36,0,0,1,.24,0,.22.22,0,0,1-.2.19c-.07,0-.16.07-.08.14a1.28,1.28,0,0,0,.59.26c.33.05.64-.2,1-.2s.54-.24.85-.29S22.9,10,23.25,10a4.42,4.42,0,0,0,1.22-.48,2.15,2.15,0,0,1,1.35-.14,2.52,2.52,0,0,1,1.16.73c.23.21.23.39-.08.48-.58.16-1,.63-1.53.84-.07,0-.22,0-.22.06-.1.46-.57.32-.82.52s-.7.19-.77.62a.1.1,0,0,1-.07,0c-.41-.24-.67.19-.94.31s-.56.32-.85.43-.51.43-.86.43c0,0,0,0-.05.07a1,1,0,0,1-1.47.23,8.67,8.67,0,0,0-1.37-.84A2.85,2.85,0,0,1,17.4,13a4.6,4.6,0,0,0-.65-.27,5.65,5.65,0,0,0-1.24-.44c-.22-.06-.39-.28-.61-.34-.66-.19-1.34-.33-2-.51-.18-.05-.34,0-.5,0a3.41,3.41,0,0,0-1-.27,11.76,11.76,0,0,1-1.23-.29c-.62-.09-1.27-.09-1.88-.22a3.33,3.33,0,0,0-1.17.12,9.19,9.19,0,0,0-1.44.42c-.42.12-.85.22-1.27.33a3.63,3.63,0,0,0-.67.22c-.13.07-.2.24-.32.33a7.91,7.91,0,0,0-1.45,1.29,2,2,0,0,0-.39,1.26c0,.06,0,.12.09.12s.06,0,.06-.08a.86.86,0,0,1,.18-.63c.06-.06,0-.22.1-.19s.11.14.09.25,0,.2.15.14c.07.18.14.07.22,0s.2,0,.25.09,0,.15.07.13.19-.07.2-.11.15-.27.24-.36a4.31,4.31,0,0,1,1.24-1c0-.1.08-.2.22-.12s.1,0,.15,0,.18-.2.23,0-.16.08-.26,0-.06,0-.09,0l.05.06a.15.15,0,0,0,.21,0S5,13,5,13s0,0,0,0a.33.33,0,0,1-.11,0c-.13,0-.27.16-.4,0h0c0,.08,0,.16-.11.2a.63.63,0,0,0-.33.39v0c-.25.07-.31.49-.67.36,0,0-.06,0-.09,0s0,.06,0,.06c.16,0,0,.13,0,.19v.07l.08,0c.12,0,.2-.3.37,0,0,0,.08,0,.11,0,.21-.25.41-.5.63-.73a.7.7,0,0,1,.72-.27,3.38,3.38,0,0,0,1,0,11,11,0,0,0,1.88-.47A6.27,6.27,0,0,1,10.9,13c.19,0,.2.27.45.31.82.15,1.6.5,2.45.59.45,0,.9.08,1.35.15,0,0,.11,0,.11.06s0,.09.13.1a3.13,3.13,0,0,1,1,.39,14,14,0,0,1,1.33.52.39.39,0,0,1,.2.4c0,.15-.14,0-.21,0a.75.75,0,0,0-.19.11,1.24,1.24,0,0,1-1.11.58c-.37,0-.63.25-1,.34s-.44.1-.51.23-.43.15-.57.34-.48.09-.71.23-.32.33-.58.28c0,0,0,0-.06,0s-.24.24-.44.26-.37.05-.39.31c0,.05-.1.1-.16.14s-.1,0-.1,0c0-.17-.13-.06-.18,0s-.35,0-.55.07a1.39,1.39,0,0,1-.76.17c-.25,0-.45.29-.63.27-.52-.06-.9.36-1.4.31-.15,0-.33.21-.48.19a1.19,1.19,0,0,0-.76.21,1.94,1.94,0,0,1-.86.22c-.41,0-.82.19-1.24,0a1.2,1.2,0,0,0-.58.07c-.2,0-.41-.08-.62,0s-.37,0-.55-.12-.3-.27-.54-.24a2.09,2.09,0,0,1-1.87-.73,1.72,1.72,0,0,1-.31-.62.28.28,0,0,0-.29-.14,1.13,1.13,0,0,0-.3.26c-.07.07,0,.12,0,.16a3.13,3.13,0,0,1,1.07,1.41c.16.31.57.36.7.74,0,.14.41.17.63.25.05,0,.14,0,.1.1s0,.2.16.23l.14.05-.12,0,0,0s0,0,.05,0c.47,0,.81.36,1.28.38s.86.18,1.31.18a9.87,9.87,0,0,1,1,.08c.06,0,.17,0,.16.12s-.08.11-.16.13-.23-.08-.35-.05a5.32,5.32,0,0,1-1.31,0c-.05,0-.16-.05-.15.07s.09.08.17.07a4.16,4.16,0,0,1,.8,0,7.43,7.43,0,0,0,1.56,0,9.08,9.08,0,0,0,2.88-.82c.25-.13.59-.09.86-.22,0,.12.27-.29.23.08,0,0,0,0,0,0,.33-.05.67-.08,1-.17s.63-.22,1-.33a8.25,8.25,0,0,0,1.61-.61c.09-.05.26-.15.32,0s-.12.16-.19.19l-1.92.78s-.12.07-.11.09.09,0,.13,0c.3-.13.64-.12.94-.27.08,0,.3-.08.38.07s.21.05.31,0,.19-.05.08-.18,0-.07,0-.06c.3.13.49-.08.75-.17.79-.27,1.55-.6,2.31-.92.95-.4,1.86-.88,2.78-1.32.16-.08.3-.2.46-.28s.45-.33.59-.28c.32.11.51.47.71.73a8,8,0,0,0,.73.88,3,3,0,0,0,.87.62c.47.22.91.48,1.36.74.13.08.35.09.37.25s-.16.21-.26.27c-.34.19-.7.36-1,.54-.13.07-.26.16-.38.24a5.76,5.76,0,0,0-.74.47l-.45.39s-.09,0-.13,0-.12.05-.07.07.28.12.33.08a1.69,1.69,0,0,1,.66-.33c.11,0,.06-.18.19-.22a4.76,4.76,0,0,0,.68-.28c.09,0,.24-.11.24-.17,0-.26.24-.17.36-.24s0,0,.06,0,0,0,0,0l-.07,0s.05,0,.07,0,.09.09.1.16-.07.06-.12.08a.42.42,0,0,0-.16.08A4.92,4.92,0,0,1,24,23c-.26.13-.55.22-.82.37a5.36,5.36,0,0,0-.56.47c-.32.24-.63.51-1.08.39A14,14,0,0,1,19,23.12a13.26,13.26,0,0,0-1.39-.61,7.12,7.12,0,0,0-2.92-.18c-.17,0-.34.1-.51.12a8.14,8.14,0,0,0-1.36.25,6.85,6.85,0,0,0-1.32.47c-.37.21-.79.34-1.16.55s-.47.41-.74.56a5.82,5.82,0,0,0-1.42,1.45,4.89,4.89,0,0,0-.7,1.14c-.07.14-.24.24-.22.39s-.22.33-.28.53-.32.11-.37.24a.5.5,0,0,1-.55.34s-.16,0-.09,0c.22.21,0,.53.19.73a.39.39,0,0,1,.1.19c.11.38,0,.81.3,1.15.07.08.11.3,0,.34s-.12.14-.08.22c.15.3.39.53.37.94,0,.2-.09.15-.15.19s-.05,0,0,.07a4.87,4.87,0,0,1,.7.87c.06.07.13.17.19.17.27,0,.46.11.43.31,0,0,0,0,.06,0,.36.17.77-.13,1.14.2s.67.14,1,.12c.13,0,.13.18.27.16s.33-.16.51,0a.62.62,0,0,0,.31.07s.09-.08.13,0,0,.07,0,.07a.33.33,0,0,1-.13.06l-.62.06s0,0-.07.06,0,0,.07,0a5.39,5.39,0,0,0,1.74-.25,13.16,13.16,0,0,0,1.92-.76c.09-.05.23,0,.32-.09L16.9,32c.49-.3,1-.61,1.45-.94a12.63,12.63,0,0,1,1.06-.76c.66-.35,1.24-.81,1.91-1.15.37-.19.71-.46,1.08-.66a1.05,1.05,0,0,0,.31-.19,6.36,6.36,0,0,1,.74-.58c.05.1.06.22.17.3s.06.16,0,.23l-.88.61a.31.31,0,0,0-.05.06s.06,0,.07,0a1.91,1.91,0,0,1,.48-.29c.37-.08.54-.81,1.13-.24a6.11,6.11,0,0,0,1,.86s0,.1,0,.12-.25.27-.35.3a11.18,11.18,0,0,0-1.65.92c-.38.2-.87.28-1.16.66,0,0-.06,0-.09,0a2,2,0,0,0-.73.33c-.19.19-.37.52-.56.53s-.4.26-.53.36-.54.43-.78.67a7.29,7.29,0,0,0-.92,1,2.74,2.74,0,0,0-.42,1.08A2.91,2.91,0,0,0,18,36.45c.11.63.17,1.27.34,1.89,0,.15,0,.42,0,.45.27.12.3.36.38.58a4.87,4.87,0,0,0,.46.76,4.45,4.45,0,0,0,.92,1.13,2.41,2.41,0,0,0,1.47.72,7.63,7.63,0,0,1,1.73.43c.18.05.45,0,.52.24a5.39,5.39,0,0,1,.37,1.05.26.26,0,0,0,.21.23c.05,0,.1,0,.11.1a3.4,3.4,0,0,0,.68,1.62c.17.27.45.5.57.74a4.43,4.43,0,0,0,.65.86c.26.31.45.73.91.84,0,0,0,0,0,0-.19.19.06.11.1.15s.27.07.31.26.45.2.57.46c0,.07.06.47.33.15,0,0,.06,0,.07,0a1.2,1.2,0,0,1,.33.48c0,.17.27.21.44.19.44,0,.65-.61,1.15-.55a.11.11,0,0,0,0-.07c-.08-.21.06-.18.17-.15s.14,0,.14-.09c0-.3-.36-.49-.42-.49-.39,0-.37-.59-.78-.48,0-.42-.61-.29-.71-.72-.05-.23-.39-.39-.61-.57a.65.65,0,0,1-.16-.3l0,0c-.18,0-.17-.23-.31-.3s-.19-.38-.42-.49-.13-.31-.23-.44a10.53,10.53,0,0,1-.94-1.58c-.14-.3-.25-.61-.38-.91-.2-.48-.14-.55.33-.71s.75-.12.85-.58c0,0,.05,0,.08-.06s0,.08,0,.1,0,.08.06.05l.72-.51a3,3,0,0,0,.63-.79s.15-.05.09-.13-.1,0-.16.05-.18.21-.34.11-.08-.17-.07-.25a.69.69,0,0,1,.15-.25c.08-.12.12-.2-.08-.23s-.23-.18-.19-.24a.62.62,0,0,0-.12-.72,4.75,4.75,0,0,1-.36-.79.78.78,0,0,0-.91-.48.28.28,0,0,1-.24,0c-.18-.2-.35-.31-.62-.15-.05,0-.16.06-.16-.07s0-.09-.07,0-.19.07-.3,0A.23.23,0,0,0,25,37a.3.3,0,0,1-.35.12c-.11,0-.27-.08-.32.1a.29.29,0,0,1-.24.22,1.29,1.29,0,0,0-.92.79c0,.08,0,.09.05.1s.09,0,0,.07-.1.11,0,.19a.15.15,0,0,1,0,.24.89.89,0,0,0-.25.91c0,.21.11.34-.16.33s-.35.1-.53-.06a.68.68,0,0,0-.46-.15c-.51.06-.79-.29-1.13-.56-.06,0-.08-.12,0-.12s.06,0,.09,0l-.1,0s-.12-.07-.11-.09.07,0,.11,0,.09-.09,0-.17-.2-.19-.19-.37a4.93,4.93,0,0,1,.28-1.09c.11-.39.47-.54.75-.76s.23-.27.39-.38.35-.17.51-.26c.43-.25.77-.64,1.18-.91s1.06-.59,1.59-.88c.36-.2.74-.38,1.09-.6s.55-.2.62-.32a1.19,1.19,0,0,1,.89-.47A9,9,0,0,0,29,32.44a1.9,1.9,0,0,1,1.55-.09c.08,0,.27.15.32,0s.06-.08.11-.07c.4.09.65.43,1,.64a8.42,8.42,0,0,1,.94.67c.05,0,.21,0,.23.05.15.31.51.31.76.47s.47.5.88.55c.21,0,.43.17.67.23a2.92,2.92,0,0,0,.94,0c.08,0,.38.26.27-.15,0,0,.06-.06.09-.07A3.12,3.12,0,0,0,37,34.6l1.78-.7c.08,0,.24,0,.22-.09s-.17,0-.27,0-.16,0-.19-.07,0-.13.12-.14c.52,0,.65-.59,1.06-.78,0,0,0,0,0,0a3.06,3.06,0,0,0,.5-1.67,1.5,1.5,0,0,0-.36-1,.28.28,0,0,1-.07-.19.79.79,0,0,0-.55-.79c-.11,0-.24,0-.35-.06-.47-.17-.78-.62-1.28-.74-.16,0-.3.05-.46,0-.59-.28-1.25-.38-1.85-.64a2.71,2.71,0,0,0-1-.27c-.57,0-1.12.05-1.68.09a13.35,13.35,0,0,1-1.43.29,2.5,2.5,0,0,0-.58.09c-.32.07-.52.36-.87.36-.12,0-.33,0-.42.16,0,0-.14,0-.21,0s-.05,0,0,0,0-.14.06-.13a.62.62,0,0,0,.5-.23.37.37,0,0,0,.06-.08s-.07,0-.1,0a2.06,2.06,0,0,0-.75.23c-.23.15-.55.15-.74.4a.23.23,0,0,1-.22,0c-.45-.28-.91-.55-1.35-.86-.26-.18-.44-.48-.79-.53-.12,0-.14-.15,0-.23l1.81-1.09c.05,0,.2,0,.14-.11s-.14,0-.21.06a9.35,9.35,0,0,1-1.42.72.7.7,0,0,0-.55.38c0,.11-.15,0-.21,0a1,1,0,0,1-.15-.22c.07,0,.07-.11.17-.15s.35.06.36-.14a.22.22,0,0,1,.13-.2c.14-.09.43,0,.44-.28,0,0,.06-.07.09-.08.33,0,.53-.32.82-.44a6.2,6.2,0,0,1,1.45-.68,3.73,3.73,0,0,0,1-.54c.25-.14.46-.35.8-.24.16,0-.06.22.08.17.37-.13.65.13.91.26a16.44,16.44,0,0,0,2.29.86,1.13,1.13,0,0,0,.37.1c.39,0,.77,0,1.15,0a16.19,16.19,0,0,1,1.72.21c.47.07,1-.09,1.4.27,0,0,.06,0,.07,0s0-.09.09-.08a11,11,0,0,0,2.09,0c1-.11,2-.18,3-.37a14.89,14.89,0,0,0,2.47-.7c.74-.28,1.45-.64,2.17-1l0,0-.06,0c-.07,0-.14.1-.22,0,.12,0,.13-.19.21-.22A4.69,4.69,0,0,0,49.8,22.2c.08-.08.19-.23.16-.31A1.47,1.47,0,0,1,50,21.21ZM28.84,13.09A2.15,2.15,0,0,1,29.2,13c.32-.08.52-.41.87-.44.06,0,.11-.05.13.06s-.19.21-.3.23a9,9,0,0,0-1,.37l-.13,0S28.81,13.11,28.84,13.09ZM20.59,5.68,20,5.47a.15.15,0,0,1,0-.06,1,1,0,0,1,.52.14l.11.09ZM15.2,20.3s-.08,0-.12-.06l.27-.2s.05,0,.07,0A3,3,0,0,1,15.2,20.3Zm4.72-2.14a.2.2,0,0,0-.2,0l.1,0s0,0,0,0-.07,0-.09,0c-.21,0-.32.14-.47.19s-.49.35-.8.43-.39.23-.62.26a1.71,1.71,0,0,1-.22,0s-.11,0-.12,0,0,0,.08.05,0,0,0,.06l-1.24.46a.48.48,0,0,1-.15,0,.56.56,0,0,1,.1-.09c.43-.22.87-.41,1.29-.64.23-.13.53-.09.72-.31,0,0,.12,0,.18,0l.13,0-.08-.07c.09-.06.17-.12.26-.17s.46-.08.67-.2,0-.26.18-.2.27-.26.33.06a.31.31,0,0,0,0,.08A.33.33,0,0,1,19.92,18.16ZM12.08,25.9l-.28.19s0-.06,0-.06l.27-.17Zm-.23-.15.11,0-.23.2-.07-.05C11.71,25.85,11.74,25.75,11.85,25.75Zm6.6.94c0,.07-.08,0-.12,0l-.07,0c-.06.35-.41.41-.63.58s-.68.42-1,.69-.56.38-.82.58-.32.28-.48.43,0,.06-.06.05c-.37-.09-.53.25-.78.38a15.74,15.74,0,0,1-1.81,1c-.44.16-.88.3-1.32.44-.05,0-.12,0-.18,0s.06-.12.1-.13a6.32,6.32,0,0,0,1.16-.54,2.93,2.93,0,0,1,.42-.16s0,0,0-.05-.2-.11-.29-.09-.32,0-.44.18-.32,0-.51.08a3.4,3.4,0,0,0-1.09.66c0,.06-.08,0-.08,0s0-.06-.05-.06a6.68,6.68,0,0,1-1.23-.12.52.52,0,0,0-.47.18c0,.06-.13,0-.12,0,.1-.27-.16-.45-.17-.65a1,1,0,0,1,.25-.81,4.46,4.46,0,0,0,.58-.93c0-.07,0-.19.16-.13s0,0,0,0a.78.78,0,0,1,.55-.75c.1,0,.2-.13.27-.22.23-.3.44-.63.69-.92a.72.72,0,0,1,.54-.24.09.09,0,0,1,.06,0s0,0,0,.06c-.44.21-.6.67-.91,1,.26,0,.3-.24.42-.36.31-.32.73-.47,1.06-.76,0,0,.06,0,.09,0l-.06.05-.79.66s0,.09-.06.13l.12-.06a1.63,1.63,0,0,1,.25-.21,2.29,2.29,0,0,0,.36-.14c.29-.21.59-.41.9-.59a10.79,10.79,0,0,1,1.66-.74,3.78,3.78,0,0,1,1.19-.36,6.25,6.25,0,0,1,1.31,0,2,2,0,0,0,.49,0c.09,0,0,0,.06.08s.09.24.22.07.05-.07.09,0,0,.06,0,.08-.13.17-.11.22.12,0,.2,0,.33,0,.4.18l0,0,0-.05s0-.12.1-.09a.09.09,0,0,1,0,.15c-.05.07,0,.08.07.11s.05.08,0,.07c-.32-.11-.09.16-.14.23a1.48,1.48,0,0,1-.44.41c-.2.11-.39.24-.59.36,0,0,0,.05,0,.05.16,0,.28.2.45.12a3.75,3.75,0,0,0,.4-.24s.12-.1.14,0S18.48,26.62,18.45,26.7Zm.23-.19a1.4,1.4,0,0,1-.14-.14s0-.06,0,0,.17.06.19.12S18.69,26.49,18.67,26.51Zm1.68,11.62a.4.4,0,0,1-.06.12c-.13,0-.12,0-.1-.06s0-.14.08-.13S20.37,38.07,20.36,38.13ZM20.56,37a5.11,5.11,0,0,1-.19.85c0,.06,0,.12-.09.13s-.09,0-.11-.1a1.82,1.82,0,0,1,.06-1.24c0-.08.1-.09.19-.07C20.72,36.58,20.57,36.85,20.56,37Zm11.39-6.71a2,2,0,0,1,.62-.22A7.21,7.21,0,0,0,34,29.8c.11,0,.19.19.33.07l.06-.05h-.08l-.13,0,0,0c0-.05.09-.14.18-.08a.23.23,0,0,0,.27,0c.11-.05.28-.11.23.14s0,.12.11.09a1.82,1.82,0,0,1,1.51,0,9.7,9.7,0,0,0,1.38.63.13.13,0,0,1,.09.16c0,.09-.09,0-.14,0h-.1s0,0,0,.06c.2.17,0,.26-.09.31-.31.18-.64.34-.86.45s-.34,0-.43.13a.33.33,0,0,1-.28.11c-.3-.09-.51.11-.74.19a1.83,1.83,0,0,1-1.71-.17c-.34-.22-.7-.4-1.05-.6l-.07,0c.07-.32-.27-.23-.37-.38s0-.05,0-.07a.11.11,0,0,1,.07,0l1.19-.28c.06,0,.1-.05.09-.11s-.11-.09-.17-.07l-1.25.31c-.05,0-.1.07-.15,0a1.53,1.53,0,0,0-.16-.16ZM28.44,31.8l.14-.07s.09-.12.14,0-.07.11-.11.11,0,.18-.15.18-.13,0-.14-.08S28.4,31.83,28.44,31.8ZM48,20.76c-.43.24-.67.7-1.11.93s-1,.44-1.54.68a15.37,15.37,0,0,1-3,.92c-.46.11-.95.07-1.39.15a16.93,16.93,0,0,0-1.72.2,2,2,0,0,1-.56,0H37.17c-.17,0-.29-.34-.52-.07a.19.19,0,0,1-.31-.14.3.3,0,0,0-.21,0,3.06,3.06,0,0,1-1.48,0,3.8,3.8,0,0,1-.79-.12A4.69,4.69,0,0,0,32.56,23s-.08,0-.11-.06a.86.86,0,0,1,.21-.17A12.82,12.82,0,0,0,34,22.1c.05,0,.09-.09.13-.14A.87.87,0,0,0,34,22l-1.69.85a.6.6,0,0,1-.42,0s0-.06-.06-.09c.29-.13.27-.63.75-.56.25,0,.39-.32.66-.4a18.58,18.58,0,0,0,1.8-.95A13.65,13.65,0,0,0,36.46,20c.24-.13.45-.32.7-.42a15.31,15.31,0,0,0,1.51-.6,12.42,12.42,0,0,1,1.25-.59,4.9,4.9,0,0,1,1.7-.43,13.21,13.21,0,0,1,1.53.2h.24a.26.26,0,0,0-.19-.17h-.12l-.34-.1v0c.13,0,.25-.08.39,0s.45.1.68.14c0-.22.3.08.35-.22,0-.14.44-.07.68-.11l.15,0s0,0,0,0h-.15l-.55.06a1.08,1.08,0,0,1-.2,0l.19-.09a.46.46,0,0,1,.14,0c0-.06.2.13.14-.08,0,0-.11-.06-.17-.09l-.07-.05h.09l.48,0,0,0c.16-.1.32,0,.47,0s.52.22.63.21A1.34,1.34,0,0,1,47,18c.08.05.08.05,0,.11s0,0,0,.13.15.05.08.14a.18.18,0,0,1-.17,0c-.12-.11-.27,0-.39-.05s0,0-.05,0a.37.37,0,0,0,.1,0,1.78,1.78,0,0,1,1.32.66c.08.11,0,.3.07.44a9,9,0,0,1,0,1s0,.07,0,.1-.19.06-.15.12.09-.05.14-.07h0S48,20.74,48,20.76Z"/></svg>