<svg xmlns="http://www.w3.org/2000/svg" viewBox="0 0 229.64 111.3"><defs><style>.a{fill:#ba0066;}.b{fill:#231f20;}</style></defs><title>Artboard 2 copy</title><path class="a" d="M159.54,78.77a1.47,1.47,0,0,0,0-.71c-.08-.17.12-.68-.42-.47,0,0-.32-.07-.24-.19s.14-.38-.06-.54a.23.23,0,0,1-.06-.21,1.1,1.1,0,0,0-.13-1,5.52,5.52,0,0,0-1.14-1.25,15.27,15.27,0,0,0-1.53-1.09c-.13-.09-.35,0-.48-.14a2.06,2.06,0,0,0-1-.36c-.66-.06-1.27-.51-2-.32-.31.09-.57-.09-.87-.11a2.68,2.68,0,0,1-1.47-.39c-.06,0-.23,0-.32-.07s0,0,0,.05.11,0,0,.1-.11,0-.13-.06c-.16-.27-.37-.2-.58-.08s-.09,0-.13,0c-.14-.37-.53-.45-.83-.6a1.82,1.82,0,0,0-1-.2l-.6,0c-.3,0-.6,0-.9,0a.49.49,0,0,0-.15,0c.14.34-.13,0-.15.09h-.21c-.23,0-.46,0-.69,0a.35.35,0,0,0-.2,0s0,0,0,.07.13.05.18,0,.28.11.43.12,0,0,0,.06a.3.3,0,0,0-.11,0c-.05,0-.31-.21-.18.11a1.25,1.25,0,0,1-.3.07c-.08,0-.18-.1-.1.08,0,0,0,.05,0,.05-.38,0-.65.34-1,.42s-.43.28-.66.38c-.52.22-.92.63-1.44.87a11.9,11.9,0,0,0-1.86,1c-.31.22-.78.24-1.07.52a1.59,1.59,0,0,1-1,.5c-.29,0-.34.37-.57.5-.4.22-.78.47-1.16.71a3.56,3.56,0,0,1-1,.52,1.33,1.33,0,0,0-.48.28s-.08,0-.11,0a15.24,15.24,0,0,0-2.35-1.25,5.52,5.52,0,0,1-1.47-.87,6,6,0,0,1-.73-.87c-.14-.17-.24-.36-.37-.52s.15-.3.22-.31c.52-.09.87-.5,1.35-.67a5.76,5.76,0,0,0,.72-.39c.09,0,.09-.11.05-.18s-.13-.08-.07-.16.11,0,.16,0,.2,0,.19.13.1.11.16.08l1.24-.67c.26-.14.53-.26.79-.4a10.61,10.61,0,0,0,1.52-.89c.34-.28.78-.27,1.12-.52a7.1,7.1,0,0,1,.85-.46c.2-.11.43-.1.61-.3s.37.14.56.23a7.82,7.82,0,0,0,1,.55c.27.08.56.15.83.24a10.18,10.18,0,0,0,1.8.54c.82.12,1.65.1,2.48.15a1.52,1.52,0,0,1,.89.15h0c0-.41.35-.17.53-.23s.17,0,.13-.07c-.25-.16,0-.26.05-.36a.37.37,0,0,1,.4-.13c.2,0,.29-.18.47-.14,0,0,0,0,0,0a.51.51,0,0,0-.44,0,.52.52,0,0,1-.13,0,.57.57,0,0,1,.09-.09,7.49,7.49,0,0,1,1.22-.48c.27-.1.26-.11.07-.28a.15.15,0,0,1,0-.14c.23-.49.73-.66,1.14-.93a.39.39,0,0,0,.19-.29c0-.16-.14,0-.22,0s-.16.08-.16-.09c0-.43.3-.74.4-1.12,0-.1.41-.22,0-.28,0,0,0-.08,0-.09.17-.12,0-.3.08-.43-.15-.05-.2.08-.29.15s-.07,0-.11,0c-.29,0-.62-.19-.85.12a2.66,2.66,0,0,1-.67.57,6.12,6.12,0,0,1-2.85,1,19.93,19.93,0,0,1-2.33.13c-.69,0-1.36-.08-2-.08,0,0,0,0-.06,0l.07-.08a6.62,6.62,0,0,1,1-.68l.07-.05,0,0c-.23.2-.58-.06-.76.17s-.32.26-.45.41-.44,0-.65,0c0,0-.06,0-.06-.05s.25-.13.37-.21l.12-.06a8.5,8.5,0,0,1,1.67-1.08,13,13,0,0,1,2.08-.92c.2-.05.54-.07.33-.45,0,0,0-.07,0-.09a1.06,1.06,0,0,1,.77-.22c.5.05.93-.38,1.46-.29,0,0,0,0,0,0L146,64c-.16-.08-.25-.26-.45-.27,0,0,0-.07,0-.07a1.39,1.39,0,0,0,.82-.2c.12-.1.29.09.44.11a3.22,3.22,0,0,0,.48,0l-.34-.17-.28-.1c-.08,0-.23,0-.22-.13s0-.27.12-.36.09-.19,0-.24a5.72,5.72,0,0,0-2.15-.38,13.52,13.52,0,0,1-1.63-.06,2,2,0,0,0-1.15,0,5,5,0,0,1-.81.27,2.87,2.87,0,0,0-1.51.79,1.48,1.48,0,0,1-.53.44,1.87,1.87,0,0,0-1.06.61.37.37,0,0,1-.18.12c-.22.07-.5.07-.44.43,0,0-.06,0-.08,0-.33-.21-.5,0-.68.24a.73.73,0,0,1-1,.19c-.1-.08-.17-.21-.27-.29l-1.51-1.22c-.07-.06-.12-.09,0-.16l1.65-1.11a3.61,3.61,0,0,0,1.28-1.2.09.09,0,0,1,.08,0c.32.14.34-.1.38-.3s0-.24,0-.25c.29-.08.3-.43.55-.54.09,0,.23,0,.26-.1a2.08,2.08,0,0,1,.72-.68,1.34,1.34,0,0,0,.34-.38.75.75,0,0,0-.44.08l0,0c-.07,0-.15.06-.2,0a.17.17,0,0,1,0-.15c0-.07.11-.07.19-.05s.63-.44.58-.59a.49.49,0,0,1,.2-.51c.26-.12.38-.45.71-.45,0,0,0,0,0-.09-.17-.37.07-.6.31-.81s.31-.42.25-.49c-.19-.23-.07-.46,0-.67s.2-.2.11-.34a.31.31,0,0,0-.36-.13c-.17.07-.42.17-.47.31s-.16.4-.39.38-.25.14-.26.29,0,.09-.06.1a1,1,0,0,0-.59.38,10.16,10.16,0,0,1-.87.82c-.07.06-.09.15-.18.21a2.92,2.92,0,0,0-.78.65,1.2,1.2,0,0,1-.39.33,4.29,4.29,0,0,0-.67.57c-.13.11-.16.37-.41.34s-.15.12-.23.17c-.28.17-.25.64-.77.62s-.55.66-1,.72c0,0,0,0,0,.05-.19.21-.32.55-.72.36,0,0-.07,0-.11.05.13.25-.1.2-.2.24a4.16,4.16,0,0,0-1,.57c-.24.19-.49.49-.89.31s-.86-.32-1.27-.52c-.18-.09-.5,0-.49-.1.07-.46-.62-.12-.54-.54-.25,0-.27-.35-.5-.43a.18.18,0,0,1-.08-.29c.09-.11,0-.16-.09-.23s-.11,0-.17,0-.19.26-.37.18a1.22,1.22,0,0,0-.84-.16c-.24.06-.42-.13-.63-.2a.23.23,0,0,0-.26.06c-.1.11.05.09.09.13a2.05,2.05,0,0,1,.25.26c.15.25.19.62.63.52a.17.17,0,0,1,.09,0s0,0,.05,0,0,0-.06,0a12.62,12.62,0,0,1-1.41-.07A2.43,2.43,0,0,1,124,61a1.44,1.44,0,0,0-.83-.14.71.71,0,0,1-.43,0,1.16,1.16,0,0,0-1.2,0,4.39,4.39,0,0,1-.84.56c-.14.07-.4.1-.41.16a1,1,0,0,1-.42.54s-.1,0-.06.1.08,0,.12,0l.1,0s0,0,0,.05l-.1.05a2.56,2.56,0,0,0-.3.08c0,.35-.3.45-.44.68a1.28,1.28,0,0,0,.06,1.52.57.57,0,0,1,0,.16l0,0-.13-.14s0-.13-.08-.08a.09.09,0,0,0-.05.13.94.94,0,0,0,.11.29.39.39,0,0,0,.42.16c.19-.06,0-.13,0-.19s.06-.07.11-.07a3,3,0,0,0,.33,0c.14,0,.19-.13.21-.25s-.1-.11-.17-.13-.28-.29-.48-.35a.44.44,0,0,0,0-.41c-.07-.13,0-.16.11-.21s.12,0,.19,0,.45.43.67,0c.09-.2.21-.53.29-.57a2.08,2.08,0,0,0,.63-.48h0c.07-.08.24-.06.24-.22l.12,0s0,.1,0,.1-.19.18-.33.08h0c.16.17.08.32,0,.46s-.06.16,0,.17.08,0,.12-.08l.08-.05s0,.07,0,.1-.19.26,0,.32a.48.48,0,0,0,.56-.19c.2-.27.45-.6.8-.54.73.13,1.46.28,2.2.38,1,.12,1.87.45,2.84.48,0,0,.13.05.13.09s-.06.09-.13.09a4.52,4.52,0,0,0-1.67.5c-.2.09-.35.32-.63.25a.83.83,0,0,0-.51,0,3.06,3.06,0,0,1-.93.3c-.31,0-.53.21-.86.19s-.46.08-.71.06l-1.87-.16c-.12,0-.17.11-.24.18s0,0,0,.05h0c.21-.17.4-.14.47.12s.24.17.38.24,0,.07.07.09c.22.17-.1.28,0,.39s.24.11.32.12a8.59,8.59,0,0,0,1.35.11,4.46,4.46,0,0,1,1.52.08,2.13,2.13,0,0,0,.76,0,1.54,1.54,0,0,1,.27,0,.25.25,0,0,1-.22.21c-.08,0-.18.08-.09.16a1.45,1.45,0,0,0,.67.29c.37.06.73-.23,1.14-.22s.61-.28,1-.33.84-.3,1.23-.36a5,5,0,0,0,1.39-.55,2.44,2.44,0,0,1,1.53-.16,2.86,2.86,0,0,1,1.31.83c.26.23.26.44-.1.54-.66.18-1.12.72-1.74,1-.08,0-.24,0-.25.07-.11.52-.65.36-.93.6s-.79.21-.88.71a.11.11,0,0,1-.08,0c-.47-.27-.76.21-1.07.35s-.64.37-1,.49-.57.49-1,.49c0,0,0,0-.06.08a1.12,1.12,0,0,1-1.67.26,9.85,9.85,0,0,0-1.56-1,3.24,3.24,0,0,1-.6-.22,5.22,5.22,0,0,0-.74-.31,6.42,6.42,0,0,0-1.41-.5c-.25-.07-.44-.32-.69-.39-.75-.22-1.53-.37-2.28-.58-.2-.06-.38.06-.57,0a3.87,3.87,0,0,0-1.16-.31,13.36,13.36,0,0,1-1.4-.32c-.71-.11-1.44-.1-2.13-.25a3.78,3.78,0,0,0-1.33.14,10.44,10.44,0,0,0-1.64.48c-.48.14-1,.25-1.44.38A4.12,4.12,0,0,0,107,68c-.15.07-.23.27-.37.37A9,9,0,0,0,105,69.88a2.26,2.26,0,0,0-.45,1.43c0,.07,0,.14.1.13s.07,0,.07-.09a1,1,0,0,1,.2-.72c.07-.07,0-.25.11-.21s.12.15.1.28,0,.22.17.16c.08.21.16.08.25,0s.23,0,.28.1,0,.17.08.15.22-.08.22-.13.17-.3.27-.41a4.9,4.9,0,0,1,1.41-1.11c0-.11.09-.23.25-.13s.12,0,.17,0,.2-.22.26,0-.18.09-.3.06-.07,0-.1.06a.37.37,0,0,0,.06.07.17.17,0,0,0,.23,0s.08-.06.14,0,0,0,0,0a.37.37,0,0,1-.13.05c-.15,0-.3.18-.45,0h0c0,.09,0,.18-.13.23a.71.71,0,0,0-.37.45v0c-.28.08-.35.56-.76.41,0,0-.07,0-.1,0s0,.07,0,.07c.18,0,0,.14,0,.22v.08l.09,0c.14,0,.23-.34.42-.05,0,0,.09,0,.13-.05.24-.28.47-.56.72-.83a.8.8,0,0,1,.82-.31,3.84,3.84,0,0,0,1.1,0A12.46,12.46,0,0,0,112,69.3a7.12,7.12,0,0,1,3.13.14c.21,0,.23.3.51.36.94.17,1.82.57,2.79.67.51,0,1,.09,1.53.16,0,0,.12,0,.12.07s0,.11.15.11a3.56,3.56,0,0,1,1.16.45,15.93,15.93,0,0,1,1.51.59.44.44,0,0,1,.23.46c0,.17-.16,0-.24,0a.85.85,0,0,0-.22.13,1.41,1.41,0,0,1-1.26.66c-.42-.05-.72.28-1.09.39-.21.06-.49.11-.58.26s-.49.17-.64.38-.55.1-.81.26-.37.37-.66.31c0,0,0,0-.07,0s-.28.28-.49.29-.42.06-.44.35c0,.06-.11.12-.18.16s-.11,0-.11,0c0-.2-.14-.06-.2,0s-.4,0-.62.08a1.58,1.58,0,0,1-.86.19c-.29,0-.51.33-.71.31-.59-.07-1,.4-1.59.35-.17,0-.38.24-.54.21a1.35,1.35,0,0,0-.86.24,2.2,2.2,0,0,1-1,.25c-.47,0-.93.22-1.41.05a1.36,1.36,0,0,0-.66.08c-.23,0-.46-.09-.71,0s-.42,0-.63-.14-.34-.3-.62-.27a2.38,2.38,0,0,1-2.12-.83,2,2,0,0,1-.35-.7.31.31,0,0,0-.33-.16,1.28,1.28,0,0,0-.34.3c-.08.08,0,.14,0,.18a3.55,3.55,0,0,1,1.22,1.6c.18.36.65.41.79.84.05.16.46.19.71.28.06,0,.16,0,.12.11s0,.23.18.27l.16.06-.14,0,0,0s0,0,.06,0c.53,0,.92.4,1.45.43s1,.21,1.49.21a11.21,11.21,0,0,1,1.15.09c.07,0,.19,0,.18.13s-.09.12-.18.15-.26-.09-.4-.06a6,6,0,0,1-1.49.05c-.06,0-.19-.06-.17.08s.11.09.19.08a4.72,4.72,0,0,1,.91,0,8.44,8.44,0,0,0,1.77,0,10.31,10.31,0,0,0,3.28-.93c.28-.15.67-.1,1-.25.05.13.31-.33.26.09,0,0,0,0,0,0,.38-.06.76-.09,1.13-.19s.72-.26,1.08-.38a9.37,9.37,0,0,0,1.83-.69c.11-.06.29-.17.37,0s-.13.18-.22.22c-.72.3-1.45.59-2.18.88-.05,0-.14.08-.13.1s.1,0,.15,0c.34-.14.73-.13,1.07-.31.09,0,.34-.09.43.08s.24.06.35,0,.21-.06.09-.2,0-.08,0-.06c.34.15.56-.09.85-.19.9-.3,1.76-.68,2.63-1,1.07-.45,2.11-1,3.16-1.5.18-.09.35-.22.53-.32s.51-.38.67-.32c.37.13.58.53.8.83a9.07,9.07,0,0,0,.83,1,3.38,3.38,0,0,0,1,.7c.53.25,1,.55,1.55.84.15.09.39.1.42.29s-.18.23-.3.3c-.39.22-.79.41-1.19.61-.15.08-.29.18-.44.27a6.55,6.55,0,0,0-.84.53l-.51.44s-.1,0-.15,0-.13.06-.08.08.31.14.38.09a1.92,1.92,0,0,1,.75-.38c.13,0,.06-.21.22-.25a5.41,5.41,0,0,0,.77-.32c.1,0,.27-.12.28-.2,0-.29.27-.19.41-.27s0,0,.07,0,0,0,0,.05l-.08,0s.06,0,.09,0,.11.1.12.18-.08.07-.14.09a.48.48,0,0,0-.19.09,5.59,5.59,0,0,1-.85.65c-.3.15-.62.25-.93.42a6.09,6.09,0,0,0-.64.54c-.37.28-.72.58-1.23.44a15.91,15.91,0,0,1-2.91-1.3,15.06,15.06,0,0,0-1.58-.7,8.08,8.08,0,0,0-3.31-.21c-.2,0-.39.11-.58.13a9.24,9.24,0,0,0-1.55.29,7.78,7.78,0,0,0-1.5.54c-.43.23-.89.39-1.32.63s-.54.46-.84.63a6.61,6.61,0,0,0-1.61,1.65,5.56,5.56,0,0,0-.79,1.29c-.08.16-.28.27-.25.44s-.25.38-.32.6-.37.12-.42.27a.57.57,0,0,1-.63.39s-.18,0-.11,0c.25.24-.06.6.21.83a.45.45,0,0,1,.12.22c.13.43,0,.92.34,1.31.08.09.12.34,0,.39s-.13.16-.09.25c.17.34.44.6.42,1.07,0,.23-.1.17-.17.21s-.06.05,0,.09a5.54,5.54,0,0,1,.79,1c.06.07.15.2.21.19.31,0,.53.13.49.36,0,0,0,0,.07,0,.4.2.87-.15,1.3.23s.76.16,1.16.14c.15,0,.15.21.31.18s.38-.18.58,0a.71.71,0,0,0,.35.08s.1-.09.15,0,0,.08,0,.08a.37.37,0,0,1-.15.07l-.7.07s-.05,0-.08.07.05,0,.08,0a6.12,6.12,0,0,0,2-.29,14.94,14.94,0,0,0,2.18-.86c.1-.06.26,0,.37-.1L122,91.06c.55-.35,1.1-.7,1.64-1.06a14.34,14.34,0,0,1,1.2-.86c.75-.4,1.41-.92,2.17-1.3.42-.22.8-.52,1.23-.75a1.2,1.2,0,0,0,.35-.21,7.22,7.22,0,0,1,.84-.66c.06.11.06.25.19.34s.06.19,0,.26l-1,.69a.36.36,0,0,0-.06.07s.07,0,.08,0a2.17,2.17,0,0,1,.55-.33c.42-.1.62-.92,1.29-.28a6.93,6.93,0,0,0,1.16,1s0,.12,0,.14-.28.3-.4.34a12.69,12.69,0,0,0-1.87,1c-.43.23-1,.32-1.31.75,0,0-.07,0-.11,0a2.24,2.24,0,0,0-.83.37c-.21.21-.42.59-.64.6s-.45.29-.6.41-.61.49-.89.77a8.28,8.28,0,0,0-1,1.14,3.11,3.11,0,0,0-.48,1.23,3.31,3.31,0,0,0-.14,1.29c.13.71.2,1.44.39,2.14,0,.17,0,.47,0,.51.3.14.34.41.43.66a5.53,5.53,0,0,0,.52.86,5.05,5.05,0,0,0,1,1.29,2.74,2.74,0,0,0,1.67.82,8.67,8.67,0,0,1,2,.49c.21.06.51,0,.59.28a6.12,6.12,0,0,1,.42,1.19.29.29,0,0,0,.24.26c.06,0,.12,0,.12.11a3.86,3.86,0,0,0,.77,1.84c.19.3.51.57.65.84a5,5,0,0,0,.74,1c.29.35.52.83,1,1,0,0,0,0,0,0-.21.21.06.12.11.17s.31.08.35.29.51.23.65.52c0,.07.07.54.38.17,0,0,.07,0,.08,0a1.37,1.37,0,0,1,.37.54c.05.2.31.24.49.22.5-.06.73-.69,1.3-.62a.13.13,0,0,0,0-.08c-.09-.24.06-.2.2-.17s.16,0,.16-.1c0-.34-.41-.56-.48-.56-.44,0-.42-.67-.89-.54,0-.48-.69-.33-.8-.82-.06-.26-.45-.44-.69-.65a.74.74,0,0,1-.18-.34s0,0,0,0c-.2,0-.2-.26-.35-.34s-.21-.43-.48-.55-.15-.35-.26-.5a12,12,0,0,1-1.06-1.8c-.16-.34-.29-.69-.43-1-.22-.54-.16-.62.37-.81.36-.13.85-.13,1-.66,0,0,.06,0,.09-.07s0,.09,0,.12,0,.09.07.06l.82-.58a3.38,3.38,0,0,0,.72-.89c0-.05.18-.06.1-.15s-.12,0-.18.06-.2.23-.38.13-.09-.2-.07-.28a.79.79,0,0,1,.17-.28c.1-.14.14-.23-.09-.27s-.26-.21-.22-.28a.7.7,0,0,0-.14-.81,5.39,5.39,0,0,1-.4-.89.88.88,0,0,0-1-.54.32.32,0,0,1-.28,0c-.2-.22-.4-.35-.7-.17-.06,0-.18.07-.19-.08s-.05-.1-.08-.05-.22.08-.34,0a.26.26,0,0,0-.39.05.35.35,0,0,1-.4.13c-.13,0-.3-.09-.37.11a.33.33,0,0,1-.27.25,1.46,1.46,0,0,0-1,.9c-.05.09,0,.1.06.11s.1,0,0,.08-.12.12,0,.22a.17.17,0,0,1,0,.27,1,1,0,0,0-.28,1c0,.23.12.38-.18.38s-.4.11-.6-.06a.77.77,0,0,0-.53-.17c-.58.06-.9-.33-1.28-.63-.07-.05-.09-.13.05-.13s.07,0,.1,0l-.11,0s-.13-.08-.13-.1.08,0,.12,0,.1-.11.06-.19-.23-.22-.22-.42a5.6,5.6,0,0,1,.32-1.24c.12-.44.53-.62.86-.87.16-.13.27-.31.44-.43s.4-.2.58-.3c.48-.28.87-.72,1.34-1s1.21-.67,1.81-1c.41-.22.84-.43,1.24-.68.24-.15.62-.23.7-.36a1.35,1.35,0,0,1,1-.54,10.18,10.18,0,0,0,1.26-.44,2.16,2.16,0,0,1,1.76-.1c.09,0,.3.17.36,0s.06-.09.12-.07c.46.1.74.49,1.11.72a9.56,9.56,0,0,1,1.06.76c.06.05.24,0,.26.06.18.36.58.36.86.53s.53.57,1,.63c.24,0,.48.19.76.26a3.31,3.31,0,0,0,1.07,0c.09,0,.43.29.31-.17,0,0,.07-.06.11-.07a3.55,3.55,0,0,0,.38-.08l2-.8c.09,0,.28,0,.25-.11s-.2,0-.3,0-.18,0-.21-.08.06-.15.13-.16c.59,0,.74-.68,1.2-.88,0,0,0,0,0,0a3.47,3.47,0,0,0,.57-1.9,1.71,1.71,0,0,0-.4-1.19.32.32,0,0,1-.09-.22.9.9,0,0,0-.62-.9c-.13,0-.27,0-.4-.06-.53-.19-.88-.7-1.46-.84-.18,0-.34.06-.52,0-.67-.32-1.41-.43-2.1-.73a3.08,3.08,0,0,0-1.17-.31c-.65,0-1.28.06-1.91.1a15.16,15.16,0,0,1-1.62.33,2.84,2.84,0,0,0-.65.1c-.37.08-.6.41-1,.41-.13,0-.38,0-.48.18,0,0-.16,0-.24,0s-.06,0,0-.05,0-.16.07-.15a.71.71,0,0,0,.57-.26.43.43,0,0,0,.06-.09s-.08-.05-.11,0a2.34,2.34,0,0,0-.85.27c-.26.18-.63.16-.84.45a.26.26,0,0,1-.25,0c-.52-.31-1-.62-1.53-1-.29-.21-.5-.54-.9-.6-.14,0-.16-.17,0-.26l2.06-1.23c.06,0,.23,0,.16-.13s-.15,0-.23.07a10.62,10.62,0,0,1-1.61.81.79.79,0,0,0-.62.43c0,.12-.18,0-.24,0a1.09,1.09,0,0,1-.17-.25c.08,0,.08-.13.19-.17s.39.07.41-.16a.25.25,0,0,1,.15-.23c.16-.11.49.05.5-.31,0,0,.06-.08.1-.09.38,0,.6-.36.93-.5a7,7,0,0,1,1.65-.77,4.24,4.24,0,0,0,1.18-.61c.28-.16.52-.4.91-.28.18.06-.07.25.09.19.42-.15.74.15,1,.29a18.67,18.67,0,0,0,2.6,1,1.29,1.29,0,0,0,.42.11c.44,0,.88,0,1.31,0a18.39,18.39,0,0,1,2,.24c.53.08,1.12-.11,1.59.3,0,0,.07,0,.07,0s0-.1.11-.09a12.53,12.53,0,0,0,2.37,0c1.16-.12,2.32-.21,3.46-.42a16.91,16.91,0,0,0,2.8-.8c.84-.31,1.64-.72,2.46-1.09l.06,0-.07,0c-.08,0-.16.11-.26,0,.13,0,.15-.21.24-.25a5.33,5.33,0,0,0,1.66-1.28c.09-.09.22-.27.18-.35A1.67,1.67,0,0,1,159.54,78.77Zm-24-9.23a2.44,2.44,0,0,1,.41-.15c.37-.09.59-.47,1-.5.07,0,.12-.06.14.06s-.22.24-.34.26a10.19,10.19,0,0,0-1.14.42l-.15,0S135.51,69.56,135.55,69.54Zm-9.37-8.42-.67-.23a.18.18,0,0,1,0-.07,1.09,1.09,0,0,1,.59.16l.13.1Zm-6.12,16.61s-.09,0-.13-.07l.31-.22s.06,0,.08,0A3.36,3.36,0,0,1,120.05,77.73Zm5.36-2.43a.23.23,0,0,0-.23,0l.12.05s0,0,0,0-.07,0-.11,0c-.23-.06-.36.15-.53.21-.34.11-.56.39-.91.48s-.44.26-.71.3a1.94,1.94,0,0,1-.24,0s-.13,0-.14,0,.05,0,.09.06,0,.05,0,.07l-1.41.52a.55.55,0,0,1-.17,0,.63.63,0,0,1,.11-.1c.48-.25,1-.47,1.46-.73.27-.15.61-.1.82-.35,0,0,.14,0,.21,0l.15,0-.09-.08c.1-.07.19-.14.3-.19s.52-.09.76-.23,0-.3.2-.23.31-.29.38.07a.36.36,0,0,0,.05.1A.38.38,0,0,1,125.41,75.3Zm-8.9,8.79-.32.22s0-.06,0-.07l.3-.19Zm-.27-.17.12,0-.26.23s-.08-.06-.08-.06S116.12,83.92,116.25,83.93ZM123.74,85c0,.07-.09,0-.13,0l-.08,0c-.07.4-.47.46-.71.66s-.78.48-1.13.78-.63.43-.94.66-.36.32-.54.48c0,0-.05.07-.07.06-.42-.1-.6.28-.89.44a17.88,17.88,0,0,1-2.05,1.15c-.5.18-1,.34-1.5.5-.06,0-.14,0-.2,0s.07-.13.12-.15a7.17,7.17,0,0,0,1.32-.61,3.33,3.33,0,0,1,.48-.18s0,0,0-.06-.23-.12-.33-.1-.36,0-.5.21-.37,0-.58.09a3.87,3.87,0,0,0-1.24.75c-.05.06-.09.05-.09,0s0-.07-.06-.07a7.59,7.59,0,0,1-1.4-.14.59.59,0,0,0-.53.21c0,.06-.15,0-.14,0,.11-.31-.18-.51-.2-.74a1.11,1.11,0,0,1,.28-.92,5.06,5.06,0,0,0,.66-1.05c0-.07,0-.21.18-.14s.05,0,0,0a.89.89,0,0,1,.63-.85c.11,0,.22-.15.3-.25.27-.34.5-.71.78-1a.81.81,0,0,1,.61-.27.11.11,0,0,1,.07,0s0,.06,0,.06c-.5.24-.69.76-1,1.13.3,0,.34-.27.48-.41.35-.36.83-.54,1.21-.86,0,0,.07,0,.11,0l-.07.06-.9.75s0,.1-.07.15a.74.74,0,0,0,.13-.07,1.86,1.86,0,0,1,.28-.24,2.6,2.6,0,0,0,.41-.16c.33-.24.67-.46,1-.67a12.26,12.26,0,0,1,1.88-.84,4.29,4.29,0,0,1,1.35-.41,7.1,7.1,0,0,1,1.49,0,2.27,2.27,0,0,0,.55,0c.1,0,.05,0,.07.09s.1.27.25.08.06-.08.11,0,0,.06,0,.1-.15.19-.12.24.14,0,.22,0,.38,0,.46.2l0,0,0-.06s0-.14.11-.1a.1.1,0,0,1,0,.17c-.06.08,0,.09.08.13s.06.09,0,.08c-.36-.13-.1.18-.16.27a1.68,1.68,0,0,1-.5.47c-.23.13-.45.27-.67.41,0,0,0,.06,0,.06.18,0,.31.23.51.14a4.26,4.26,0,0,0,.45-.27c.05,0,.13-.11.16,0S123.77,84.91,123.74,85Zm.26-.21a1.59,1.59,0,0,1-.16-.16s0-.07,0-.05c.16,0,.2.06.21.14S124,84.76,124,84.79ZM125.91,98a.46.46,0,0,1-.07.13c-.15,0-.14,0-.11-.07s0-.16.09-.15S125.93,97.91,125.91,98Zm.23-1.31a5.8,5.8,0,0,1-.21,1c0,.07,0,.13-.11.14s-.1,0-.12-.12a2.07,2.07,0,0,1,.07-1.41c0-.09.11-.1.21-.08C126.33,96.22,126.15,96.53,126.14,96.67Zm12.93-7.62a2.22,2.22,0,0,1,.7-.25,8.18,8.18,0,0,0,1.66-.28c.13,0,.22.21.38.08l.07-.06-.09,0-.15,0,0-.05c.06-.06.11-.16.21-.09a.26.26,0,0,0,.3,0c.12-.06.32-.13.26.16,0,.12.05.13.13.1a2.07,2.07,0,0,1,1.72,0,11,11,0,0,0,1.57.72.14.14,0,0,1,.1.19c0,.1-.1,0-.16,0a.22.22,0,0,0-.11,0s0,.06,0,.06c.23.19,0,.29-.1.35-.35.21-.72.38-1,.51s-.39,0-.49.14a.38.38,0,0,1-.32.13c-.34-.11-.57.12-.84.22a2.08,2.08,0,0,1-1.94-.19c-.39-.25-.79-.46-1.19-.69l-.08,0c.08-.36-.31-.27-.42-.43s0-.06,0-.07a.12.12,0,0,1,.08-.05l1.35-.32c.07,0,.12-.06.1-.12s-.13-.1-.2-.08l-1.42.35c-.06,0-.11.08-.18,0a1.74,1.74,0,0,0-.18-.18Zm-4,1.74.16-.08c.05,0,.1-.14.16-.05s-.08.13-.12.12,0,.2-.17.21-.14,0-.15-.09S135,90.82,135.09,90.79Zm22.2-12.54c-.49.27-.76.8-1.26,1.06s-1.18.5-1.75.77a17.46,17.46,0,0,1-3.44,1c-.53.13-1.08.08-1.58.17a19.22,19.22,0,0,0-2,.22,2.32,2.32,0,0,1-.64,0H145c-.19,0-.33-.38-.59-.08a.22.22,0,0,1-.35-.16.34.34,0,0,0-.24,0,3.48,3.48,0,0,1-1.68,0,4.32,4.32,0,0,1-.89-.13,5.33,5.33,0,0,0-1.5-.23s-.09,0-.13-.07a1,1,0,0,1,.24-.19,14.56,14.56,0,0,0,1.57-.8c.06,0,.1-.1.15-.16a1,1,0,0,0-.19.05l-1.92,1a.68.68,0,0,1-.48,0s0-.07-.07-.1c.33-.14.31-.72.85-.64.29,0,.44-.37.75-.45a21.1,21.1,0,0,0,2-1.08,15.5,15.5,0,0,0,1.61-.93c.28-.15.51-.36.79-.48a17.39,17.39,0,0,0,1.71-.68,14.1,14.1,0,0,1,1.42-.66,5.56,5.56,0,0,1,1.93-.49,15,15,0,0,1,1.74.22h.27a.29.29,0,0,0-.22-.19h-.14L151.3,75v0c.15,0,.28-.09.44,0s.51.11.77.16c0-.25.35.09.4-.25,0-.15.5-.08.77-.13l.17,0s0,0,0-.05h-.17l-.63.06a1.23,1.23,0,0,1-.23,0l.22-.11a.52.52,0,0,1,.15,0c0-.06.22.15.16-.09,0,0-.13-.07-.19-.1l-.08-.06h.1l.55.05.05,0c.18-.11.36,0,.54,0s.59.25.72.24a1.52,1.52,0,0,1,1.1.41c.09.06.09.06,0,.12s0,0,.05.14.17.06.09.15a.2.2,0,0,1-.2,0c-.14-.13-.31,0-.45-.06s0,0-.06,0a.42.42,0,0,0,.11.06,2,2,0,0,1,1.5.75c.09.13.05.34.08.5a10.28,10.28,0,0,1,.05,1.12c0,.05,0,.08,0,.11s-.22.07-.17.14.1-.06.16-.07h.05C157.33,78.15,157.33,78.23,157.29,78.25Z"/><path class="b" d="M209.66,19c-.26-.09-.5-.16-.75-.22a1.08,1.08,0,0,0-1.38-.59c-.45.17-.88.35-1.29.54a5.12,5.12,0,0,0-1.42.63,1.32,1.32,0,0,0-1.82,0c-2.77,2.69-5.15,5.32-6.54,8.88a1.19,1.19,0,0,0-1.9.69,35.4,35.4,0,0,1-2.19,6.55,1.25,1.25,0,0,0-.63.31l-.43.39a1.16,1.16,0,0,0-.4.72c-4.5,6-10.73,9.4-17.24,13-1.38.77-.4,2.7,1,2.43a27.47,27.47,0,0,0,20.17-15.63l.62-1a1.16,1.16,0,0,0,1.2-.62l5.39-9.53a1.19,1.19,0,0,0,.07-1,1.28,1.28,0,0,0,1-.14c1.77-1,3.47-2,5.15-3.16a1.3,1.3,0,0,0,.62-1,1.05,1.05,0,0,0,.23-.73c.19,0,.36-.12.56-.15S209.8,19,209.66,19Z"/><path class="b" d="M29.13,44.75a41.77,41.77,0,0,0,6.54-.85c1.4-.23,2.8-.54,4.19-.81l3.39-.62c.17,0,.47-.09.49.05s-.26.14-.4.2c-1.68.66-3.49.91-5.17,1.58a1,1,0,0,1-.28.08c-2.49.18-4.92.92-7.43.78A5,5,0,0,1,29,45a1.69,1.69,0,0,1-.24-.13c.09-.18.23-.14.33-.14m3.87-1c.95-.2,1.88-.45,2.82-.68s1.69-.55,2.57-.72c0,0,.14-.2.17,0s0,.31.35.2a37.7,37.7,0,0,1,4.95-1.2,5.48,5.48,0,0,1,1.31,0c.08,0,.22,0,.21.13s-.12.13-.18.12c-1.87-.2-3.51.65-5.24,1.08s-3.44.6-5.16.89c-.7.12-1.39.28-2.09.42l-.23,0v-.13a3.61,3.61,0,0,1,.54-.2m16.17-2a15.35,15.35,0,0,0,2.18-.62,1.41,1.41,0,0,0,.52.15h0a4.35,4.35,0,0,1-2.71.6l-.16,0a.59.59,0,0,1,.18-.11m5.52-4a4.93,4.93,0,0,1,1.94-1c-.48.64-1.27.74-1.91,1.1a.43.43,0,0,1-.17,0,1.28,1.28,0,0,1,.14-.16m21.07-7.18c.45-.14.9-.32,1.36-.43s.89-.42,1.52.07a3.64,3.64,0,0,0,2.09.47,19.74,19.74,0,0,1,3.24.18c1.52.23,3,.49,4.57.68a13.76,13.76,0,0,1,3.33.78,3.07,3.07,0,0,1,.45.27c-.18.22-.3-.05-.46-.06-.81,0-1.62-.15-2.42-.15a24.25,24.25,0,0,1-4-.53C84,31.57,82.54,31.1,81,31a44.37,44.37,0,0,0-5.35-.14c-.11,0-.29.1-.32-.22l.38-.11M95.34,34a1,1,0,0,1,.17.07,4.62,4.62,0,0,0,1.13.3c.14,0,.3.12.26.27s-.2,0-.3,0a25.42,25.42,0,0,0-4.22-.22A23.78,23.78,0,0,1,89.7,34a5.11,5.11,0,0,1-1.52-.56c-.06,0-.15-.1-.15-.15s.11-.09.18-.08a42.06,42.06,0,0,1,7.12.77m6,2.07a13.43,13.43,0,0,1,2.45,1.87c.27.27.5.57,1,.54a.67.67,0,0,1,.64.45c0,.17-.06.3-.27.29a.42.42,0,0,0-.26-.52s-.07,0-.11,0c0,.2.18.28.25.44l0,.05.09,0-.09,0a22.65,22.65,0,0,1-3.06-2.41c-.25-.2-.54-.33-.78-.53-.08-.07-.23-.1-.2-.26a1.15,1.15,0,0,1,.33.09M105,41.63c.18.26.49-.42.7.16A2.9,2.9,0,0,0,107,43.06c.09.06.27.1.22.23s-.2,0-.26,0a6.73,6.73,0,0,1-1.49-1.15,1.22,1.22,0,0,1-.22-.21c-.11-.14-.36-.1-.41-.31.05,0,.14,0,.16,0m3.61-.86c.52.18,1.13,0,1.6.35.06,0,.16.11.16.16s-.16.11-.24.09a7.21,7.21,0,0,1-1.56-.36l-.74-.33a1.25,1.25,0,0,1,.8.1m5.84,2.05a14.26,14.26,0,0,1,5.48,1.2,1.86,1.86,0,0,1,1.25,1.15s.09.1.13.09c.91-.25,1,.89,1.74,1,.07,0,.15.22.07.24a1.21,1.21,0,0,1-.44,0c-.08.4,0,.62.49.55.11,0,.33,0,.29.08s.11.39.05.53-.3,0-.43-.06c-.68-.41-1.34-.84-2-1.26a35.57,35.57,0,0,0-6.26-3.14,3.78,3.78,0,0,1-.39-.16c-.07,0-.23,0-.18-.17s.14,0,.22,0m2.17-1.17a2.6,2.6,0,0,1,2.17.16c.61,0,1,.63,1.64.8.11,0,.24.12.1.26s-.14.29-.37.19-.72-.21-1.05-.38A8.3,8.3,0,0,0,116.7,42c-.18,0-.45,0-.47-.18s.25-.16.4-.21m11,6.74c.21.14.13.37,0,.53-.22.34-.49.07-.74,0s-.57-.4-.8-.68-.66-.78-1-1.17c-.07-.09-.17-.18-.1-.29l.07,0,.06,0a.44.44,0,0,1,.14.07c.79.52,1.58,1,2.35,1.58m-7.56.23-1.81-.9a3,3,0,0,1-1.17-.89,2.17,2.17,0,0,0-.93-.61c-.11-.05-.32-.07-.32-.2l.09-.08,0,0c.07,0,.16.14.23.13a.58.58,0,0,0,.58.13.49.49,0,0,1,.45.08,25.78,25.78,0,0,1,2.93,2.23c.06.06.22.1.16.21s-.16,0-.24-.06m8.09,1.25c.24-.21.43.08.59.23a9.2,9.2,0,0,0,3.63,1.76c2,.64,3.42-.41,5-1.24.35-.19.71-.35,1-.56s.35-.33,0-.44-.27-.21,0-.37.18-.15.28-.22.36-.41.46-.15.67.45.27.9a2.52,2.52,0,0,1-.78.63c-1.42.69-2.86,1.35-4.29,2a2.49,2.49,0,0,1-1.69.07c-.83-.2-1.64-.48-2.45-.73a3.61,3.61,0,0,1-1.86-1.23c-.16-.2-.36-.48-.12-.69m16.72-4.28c.05,0,.1-.07.15-.09.27-.1.73-.35.81-.19.18.35-.32.37-.5.57a27.18,27.18,0,0,1-2.15,1.92c-.06.06-.13.18-.25.1s0-.11,0-.17c.43-.33.54-1,1.07-1.17s.33-.85.86-1m.88,1.19s0,.15,0,.22a5.16,5.16,0,0,1-1.32,1.59,19.13,19.13,0,0,0-2.63,3,3.18,3.18,0,0,1-.79.71c-.07.06-.17.16-.25.07s0-.18,0-.24a1.27,1.27,0,0,1,.11-.18c1.23-1.35,2.11-3,3.57-4.14.37-.29.72-.62,1.09-.93.06-.05.14-.18.23-.07m-3.44,5.79c-.08.08-.12,0-.11-.11A5.36,5.36,0,0,1,144,50.91l.09,0a.39.39,0,0,1,0,.14,12.23,12.23,0,0,1-1.71,1.54M148,45.48a.3.3,0,0,1,0,.48,14.12,14.12,0,0,1-1.35,1c-.25.16-.36,0-.34-.27A3.21,3.21,0,0,1,148,45.48m3.29-2.27a4.1,4.1,0,0,1,2.76-.42l.15.07s-.08.06-.13.06a13.55,13.55,0,0,0-2.74.44.71.71,0,0,1-.22,0,1.29,1.29,0,0,1,.17-.13m4,.85a16.14,16.14,0,0,1,2.49.37c.09,0,.22.1.22.16s-.18.13-.27.14a2.9,2.9,0,0,1-1.38-.25,3.53,3.53,0,0,0-1-.22c-.09,0-.25-.08-.25-.11s.16-.1.23-.08m6.74.82c1.51.81,2.87,1.88,4.38,2.67a6.82,6.82,0,0,0,3.46,1.05,2,2,0,0,1,1.4.27.35.35,0,0,1-.43.21,17,17,0,0,1-3.8-.83,20.36,20.36,0,0,1-3.12-1.88c-.71-.52-1.52-.9-2.28-1.36-.46-.28-1-.42-1.31-.93a8.38,8.38,0,0,0,1.69.79m10.27,3.75c.16,0,.37.06.36.23s-.22.11-.36.11a2,2,0,0,1-1-.09,3.41,3.41,0,0,1,1-.25m9.4-2.51A1.32,1.32,0,0,1,182,46c.07,0,.19,0,.21,0s0,.13-.09.18a19,19,0,0,1-4.63,2.75c-.14.06-.29.16-.45.08s0-.07,0-.13l.3-.16a31.39,31.39,0,0,0,4.41-2.57m.55,1.54c.05,0,.1.08.15.08s.54-.17.54.11-.44.33-.66.51-.21.06-.19-.11.12-.36-.11-.39-.13.27-.25.36c-.57.46-1,1.16-1.77,1.32a1.22,1.22,0,0,0-.46.27,1.6,1.6,0,0,1-1.21.45c-.23,0-.51.29-.66,0,0-.08.39-.25.63-.33a12.64,12.64,0,0,0,3.28-2.09c.2-.14.4-.42.71-.17m8.11-7.34a18.67,18.67,0,0,0,3.55-3.72c.6-.91,1.32-1.73,1.92-2.64a18,18,0,0,1,1.32-1.9c.18-.21.72-.51.22-1,0,0,.11-.19.17-.3a27.62,27.62,0,0,1,3.1-4.44A12.7,12.7,0,0,0,202,24.22a8.77,8.77,0,0,1,2.68-2.73,22.67,22.67,0,0,1,3.23-1.66c.13-.07.33-.16.38-.09s-.09.27-.19.36a6,6,0,0,1-1.88,1.43c-.19.07-.34.2-.34.37,0,.56-.39.75-.8.95a2.1,2.1,0,0,0-.77.63c-.07.09-.41,1.11-.75.06-.09-.26-.41-.06-.55.08a2,2,0,0,0-.28.51,23.77,23.77,0,0,1-1.83,3.14,13,13,0,0,0-2.27,3.8,1.08,1.08,0,0,1-.48.56c-.49.34-.57.95-.92,1.39s-.94.77-.66,1.47a13.64,13.64,0,0,1-3.29,4.1,5.54,5.54,0,0,0-.76,1l-.29.34a1.29,1.29,0,0,0-.61.41l-.17.22-.23.1a7.46,7.46,0,0,0-2.78,2.07c-.59.61-1.16,1.25-1.69,1.92a1.16,1.16,0,0,1-1.21.49c-.38-.07-.67.32-1.07.26-.1,0-.24.13-.31,0s.09-.15.16-.22a30,30,0,0,1,3.1-2.58c1-.77,2-1.46,2.93-2.25M189,39.53a12.31,12.31,0,0,0,1.37-1.73,9.67,9.67,0,0,1,1.37-1.64,1,1,0,0,1,.16-.13c.12.1.05.16,0,.22a19.36,19.36,0,0,1-2.71,3.5c-.13.11-.32.35-.43.24s.12-.32.23-.46m2.61-1.8,2.22-3c.08-.11.19-.24.34-.15s0,.21,0,.28a9,9,0,0,1-1.57,2c-.27.34-.58.64-.88,1a.76.76,0,0,1-.19.11.66.66,0,0,1,.07-.21m6.45-9.26a32.12,32.12,0,0,0-1.84,3.4c-.21.48-.67.66-1,1,0,0-.11,0-.16,0v-.12c.41-.56.77-1.11,1.18-1.61.64-.79.94-1.78,1.52-2.61,0,0,0-.08,0-.11a1.29,1.29,0,0,1,.59-.54c0,.26-.22.39-.34.59m-4.82,5.29c.33-.73.73-1.43,1.07-2.17a3.87,3.87,0,0,1,1-1.71c.26-.19.23-.57.37-.83a20.44,20.44,0,0,1,1.85-2.83,28,28,0,0,1,3.92-4.55,18,18,0,0,1,3.08-2.39,21.88,21.88,0,0,1,2.58-.93l.14,0,.08.11-.24.16c-.77.45-1.64.69-2.43,1.08a7.07,7.07,0,0,0-2.33,2.49c-.37.5-.56,1.13-1.27,1.35a1.21,1.21,0,0,0-.7.85,3.64,3.64,0,0,1-1.67,2.15,6.82,6.82,0,0,0-1.88,2.55,20.71,20.71,0,0,1-2.47,3.19,5.85,5.85,0,0,0-.89,1.54.68.68,0,0,1-.47.42c.08-.15.16-.3.23-.46M188.9,46.19c-.32.34-.41.91-1.07.82-.19,0-.33.2-.42.38a1,1,0,0,1-.55.52c-.11,0-.3.18-.37,0s.14-.15.23-.23.49-.39.52-.62c.08-.63.66-.8,1-1.21s.45-.07.66,0,0,.21,0,.32m-12.7,4.71a12,12,0,0,1-2,.15s-.09-.07-.13-.1l.12-.1c.61-.54,1.36-.05,2-.28,0,0,.13.1.13.16s-.08.17-.13.17m34.37-32.52c.81-.47,1.59-1,2.43-1.41a10.72,10.72,0,0,0,2.93-2c.37-.38.95-.61,1.29-1,1-1.19,2.22-2.14,3.13-3.39a10.73,10.73,0,0,1,1.25-1.63l.18-.14c.09.12,0,.16-.08.23a32.63,32.63,0,0,0-1.32,3,3.41,3.41,0,0,1-.95,1.35,5.7,5.7,0,0,0-1.09,1.4,5.74,5.74,0,0,1-2.1,1.7,9.41,9.41,0,0,1-1.64.92,18.41,18.41,0,0,1-2,.68,13.57,13.57,0,0,0-2,.49.53.53,0,0,1-.23,0,1,1,0,0,1,0-.1l.14-.1m5.34.38a16.33,16.33,0,0,1-2.44,2.15c-.1.06-.22.26-.34.07s0-.27.12-.37c.54-.47.86-1.13,1.42-1.6a2.35,2.35,0,0,1,1.18-.53c.29.09.15.2.06.29M11.39,39.54a11.1,11.1,0,0,0,2,.86,1.4,1.4,0,0,1,.28.19c-.1.14-.22,0-.32,0a5.17,5.17,0,0,0-2.13,0c-.14,0-.37,0-.36.21s.21.15.35.18l1.85.46a.82.82,0,0,1,.19.1.64.64,0,0,1-.16,0c-.52,0-1,.29-1.56,0-.08,0-.22-.07-.26,0s.11.19.22.21c.56.08,1,.56,1.52.64.11,0,.32.12.28.26s-.29.13-.41.06a4.6,4.6,0,0,0-1.09-.48.68.68,0,0,0-.17,0,.6.6,0,0,0,.09.13c.1.08.35.09.3.22s-.27,0-.42,0-.28,0-.41.06-.31.18-.25.35.26.07.35,0a3.17,3.17,0,0,1,2.21.11,1.81,1.81,0,0,0,.49.11c.25-.6.6-.1.89-.09s.58.32.94.32a2.57,2.57,0,0,1,.67.19c-.21-.19-.41-.39-.62-.58s-.46-.2-.34-.4.34.06.52.11a.93.93,0,0,1,.22.1,15.55,15.55,0,0,0,5.07,1.39c.61.1,1.23.16,1.85.22a1.38,1.38,0,0,0,0,.23c-1.92,0-3.79-.41-5.63-.57a4.52,4.52,0,0,0,1.47.87c.9.25,1.76.61,2.64.91.11,0,.31.12.34-.08s-.18-.11-.29-.15l-.28-.07.14,0,2.38.67c.13,0,.26.14.29,0a1.56,1.56,0,0,0,.8,0,.9.9,0,0,0,.38,0c1-.23,2.06.14,3.12,0,.78-.08,1.56.13,2.36.08a29.58,29.58,0,0,1,3.14.07c.5,0,.9-.38,1.36-.34a13.51,13.51,0,0,0,4.28-.54c.65-.14,1.12-.77,1.8-.72a6.31,6.31,0,0,0,2.25-.64,20,20,0,0,1,3.47-.59,17.86,17.86,0,0,0,2.8-.35,11.77,11.77,0,0,0,3-1.19c.14-.08.29-.14.35-.31s0-.09-.1-.11-.15-.09,0-.17c1.09-.63,2.18-1.26,3.28-1.87a7,7,0,0,0,.7-.32c.13-.09.43-.18.48,0,.16.53.43.18.62.1l.33-.15A1.45,1.45,0,0,0,59.3,39l.32-.25a3.87,3.87,0,0,1,1-.34.32.32,0,0,0,.21-.11,2.54,2.54,0,0,1,1.81-1c.8-.17,1.35-.83,2.16-1a16.65,16.65,0,0,0,2.09-.9c1.42-.52,2.93-.73,4.32-1.37a24.45,24.45,0,0,1,4.14-1.3c2.85-.73,5.45.59,8.16,1a.91.91,0,0,1-.35,0c-.11,0-.27-.1-.31,0s.14.17.24.2l.86.26a2,2,0,0,0,.41.14l.28.06,3.35,1,.16,0a.57.57,0,0,1-.13.07c-.48.12-1,.23-1.44.36s-1.13-.06-.75.85c.11.26.12.33.4.29A4.39,4.39,0,0,1,87.94,37c.51.14.94-.23,1.4,0,.05,0,.09,0,.09-.09,0-.25.14-.38.32-.32a3.6,3.6,0,0,0,2.68,0,.36.36,0,0,1,.29,0,1.45,1.45,0,0,0,.91.14,11.65,11.65,0,0,1,5.53,1.39c.31.15.81.31.81.69a.52.52,0,0,0,.28.53,30.13,30.13,0,0,1,6.19,5.58c1.14,1.34,4.13,2.69,6.25,1.22.19-.14.41-.3.37-.5s-.32,0-.49,0-.29.11-.34-.1.15-.21.26-.22a3.93,3.93,0,0,1,2,.51c.56.27.81,1,1.46,1.09a2.58,2.58,0,0,1,.91.41c1.3.8,2.42,1.84,3.64,2.75a9.85,9.85,0,0,0,2.61,1.71,10.22,10.22,0,0,1,2.26,1.36,3.5,3.5,0,0,0,.76.31l.27.13A35.91,35.91,0,0,0,130.1,55a5.59,5.59,0,0,1,1.94.62c.77.58,1.7.24,2.55.38l-.08-.07a1,1,0,0,0,.49-.06l0,.09c.54,0,1.16.23,1.5-.47,0-.07.23-.11.33-.09.53.15.89-.42,1.42-.32.2,0,.51,0,.42-.37l.34-.07a2.24,2.24,0,0,0,.47,0,2.47,2.47,0,0,0,.53.08l-.08.07c-.1.09-.23.22-.15.36s.24,0,.37,0a2.41,2.41,0,0,0,.94-.61l.17-.08a.52.52,0,0,0,.25-.28,13.15,13.15,0,0,0,2.84-2.83,17.11,17.11,0,0,1,2-2.71s.06-.23.2-.1.22.21.43,0,.8-.44,1-.92c.06-.17.34-.18.54-.12s.18,0,.26-.1c.26-.19.49-.4.76-.58s.4-.42.61-.33c1,.43,1.93.11,2.9.17a15.77,15.77,0,0,1,3.89,1c1.18.37,2.3.88,3.43,1.37a14.35,14.35,0,0,0,1.49.4c1.45.45,2.87,1,4.34,1.39a36.54,36.54,0,0,0,4,1.19,7.48,7.48,0,0,1,2.06.88,4.49,4.49,0,0,0,2.23.48c.82-.07,1.66-.07,2.48-.18.23,0,.67.08.65-.23s-.37.06-.57-.06a2.07,2.07,0,0,0-.26-.12,1.28,1.28,0,0,1,.25-.12c.23,0,.57,0,.68-.13a.8.8,0,0,1,1.2,0c.42.49.64.12.89-.07s.77-.45,1-.24.52.18.8.11L183,52a4.56,4.56,0,0,1-2.68,1c-.48.05-.94.48-1.48.15-.1-.06-.27.19-.3.38s.09.29.27.29c.44,0,.87,0,1.31,0a.3.3,0,0,0,.29-.17c0-.1-.25-.18,0-.25s.2.12.23.23c.14.51.46.36.79.24a5.94,5.94,0,0,1,1-.44c1.16-.23,2.1-1,3.25-1.28a.33.33,0,0,0,.14-.1c.09-.09.1-.22-.06-.18s-.26-.18-.31-.3-.39.23-.19-.12c.07-.12.32-.13.48-.21s.38-.24.28-.39-.35-.07-.49.09-.25.2-.24-.05c0-.75-.31-.33-.53-.16a8.7,8.7,0,0,1-1.41,1.14c-.06-.6.31-.84.79-1.08a2.14,2.14,0,0,0,1.22-1.42c0-.18.22-.31.34-.14.42.59.73.28,1.1-.06.12-.11.29-.41.47-.2s-.07.36-.24.52-.78.31-1.07.62a1,1,0,0,0-.12.18.74.74,0,0,0,.21,0A16.11,16.11,0,0,0,189,49a7.37,7.37,0,0,0,1.82-1.83c.58-.63.67-1.52,1.34-2.06a.07.07,0,0,0,0-.06c-.11-.83.64-1.28.88-2a6.77,6.77,0,0,1,1.35-2.5c.39-.4.54-.95,1-1.32a3.27,3.27,0,0,0,1.2-1.82c0-.18-.16-.43.17-.55s.36-.41.29-.74a1.71,1.71,0,0,1,1-1.35,4.86,4.86,0,0,0,1.45-1.67,3.94,3.94,0,0,1,.39-1.24,6.48,6.48,0,0,1,.82-1.23,10.92,10.92,0,0,1,1.63-2.19,3.86,3.86,0,0,0,1.57-2.27,1.27,1.27,0,0,1,.93-.91.92.92,0,0,0,.78-1,.19.19,0,0,1,.17-.21,7.49,7.49,0,0,0,.94-.46c.13-.91.83-.78,1.45-.81.15,0,.39.05.31-.27,0-.13.12-.19.25-.2.75-.09,1.46-.39,2.19-.54a10,10,0,0,1,1.38-.47c.14,0,.29-.27.44-.06s0,.34-.17.46a1.29,1.29,0,0,0-.57,1c0,.12-.12.3.06.37s.24-.09.34-.18c.53-.46,1-.94,1.6-1.37a20.62,20.62,0,0,0,4.06-4.22c.49-.67.76-1.48,1.52-2a4,4,0,0,0,1.8-3.12,2.82,2.82,0,0,1,.78-1.55,9.41,9.41,0,0,0,1.59-2.11,4.69,4.69,0,0,1,1.67-1.89c.66-.43.79-1.21,1.27-1.76.34-.39.48-.88,1.13-.8.26,0,.46-.09.17-.37a.87.87,0,0,1-.7-.22c.26-.16.51,0,.77,0,.61.24.69-.26.81-.61a.74.74,0,0,0-.26-.75c-.22-.22-.45.06-.63.05-.67,0-.61,1-1.33.8a14.51,14.51,0,0,0-2.1,2.5,1.73,1.73,0,0,1-.46.51c-.1-.3.2-.38.31-.57s.43-.49.19-.73-.53,0-.76.2a10.75,10.75,0,0,0-2,2.06c-.1.14-.26.33-.4.33h-.07l.43-.81q2.21-2.91,4.17-6c.23-.36-.31-.74-.53-.38q-1,1.63-2.13,3.2a8.9,8.9,0,0,0,.24-.9h0l0-.09c.07-.37-.52-.49-.64-.14a29.81,29.81,0,0,1-1.41,3.41c-.21.34-.43.69-.65,1-.18,0-.26.14-.33.29a10.75,10.75,0,0,1-1.37,2.23,11,11,0,0,1-2,2.37,6.26,6.26,0,0,0-2.29,2.36c0,.1-.14.18-.23.15-.57-.21-.84.28-1.24.49s-.67.72-1.09.8a8,8,0,0,0-1.11.32,5.74,5.74,0,0,1-2,.6c-.69,0-.82.62-1.34.74-.26.06.13.26.12.4s-.15.07-.23,0c-.37-.15-.74-.29-1.1-.46a.46.46,0,0,0-.62.16c-.16.18-.23.32,0,.47s0,.31,0,.36-.23,0-.33-.11c-.28-.23-1.51-.16-1.59.14-.13.52-.5.59-.89.71a.3.3,0,0,0-.25.22.9.9,0,0,1-.32.56.27.27,0,0,0-.31.06l-.07.06h0a.82.82,0,0,0-.53.26c-.61.71-1.36,1.26-2,1.93a30.2,30.2,0,0,0-2.9,3.54c-1.58,2.24-2.93,4.62-4.29,7-.1.18-.26.38.07.53s.09.25-.05.22c-.64-.15-.56.37-.76.7a3.23,3.23,0,0,0-.44,1.26c0,.06,0,.2-.08.16-.55-.18-.61.27-.78.58a3,3,0,0,1-.86,1,19.09,19.09,0,0,0-2.21,1.7l-.09,0a1.1,1.1,0,0,0-.83.26l-.54.58a1.27,1.27,0,0,0-.42.79,1.22,1.22,0,0,0,.08.51,5.2,5.2,0,0,0-.73,1,1.84,1.84,0,0,1-1,.87c-2.06.77-3.66,2.27-5.4,3.52a7.9,7.9,0,0,1-1.65.9,1,1,0,0,0-.85-.19,4.74,4.74,0,0,0-1.4.55,1.42,1.42,0,0,0-.51.47l-.13,0a10.23,10.23,0,0,1-4.37,0,8.21,8.21,0,0,1-4.13-1.5c-.29-.25-.55-.52-.85-.74-1.64-1.19-3.6-1.7-5.43-2.49-.1,0-.26-.1-.32,0s.1.2.19.26c.38.28.76.54,1.15.81-.21-.1-.46.09-.66-.08a4.92,4.92,0,0,0-2.35-.81c-.6-.11-1.18-.31-1.77-.47-.06,0-.14,0-.15-.08s.06-.05.11-.05h2.29l-.14-.14a5.08,5.08,0,0,0-2.07-1,5.91,5.91,0,0,0-3.59.15,16.58,16.58,0,0,1-1.58.59A40.21,40.21,0,0,0,145,43.81a35.39,35.39,0,0,0-3.44,2,13,13,0,0,0-3.47,2.66,2.41,2.41,0,0,1-1.43,1c-.92.11-1.85.27-2.76.43a.89.89,0,0,1-.79-.17,1.78,1.78,0,0,0-1.73-.61.18.18,0,0,1-.22-.13,2,2,0,0,0-1-.9,46.25,46.25,0,0,1-4-2.71c-.79-.6-1.44-1.55-2.62-1.49-.38,0-.49-.21-.68-.51-1.13-1.83-2.43-3.46-4.87-3.44a2.22,2.22,0,0,1-.29,0,15.59,15.59,0,0,0-3.79,0,12,12,0,0,1-2.48.06,14.29,14.29,0,0,1-5-1.12c-.65-.31-1.27-.53-1.55-1.26a.72.72,0,0,0-.42-.41c-.71-.18-1.1-.87-1.74-1.1s-.41-1.33-1.32-1.21c0,0,0-.06-.06-.1a3.16,3.16,0,0,0-2.67-1.81,13.42,13.42,0,0,1-2.19-.68,5,5,0,0,0-2.44-.64,1.43,1.43,0,0,1-.84-.17A15.92,15.92,0,0,0,90,30.34c-1.89-.44-3.84-.62-5.77-.91-.21,0-.44,0-.65,0-.52-.12-1.15,0-1.53-.45a1.77,1.77,0,0,0-1.24-.67c-.41-.06-.82-.07-1.22-.1a3.79,3.79,0,0,0-2.36.26,4.62,4.62,0,0,1-2.38.92c-.16,0-.46.15-.45.21,0,.36-.21.29-.37.25a.85.85,0,0,0-.74.13c-.84.69-1.95.51-2.9.81s-1.83.48-2.76.72a1.35,1.35,0,0,0-.79,0l-.6.16c.07-.08.19-.13.27-.2s.72-.22.57-.44-.61,0-.82.2a8.83,8.83,0,0,1-2.32,1.17,11.53,11.53,0,0,0-1.89.92l-.06,0h0c-.55.07-.8.49-1.24.63-1.09.34-1.68,1.36-2.61,2a9.68,9.68,0,0,1-1.42.79c.07-.12.25-.27-.1-.27a3.88,3.88,0,0,0-1.44.47,11.38,11.38,0,0,0-2,1,1.26,1.26,0,0,0-.54.13,4.59,4.59,0,0,1-.46.2l-.33.08a1.54,1.54,0,0,0-.94.59,1.57,1.57,0,0,0-.28.82,5.69,5.69,0,0,1-2.21.43,17.53,17.53,0,0,0-4.3.23c-.16,0-.46.15-.49-.11s.28-.23.48-.28l.18,0,2.08-.43c.07,0,.12-.08.18-.12s-.12-.1-.19-.11a4.75,4.75,0,0,0-3.06.45,10.89,10.89,0,0,1-2.92,1.15,25.11,25.11,0,0,0-3.4.75c-1,.37-2,.78-3,1.07a28.54,28.54,0,0,1-6.1.66,32.77,32.77,0,0,1-3.62-.07,11.41,11.41,0,0,1-4-.8c-2.32-1-4.65-2-7-3a4.3,4.3,0,0,0-1.6-.45c-.17,0-.41,0-.46.18s.18.23.31.32"/><path class="b" d="M13.89,57.87s0,0,0,0a25.86,25.86,0,0,0-3.38,4.89s0,0,0,0a25.93,25.93,0,0,1,3.38-4.89M.13,66a.87.87,0,0,0,1.19.05c.12-.11.21-.17.35-.1.5.26.83,0,1.21-.3s.42-.51.84-.41a1.6,1.6,0,0,0,1.71-.77c.12-.18.24-.54.4-.45s0,.37-.09.56a4,4,0,0,0,.14,2.9.71.71,0,0,0,.87.44c.34-.13,0-.44-.1-.64a3,3,0,0,1,0-1.47c.15-.81.77-.49,1.23-.56s.8-.27,1.09-.15.12.69.26,1c0,.09,0,.21.14.24s.23-.07.27-.18c.11-.32.21-.64.3-1s.19-.46.47-.46.31.25.33.48.07.42.24.15.46-.34.79-.41.65-.35,1-.46c.12,0,.18-.14.06-.22-.47-.29,0-.24.12-.32.26-.29.74.06,1-.29a1.51,1.51,0,0,1,2-.43,10.41,10.41,0,0,0,2.62.42c.31,0,.51,0,.64-.41.34-1.07.71-1.17,1.56-.57.55.39.58.37.64-.32,0-.17,0-.33.22-.37a.37.37,0,0,1,.46.18,2.72,2.72,0,0,0,.4.59.7.7,0,0,0,.74.24c.23-.1.07-.39.07-.6a2,2,0,0,0-.18-.87,5.22,5.22,0,0,1-.34-3.19.49.49,0,0,1,.48-.47c.76.39.55-.28.68-.58a.76.76,0,0,0,0-.74.65.65,0,0,1,.11-.86.68.68,0,0,0,.17-.81,1,1,0,0,1,.27-1.21.59.59,0,0,0,.2-.68,20.18,20.18,0,0,0-.75-2.32,2.44,2.44,0,0,1-.17-.45,42.88,42.88,0,0,1-8.49,6.15c-.65.4-1.29.81-1.93,1.23C11.48,58.87,9.71,60.08,8,61.38q-1.13.9-2.2,1.84a0,0,0,0,1,0,0C6.51,62.57,7.26,62,8,61.38c1.67-1.33,3.42-2.58,5.21-3.76l1.4-1c1.32-1,2.61-2,3.88-3a24.06,24.06,0,0,1-7.76,2.18s0,0,0,0a22.06,22.06,0,0,0,8.59-2.82l4-3.22a.28.28,0,0,1,.41,0,1.5,1.5,0,0,1,.64-.46c1-.45,1.72-1.3,2.83-1.47.08,0,.16-.06.12-.16s-.1-.06-.15-.06c-1.28,0-2.6-.11-3.64.9a.43.43,0,0,1-.43.15,7.42,7.42,0,0,0-2.3-.13,2.91,2.91,0,0,0-3,.39,1.25,1.25,0,0,0-1.65.59c-.57.23-1.19.36-1.76.57a28.05,28.05,0,0,0-4.92,2.31c-.74.46-1.56,1-1.33,2.17.09.43-.16.8-.67.67A13.16,13.16,0,0,0,5.61,55a1.1,1.1,0,0,0-.84.24,1.34,1.34,0,0,0-.59,1c0,.5.45.36.67.52a1.36,1.36,0,0,0,.5.17c.25.06.35.16.21.41-.36.66-.7,1.33-1.09,2-.21.35-.37.66-.11,1a.31.31,0,0,1-.08.47c-.43.25-.68.71-1.15.9a1,1,0,0,0-.66.92.73.73,0,0,1-.53.7c-.12.05-.35.06-.32.21s.22,0,.35,0,.3.23.41.37,0,.28-.09.28c-.76,0-1.1.79-1.79,1-.24.06-.71.42-.36.75"/><path class="b" d="M198.26,74.43a0,0,0,0,1,0,0,74.12,74.12,0,0,0,5.64-9.54s0,0,0,0a73.75,73.75,0,0,1-5.64,9.54m-3.83-1.67a36.46,36.46,0,0,0-4.13,2.66s0,0,0,0a44,44,0,0,1,4.12-2.7s.07,0,0,.07m9.76.11c.06.06.22.12.1.2S204,73,203.93,73l.26-.09m-.25,2.75c0-.28-.32-.52-.39-.84,0-.14-.45-.06-.36-.36s.4-.21.56-.21c.75,0,.79-.53.84-1,0-.2,0-.53-.4-.31a5.3,5.3,0,0,1-.74-.3c.06-.25.09-.45.06-.44l.1,0a.61.61,0,0,1,.61.16c.13.14.47-.11.65-.29s0-.32-.08-.47a.92.92,0,0,0-.15-.17,1.55,1.55,0,0,0,.23-.68c0-.1,0-.21,0-.31h.06c.1,0,.1-.07.06-.17s.37-.64.52-.58.27.28.34,0-.12-.37-.32-.46-.33.32-.42,0,.19-.31.34-.45c.33-.31.52-.74.93-1a.32.32,0,0,0,.11-.26c-.09-.73.44-1.24.72-1.82a4.5,4.5,0,0,0,0-4.46l-.07-.17c-1.38,1.62-2.88,3.08-4.37,4.66-1.78,1.89-3.34,3.89-5.59,5.27-.12.07-.23-.12-.13-.2a33.17,33.17,0,0,0,4.35-4,21.51,21.51,0,0,0-3.29,1.94,10.77,10.77,0,0,1-1.83,1.23c-2,.94-4.32,1.26-6.39,2a.14.14,0,0,1-.12-.26c2-1,4.23-1.36,6.29-2.23,1.81-.76,3.59-1.81,5.34-2.7,0,0,0,0,0,0,.39-.41.78-.81,1.18-1.2,1.54-1.53,3.07-3,4.48-4.59-.21-.41-.41-.48-.88-.22a.49.49,0,0,1-.34,0,1.7,1.7,0,0,0-.94,0,1.21,1.21,0,0,0-.44,0,23.36,23.36,0,0,1-4,.15,3.77,3.77,0,0,0-2.13.1c-.3,0-.62,0-.91,0a1.45,1.45,0,0,0-.95.37c-.08-.27-.33-.13-.56,0-.42.16-.44.49-.28.82a2.64,2.64,0,0,0,.32.5s0,.06,0,.08a11.55,11.55,0,0,1-2.26,1.32c-.22-.25-.56-.35-.75-.15a.52.52,0,0,0-.1.49l-.21.08a1.08,1.08,0,0,0-.56,1.47,18.05,18.05,0,0,1-1.79,1.11c-.88.59-.91,1.46-1.52,2.25l-.28,0a.33.33,0,0,0-.33.47h0a.51.51,0,0,0-.23.38s.05,0,.12.11.18-.17.27-.2a2,2,0,0,0,.16.26v0h0a.82.82,0,0,0,.19.19h0a1.16,1.16,0,0,0-.09.19.35.35,0,0,0,0,.17l-.24-.09a1.17,1.17,0,0,0-.8-.11.34.34,0,0,0-.3,0h-.12a.44.44,0,0,0-.33.54c-.2.25-.46.58-.65.47-.44-.25-.33.11-.38.24a.76.76,0,0,0,.42,1c.7.38.69.39.76,1.08a.18.18,0,0,0,.11.12c.54.16.78.78,1.35.9.05,0,.09.06.14.1s-.08.1-.11.1c-.42-.06-.51.3-.65.55a.91.91,0,0,1-1.28.41,7.92,7.92,0,0,0-1.56-.57c-.33-.08-.49.11-.44.24.11.31,0,.22-.16.15l-.37-.18c-.47-.21-.46.35-.74.47s-.05.3.08.47c.36.48,1,.52,1.42.84s.26.62,0,.85c-.67.5-1.24,1.11-1.9,1.62-.31.24-.08.64-.42.85a7.79,7.79,0,0,0-2.28,2.71c-.07.11-.22.22-.05.36a.3.3,0,0,0,.34,0,10.3,10.3,0,0,0,1.41-.77,7.75,7.75,0,0,1,2.33-1.39,4.52,4.52,0,0,0,1.65-1.16c.11-.11.36-.18.31-.32v0a3.26,3.26,0,0,0,.35-.26h0c.12,0,.27,0,.31-.11s0-.14,0-.16l.23-.26a.27.27,0,0,0,.37.07c.69-.37,1.39-.7,2.1-1,.54-.17,1.07-.35,1.6-.56s1-.26,1.55-.38c0,.23.17.34.39.45.44.21.87.44,1.33.64s1.52.46,1.79.11c.61-.78,1.83-.73,2.26-1.72.54,0,.46-.86,1.08-.7a.39.39,0,0,0,.07-.21s0,0,0-.06a1,1,0,0,0,.46,0,1.25,1.25,0,0,0,.31-.12c-.13.34.18.45.52.52a5,5,0,0,0,2.18,0,1.34,1.34,0,0,0,1-1"/><path class="b" d="M196.65,76.4s0,0,0,0,0,0,0,0"/><path class="b" d="M229.41,75.19l0-.22a1.64,1.64,0,0,0-.15-.83,2.14,2.14,0,0,0-.73-.93l-.11-.08c.18-.33.09-.76-.07-.83-.78-.35-.39-1-.55-1.55,0-.15-.13-.29-.18-.44a3.51,3.51,0,0,0-1.56-1.71c-.39-.28-.26-.82-.67-1.05,0,0,0-.07,0-.11.42.07.53-.44.92-.49a.7.7,0,0,0,.62-.62.74.74,0,0,0-.45-.71,1.67,1.67,0,0,0-.76-.31,1.63,1.63,0,0,1-1.06-.49,1,1,0,0,0-.61-.22c-.54-.08-1.08.1-1.57-.51a9.5,9.5,0,0,0-2.88-2,.45.45,0,0,0-.09-.13.43.43,0,0,0-.33-.13.54.54,0,0,0-.65.17c-.15.15-.66-.43-1.1-.29a2,2,0,0,0-.57.23,6.92,6.92,0,0,0,1,2.1,25.11,25.11,0,0,0,3.27,3.15c.47.41,1,.79,1.56,1.19a7.21,7.21,0,0,1,2.47,1s0,0,0,0a7.18,7.18,0,0,0-2.4-1,9.7,9.7,0,0,1,2.61,2.47c.18.29-.24.58-.49.4q-.62-.45-1.23-.95a11.4,11.4,0,0,0,.85,4.67,0,0,0,0,1,0,0,6.63,6.63,0,0,1-.79-2.57c0-.71-.05-1.43-.06-2.14a31.15,31.15,0,0,1-3.34-3.26c0,1.14-.22,2.26-.26,3.39,0,0,0,0,0,0,0-1.15.25-2.28.26-3.43l-.27-.31c-1.14-1.31-2.71-2.92-3.25-4.59,0,0,0,0,0,0a5.63,5.63,0,0,0,.75,1.45,6.36,6.36,0,0,1-.69-1.59.69.69,0,0,0-.14.16c-.12.2-.24.42-.49.2s-.51-.25-.27-.6,0-.41-.09-.61a26.27,26.27,0,0,0-2.11-3.28A9.07,9.07,0,0,1,212.17,52c0-.09,0-.25-.05-.27-.43-.19-.35-.63-.51-1-.08-.17,0-.51-.23-.49s-.33.4-.29.58a11.7,11.7,0,0,0,.76,2.78,2.62,2.62,0,0,1-.22,2.68c-.14.15-.3.24-.28.53s-.38.18-.57.25-.15-.21-.14-.34c0-.67.11-1.35.17-2,0-.12.14-.3-.05-.36s-.2.15-.27.26c-.61.93-.47,2-.7,3-.15.67-.18,1.49-.82,1.81a2,2,0,0,0-.82.74c-.09.14-.35.24-.23.43s.38.12.6.08.41-.25.49.08c.12.49.29.17.41,0,.53-.61.5-1.75,1.74-1.71.29,0,.6-.44.71-.82s.18-.69.28-1c0-.07.06-.18.11-.2s.08.1.11.16a28.47,28.47,0,0,0,3.15,4.84c.34.45,1.12.85.4,1.61-.08.09-.06.27-.09.4a12.19,12.19,0,0,0,0,2.24,7.24,7.24,0,0,0,.34,2.43c.18.58.41,1.27,1.27,1.28.34,0,.51.21.5.58a6.51,6.51,0,0,0,.09,1,1.25,1.25,0,0,0,0,.23,1.92,1.92,0,0,0,.06.58,2,2,0,0,1-.08.4c-.07.21-.12.63.19.81.63.35,1.2.9,2,.68a1.13,1.13,0,0,1,.76,0c.78.43,1.84.24,2.44,1.08.07.1.21.05.33.05.61,0,1.2,0,1.52.7.19.41.58.69,1,.42a.91.91,0,0,1,1.09,0,1.61,1.61,0,0,0,1.81-.2.73.73,0,0,0,.27-1.24"/><path class="b" d="M206.7,42.55a7.27,7.27,0,0,1,2.05.28,5.89,5.89,0,0,0,4.59.15c.23-.1.52-.24.51.25,0,.28.19.34.4.17s.61-.24.45-.7-.1-1-.74-1.08a3.23,3.23,0,0,0-1.94.31,4.74,4.74,0,0,1-3.21.21A32.15,32.15,0,0,1,205,40.9c-.45-.14-.88-.36-1.32-.49-.77-.23-1.55-.23-2.19-1a7.09,7.09,0,0,0-2-1.18,13.67,13.67,0,0,0-2-.47c-.37-.05-.51.18-.63.43s.14.4.31.48a33.09,33.09,0,0,0,3.69,1.62,33.9,33.9,0,0,1,5.58,2.81,1,1,0,0,1,.59.93c0,.3,0,.76.6.45.22-.12.34.06.42.21a12,12,0,0,1,.52,1.13c.15.39.2.82.6,1.06a2.08,2.08,0,0,1,.76.9c.29.58.55,1.18.82,1.77.09.19.22.42.42.34s.13-.33.06-.52a18.76,18.76,0,0,0-.86-2.39c-.43-.82-.74-1.79-1.78-2.12a.37.37,0,0,1-.26-.47c.09-.18.29,0,.42,0a2.54,2.54,0,0,1,.36.2c.15.06.34.12.44,0a.46.46,0,0,0-.06-.39,1.76,1.76,0,0,0-1.19-1,14.79,14.79,0,0,1-1.61-.5c-.07,0-.12,0-.08-.09a.19.19,0,0,1,.14-.09"/><path class="b" d="M47.25,77.14a36.33,36.33,0,0,1,2.21-3.79l.65-.86-.12.44c-.35,1.35-.65,2.78-.89,4.15,0,.18.23.32.34.16.79-1.15.78-2.66,1-4,.1-.58.24-1.16.36-1.74.2-.29.4-.59.58-.89.49-.8,1-1.61,1.38-2.44a.63.63,0,0,0,.71.16A.71.71,0,0,0,53.34,67,17.6,17.6,0,0,0,54,65.2c.43-1.39.87-2.79,1.41-4.11a32.63,32.63,0,0,1,.32,6.11,42.85,42.85,0,0,0-.4,6.8.07.07,0,0,0,.14,0c-.05-2.47.36-4.89.41-7.34A43.1,43.1,0,0,0,55.44,61c1.22-3,3-5.62,6.23-7a.11.11,0,0,0-.08-.21,11.39,11.39,0,0,0-6.3,5.61c0-.18,0-.35,0-.53a0,0,0,0,0,0,0c0,.2,0,.39,0,.59-.25.46-.48.95-.69,1.43a.94.94,0,0,0-.06-.27,0,0,0,0,0,0,0,1,1,0,0,1,.07.31c-.13.3-.25.61-.37.91a8.38,8.38,0,0,1-.88.85c-.2.18-.41.35-.63.52-1,.68-2.13,1.24-2.62,1.57-.11.07,0,.24.12.16.83-.59,1.7-1.12,2.5-1.74A6.74,6.74,0,0,0,54.14,62c-.14.38-.28.76-.4,1.15a33,33,0,0,1-2.08,5.18c-.56.33-1.08.74-1.62,1.12a20.29,20.29,0,0,1-3.35,2.06c-.24.11-.18.53.11.48C49,71.56,50,69.55,51.6,68.43c-.16.3-.32.6-.49.9,0-.11,0-.22,0-.33a0,0,0,0,0,0,0c0,.19-.06.38-.1.57s-.38.63-.58.94c-.63,1-1.33,1.9-1.93,2.9A34.77,34.77,0,0,0,47,77c-.09.19.19.31.29.13m-5.09,7.23c0-.29.15-.61-.14-.83-.58-.44.14-1-.15-1.47,1-.78,1.33-2.11,2.32-2.91.29-.24.29-.76.8-.79.08,0,.06-.16,0-.25s-.12-.23-.21-.25a.21.21,0,0,0-.24.21c0,.38-.14.28-.41.2a.59.59,0,0,1-.37-.94.9.9,0,0,0,0-1,1.26,1.26,0,0,1-.07-.65c0-.49,0-1,0-1.46a3.65,3.65,0,0,1,.38-1.88,6.51,6.51,0,0,0,.9-2.18,1.64,1.64,0,0,1,1.49-1.51h.11l.06-.19a.15.15,0,0,1-.13-.08.21.21,0,0,1,0-.17c.05-.12.15-.1.25-.1l.06-.17a.47.47,0,0,1-.11-.24c-.05-.22-.18-.25-.35-.2-.4.11-.69-.06-.69-.49,0-.88-.44-1.74-.06-2.63a.47.47,0,0,0,0-.29,10.35,10.35,0,0,1-.17-3.21,1.87,1.87,0,0,1,.5-1.39,1,1,0,0,0,.32-1.24c0-.18-.13-.32,0-.49a10.72,10.72,0,0,1,2.79-2.19,24.93,24.93,0,0,1,2.68-1.47c1.12-.46,2.08-1.27,3.24-1.69a19.07,19.07,0,0,1,6.07-1,4.7,4.7,0,0,1,1.37.4c.28.08,0,.44.14.64s.11.15.16.23a1.75,1.75,0,0,0,.15-.24,18.4,18.4,0,0,0,.94-3,1,1,0,0,0,0-.41,2.29,2.29,0,0,1,.54-2,15.37,15.37,0,0,1,1.56-1.6,5.63,5.63,0,0,1,2.84-1.24c2.56-.37,5.1-.76,7.62-1.36a2.13,2.13,0,0,1,.88,0,1.58,1.58,0,0,1,.26.1c-.07.07-.12.17-.2.2a13.74,13.74,0,0,1-1.56.57,24,24,0,0,1-3.14.91,19.7,19.7,0,0,0-4.91,1.12,18.37,18.37,0,0,0-2.09,1.09,1.89,1.89,0,0,0-1.13,1.65,9.28,9.28,0,0,1-1.19,5.25c-.16.32-.67.63.07,1a2.51,2.51,0,0,1,.88,1.56c.18.6.67,1.16.07,1.79-.09.09,0,.12.07.17a.41.41,0,0,1,.11.54c-.26.64-.31,1.38-.93,1.84a.58.58,0,0,0-.22.27c-.06.25-.54.49-.22.69s.31-.3.48-.47.29-.33.45-.35-.17.41.2.43a5.8,5.8,0,0,0-.18,1.78,1.3,1.3,0,0,1-.35,1.2,6.85,6.85,0,0,0-1,1.42c-.25.56-.84.91-1.08,1.5-.09.23-.28.45-.29.67,0,.47.05.95-.48,1.19-.22.1-.23.3-.3.48a3.83,3.83,0,0,1-.42,1,5.56,5.56,0,0,0-1.4,3,4.52,4.52,0,0,1-.4,1,.43.43,0,0,1-.63.27c-.25-.14-.3,0-.47.11s-.49,1-1.06.29c0,0-.11,0-.17,0a3.41,3.41,0,0,0-1.49,1.92c0,.95-.73,2.23-1.48,2.2a4,4,0,0,0-2.15.81l-.17.06a18.74,18.74,0,0,0-2.15.76,1.32,1.32,0,0,1-1.08-.15c-.44-.2-1.44-.1-1.68.33-.46.8-1.25,1.37-1.55,2.28,0,.11-.13.32-.25.06s-.31-.11-.36,0a.81.81,0,0,1-.45.49.92.92,0,0,0-.45.74,1.64,1.64,0,0,1-.46,1c-.27-.33-.17-.73-.17-1.1"/><path class="b" d="M78.91,65.12a22.72,22.72,0,0,0,6.34,5,0,0,0,0,0,0,0c-2.27-1.93-4.67-3.56-6.79-5.69-2.39-2.41-4.51-5-7.14-7.13a0,0,0,0,0,0,0,85.23,85.23,0,0,1,7.59,7.77m4.53-1.42a69.28,69.28,0,0,0,9.77,4c.06,0,.1-.06,0-.09C90,66.14,86.71,65,83.65,63.25A39.69,39.69,0,0,0,79,60.76l-.52-.2c1.55.18,3.08.48,4.64.55,2,.08,4,0,6-.07,0,0,0-.06,0-.06A70.46,70.46,0,0,1,82,61c-1.2-.12-2.38-.34-3.57-.48-1.45-.57-2.94-1-4.4-1.57a.24.24,0,0,0-.2.44c1.7.8,3.49,1.37,5.23,2.07a40.12,40.12,0,0,1,4.41,2.25M65.93,57.25c-.06-.67.27-1.39-.36-2a1.08,1.08,0,0,1-.34-.71c0-.16-.07-.33.06-.45s.35,0,.49.06a.89.89,0,0,1,.42.56,1,1,0,0,0,.4.5,2.63,2.63,0,0,0,2.81.23c1.29-.56,2.6-1.07,3.91-1.58a18.9,18.9,0,0,1,6.05-1.07c.36,0,.85,0,1,.4s.33.4.59.32.81,0,1.23-.18.79.21,1.23.25.88.38,1.34.45,1.13.22,1,1c-.09.42.37,1-.05,1.22-.7.35-.11.41.06.53a21.2,21.2,0,0,1,2.15,1.58c.1.09.52.25.11.47s-.06.27.06.36.31.12.4.23a9.27,9.27,0,0,0,2.65,2c.45.29.69.57.42,1.1-.06.11,0,.22.09.19.5-.1.58.27.64.59a2.56,2.56,0,0,0,1.77,2.21.74.74,0,0,1,.49.69.59.59,0,0,0,.22.47,2.13,2.13,0,0,1,.68,1.81c0,.54-.18.63-.64.5-.24-.07-.49-.26-.72,0a1.37,1.37,0,0,1-1.63.36,1.24,1.24,0,0,0-.64-.1c-.93.2-1.86.4-2.78.66a8,8,0,0,1-2.88.35l-.71,0a3.32,3.32,0,0,0-2.27.37l-.34.21a1.56,1.56,0,0,1-1.46.76h-.34c-.19.05-.39.1-.59.13-.81.14-1.21.42-1.72,0l-.78.13a1.35,1.35,0,0,1-1.48-.94,6.2,6.2,0,0,1-.81-.89A2.47,2.47,0,0,1,75,68.35c0-.17-.26-.47,0-.6s.25.23.37.36.1.26.26.14a.19.19,0,0,0,0-.27c-.29-.34-.28-1.17-1.1-.7,0,0-.1,0-.13-.06a7.17,7.17,0,0,0-2-1.92c-.65-.33-.85-1.09-1.18-1.74A23.46,23.46,0,0,0,67,58.32a.63.63,0,0,0-.31-.15.92.92,0,0,1-.76-.93"/><path class="b" d="M71.1,57.17s0,0,0,0,0,0,0,0"/><path class="b" d="M62.39,66.47a.16.16,0,0,1,.15,0,.14.14,0,0,1-.09.23s-.1,0-.13,0,0-.18.08-.22"/><path class="b" d="M44.11,83.72A.29.29,0,0,1,44,84s-.08,0-.14-.09a2,2,0,0,1,.17-.25s.13,0,.13.05"/><path class="b" d="M80,39.56c-.08,0-.2-.11-.27-.08a5.24,5.24,0,0,0-2.51,1.67c-.12.18-.08.41-.22.53a5.17,5.17,0,0,0-.94,1.2c-.28.45-.49.94-.73,1.41l-1.56,3c0,.28-.35.62-.07.76s.37-.31.47-.52c.78-1.55,1.93-2.9,2.58-4.53.11-.28.33-.8.47-.84.5-.13.6-.43.67-.84,0-.07.09-.17.13-.17.51,0,.6-.72,1.14-.68,0,0,.12-.09.11-.12-.12-.41,0-.22.25-.15s.21-.42.5-.46c.1,0,.05-.14,0-.18"/><path class="b" d="M82.61,38.47c-.18-.12-.26.1-.35.21-.28.33-.57.67-.81,1s-.58.5-.59.93c0,.09,0,.18,0,.27l.18-.12A5.56,5.56,0,0,0,82.55,39c.07-.23.23-.4.06-.51"/><polygon class="b" points="81.88 37.66 81.88 37.66 81.89 37.66 81.88 37.66"/><path class="b" d="M81.88,37.66c-.49.47-.75,1.17-1.45,1.43-.1,0-.37.11-.2.31a.4.4,0,0,0,.49.09,7.06,7.06,0,0,0,1.18-1c.13-.16.36-.54,0-.8"/><polyline class="b" points="81.88 37.66 81.89 37.66 81.89 37.66 81.88 37.66"/><path class="b" d="M83.06,36.82c0-.24-.37.09-.6.1a.62.62,0,0,0-.58.74,2.14,2.14,0,0,0,.55-.13c.29-.16.68-.38.63-.71"/><path class="b" d="M84.53,36.52c0,.06,0,.13,0,.13a.78.78,0,0,0,.27-.06s0-.12,0-.13a.28.28,0,0,0-.32.06"/><path class="b" d="M80.15,41.3c-.07.07-.06.15.05.13a.51.51,0,0,0,.22-.14s0-.09,0-.18a2.44,2.44,0,0,0-.25.19"/><path class="b" d="M137.37,26.12s0-.05,0,0a11.89,11.89,0,0,1,.38,4.62l.12-.23c.64-1.17,1.47-2.21,2.17-3.34,1.19-1.95,2.34-4,4.32-5.29.06,0,.13.05.07.09-2.06,1.4-3.12,3.71-4.41,5.76-.48.77-1,1.5-1.5,2.27,1.44-.74,3-1.28,4.44-2,.11-.05.18.13.07.18-1.49.67-3.06,1.09-4.52,1.82-.18.29-.35.58-.51.88-.64,1.24-1.13,2.55-1.75,3.81a.07.07,0,0,1-.13-.06,28.56,28.56,0,0,1,1.62-3.88,11,11,0,0,0-.41-4.65m3-1.85a10.4,10.4,0,0,1-1.18,3.07s0,0,0,0a10.38,10.38,0,0,0,1.18-3.06s0,0,0,0m-4.81.15c0,.1,0,.15.1.21s.09,0,.09.05-.06.07-.12.06c-.21,0-.22.23-.16.24.33.1.18.41.29.58a.4.4,0,0,1,.05.46c0,.08-.09.19-.16.22a1.83,1.83,0,0,0-.78,1.13c0,.1-.11.09-.2.1-.29,0-.38.21-.23.44l.07.1c-.35.18.17.45-.07.64.09.14,0,.33.09.47s0,0,0,.07a.46.46,0,0,1-.09-.08c-.05-.08-.08-.24-.18-.21s0,.18-.06.28a1.19,1.19,0,0,1-.11.35c-.05.1-.24.23,0,.37.1.05.09.41,0,.58s-.11.21,0,.26c.38.3.25.73.29,1.11a18.26,18.26,0,0,0,.2,2.59c.08.35.18.68.56.83a.21.21,0,0,1,.12.26,8.09,8.09,0,0,1-.53,2.27c0,.1-.05.27-.22.26s-.22-.07-.18-.23c-.19,0-.25-.18-.35-.22s-.16.15-.1.25.11.51.24.73c.33.6.07,1.25.21,1.87.06.23.09.48.13.72s0,.19.15.2.15-.09.19-.17,0-.28.15-.38a3.82,3.82,0,0,1,.12.43,6,6,0,0,1,.12,2.23c0,.24.06.48,0,.71,0,0,0,.08.06.09s.13,0,.18-.09c.27-.26.27-.26.4.1a7.69,7.69,0,0,0,.53,1A8.24,8.24,0,0,0,137.37,47c.19.21.27.5.47.72s.15.21.29.2.13.17.23,0a.22.22,0,0,0,0-.28c-.29-.43-.48-.93-.8-1.35a1.07,1.07,0,0,1-.12-.24c-.15-.35-.16-.75-.55-1-.21-.14-.27-.51-.37-.79s0-.36-.26-.4c0,0-.07-.08,0-.1.22-.12,0-.25,0-.36s-.16-.41,0-.6a.13.13,0,0,0,0-.19c-.07-.07-.13,0-.17.06s-.05.07-.1.05-.05-.09,0-.13a8.76,8.76,0,0,0-.21-2.42c0-.19-.29-.25-.38-.47a1.23,1.23,0,0,1-.1-1A7.65,7.65,0,0,0,136,36c0-.18.16-.18.29-.2l1.7-.28a9.79,9.79,0,0,0,1.77-.8.31.31,0,0,0,.15-.32c-.08-.43.24-.6.47-.82a7.83,7.83,0,0,0,1.49-1.69c.18-.31.44-.55.62-.86a3.53,3.53,0,0,0,.55-1.74,1.71,1.71,0,0,1,.5-1.08c.13-.17.26-.34.38-.52a.42.42,0,0,0,0-.54c-.13-.15-.28,0-.42,0l-.36.15c0-.17.2-.18.32-.25a1.71,1.71,0,0,0,.77-.73c.07-.17,0-.41.18-.59s-.11,0-.18,0-.23,0-.25-.11-.09-.27,0-.4.51-.44.42-.85c0-.14.16-.22.27-.31a3.21,3.21,0,0,0,.68-.61c.08-.13.16-.28.06-.4s-.23,0-.35,0a2.35,2.35,0,0,0-.69.33s-.09.05-.11,0,0-.09,0-.12a6.15,6.15,0,0,1,.85-.89l0,0c.21-.59.8-.68,1.26-.95.2-.11.18-.33.15-.52s-.17-.39,0-.6,0-.16-.09-.18c-.3-.1-.33-.39-.49-.6s-.16-.18-.2,0c-.12.36-.5.37-.73.59s-.44.59-.79.75a3.19,3.19,0,0,0-.63.36c-.15.12-.35-.16-.36-.18-.06-.26-.34-.26-.47-.42a.24.24,0,0,0-.36,0c-.23.31-.6.55-.52,1,0,.08.1.2,0,.24s-.34.13-.43,0-.26-.16-.35-.28-.16-.23-.27-.14a.49.49,0,0,0-.23.34,1,1,0,0,1-.46.65,3.13,3.13,0,0,0-.58.62.51.51,0,0,1-.26.23h-.14s-.09-.05-.07-.08,0-.34.22-.44.23-.07.16-.16-.23,0-.29.07c-.18.27-.23.13-.33-.06a1.1,1.1,0,0,0-.55-.45.15.15,0,0,0-.22.05c0,.07,0,.21,0,.23s.08.16,0,.27-.1.3.08.4l0,0a1.55,1.55,0,0,1-.3,1.25c-.09.06-.11.11-.15,0a1,1,0,0,0-.67-.66c-.28-.12-.38,0-.41.28a.25.25,0,0,1,0,.08c-.15.27.12.38.24.53s.11.05.13.11.25.09.18.24-.2.15-.32.17-.17-.06-.25-.16a2.25,2.25,0,0,0-.77-.59c-.15-.08-.13.25-.3.12"/><path class="b" d="M141,38a1.79,1.79,0,0,1-.83,0,3.51,3.51,0,0,0-2.62.63,5,5,0,0,0-.54.46.52.52,0,0,1-.65,0c-.15-.1,0-.23,0-.31a.63.63,0,0,1,.22-.3,4.1,4.1,0,0,1,2.17-.86c.75-.06,1.49.13,2.25.09.08,0,.19,0,.21.06s-.1.17-.2.2"/><path class="b" d="M134.34,28.74a.07.07,0,0,1,0-.1c.07-.09.12,0,.17,0s-.06.12-.15.08"/><polyline class="b" points="134.49 28.66 134.49 28.66 134.49 28.66 134.49 28.66 134.49 28.66"/><path class="b" d="M143.18,36.41c-.3.12-.46-.34-.17-.47,1.93-.83,3.63-2.16,5.63-2.82a11.68,11.68,0,0,1,2.83-.57,10.83,10.83,0,0,0,3.3-.46s0,0,0,0a7.46,7.46,0,0,1-2.74.55,13.51,13.51,0,0,0-3.31.69c-2,.69-3.58,2.24-5.55,3M142,34.19c-.27.11,0,.37-.19.51a.51.51,0,0,0-.12.49.63.63,0,0,1-.29.73,2.77,2.77,0,0,0-.75,1.57c0,.07,0,.13.08.14a1.77,1.77,0,0,1,.79.3,2.17,2.17,0,0,0,.82.2,6.87,6.87,0,0,0,2.41-.19,2.78,2.78,0,0,1,1.69-.06,1.24,1.24,0,0,0,1.21-.53.51.51,0,0,1,.32-.27,2.47,2.47,0,0,1,1.06-.21c.19,0,.29-.24.5-.19,0,0,0-.06,0-.09-.16-.24-.1-.43.18-.57a3,3,0,0,0,.91-.53c.42-.49,1.06-.52,1.51-.92a.71.71,0,0,0,.27-.87c0-.12,0-.18.1-.21a8,8,0,0,0,1.33-.37c.16-.07.35,0,.54,0a3.22,3.22,0,0,0,.81-.18,1.47,1.47,0,0,0,.52,0,1.15,1.15,0,0,1,.66.08.6.6,0,0,0,.5-1.08,2.15,2.15,0,0,0-.45-.16h0l-.25,0h-.39c-.08,0-.27,0-.16,0a.72.72,0,0,0-.23-.11c-.16-.2-.39-.34-.49-.61s-.28-.12-.38,0a.49.49,0,0,1-.46.17c-.19,0-.43-.08-.39.3,0,.11-.19.27-.37.32a.16.16,0,0,1-.2-.11c-.06-.14.06-.11.12-.15s.16,0,.15-.13-.1-.08-.17-.11a1.72,1.72,0,0,1-.64-.51c-.06-.09-.12-.16-.21,0s-.33.15-.46.3-.46.06-.67.18c0,0-.08-.06-.06-.11A.17.17,0,0,0,151,31a.23.23,0,0,1-.1-.36c.08-.15,0-.29,0-.44s-.09,0-.14,0c-.37.3-.9.26-1.27.58a.2.2,0,0,1-.32,0,.23.23,0,0,1,0-.35.51.51,0,0,0,.06-.14.23.23,0,0,0-.06-.26c-.08-.07-.16,0-.22,0a7.31,7.31,0,0,0-.91.76c-.13.12-.25.25-.45.21s-.13,0-.17.12c-.15.3-.33.58-.51.86,0,0-.07.08-.08.08s0-.09,0-.12l.58-1.12c0-.07.08-.14.12-.22a.26.26,0,0,0-.05-.31c-.12-.08-.2.06-.26.14-.2.3-.39.61-.58.91,0,0,0,.1-.07.14s-.23.32-.36.31.07-.21,0-.32,0-.2,0-.3-.18-.29-.36-.21a1.33,1.33,0,0,0-.85.83c0,.14-.1.15-.22.08a1.17,1.17,0,0,0-1.68.46c-.16.26-.36.49-.52.76s-.28.36-.16.61c0,0,0,.07,0,.07-.35,0-.2.38-.23.39"/><path class="b" d="M43.37,22.13a10.25,10.25,0,0,0,1.26,4.13A26.25,26.25,0,0,1,47.36,29c.06.06,0,.16-.09.1-1-.86-1.84-1.82-2.82-2.66-.24-.21-.49-.4-.74-.58-1.51-.13-3,.07-4.51,0-.11,0-.12-.18,0-.18,1.49.08,3,0,4.49.15-.68-.49-1.39-.93-2.07-1.42-1.81-1.32-3.52-2.92-5.77-3.41a.05.05,0,0,1,0-.1c2.13.39,3.84,1.78,5.54,3,1,.73,2.07,1.33,3,2.11l.18.15a11,11,0,0,1-1.27-4.1s0,0,0,0m-3.25-.53s0,0,0,0A9.61,9.61,0,0,0,42.2,23.8s0,0,0,0a9.66,9.66,0,0,1-2.07-2.22M44.29,20c-.1.18-.2-.11-.3,0a2.09,2.09,0,0,0-.46.77c0,.11,0,.2-.16.22A.39.39,0,0,1,43,21c-.11-.1.07-.17.08-.27s.06-.1.07-.14.24-.35,0-.54c0,0-.05,0-.06-.06-.14-.26-.26-.3-.45-.1a1,1,0,0,0-.35.8c0,.15,0,.11-.11.09a1.43,1.43,0,0,1-.69-1l0,0c.12-.15,0-.28-.07-.37s-.17-.11-.06-.24,0-.14-.09-.19a.14.14,0,0,0-.2,0,1,1,0,0,0-.32.58c0,.2,0,.34-.26.17-.09-.06-.25-.06-.27,0s.12.08.19.08.22.22.34.3,0,.06,0,.09l-.12.06a.47.47,0,0,1-.3-.11,2.9,2.9,0,0,0-.72-.33.88.88,0,0,1-.62-.4.45.45,0,0,0-.31-.21c-.12,0-.15.12-.18.21s-.16.22-.21.36S38.11,20,38,20s-.09-.12-.11-.19c-.1-.42-.5-.51-.8-.69a.22.22,0,0,0-.3.14c-.05.19-.29.28-.25.53,0,0-.08.33-.24.28A2.85,2.85,0,0,0,35.6,20a2.92,2.92,0,0,1-.94-.37c-.27-.11-.61,0-.83-.26-.08-.1-.13,0-.15.11s0,.5-.21.69c0,0-.08.14,0,.18s.14.35.18.53.1.37.31.4c.49.06,1-.06,1.41.37h0a5.84,5.84,0,0,1,1,.47s.1,0,.07.09-.07,0-.1,0a2.16,2.16,0,0,0-.71,0c-.11,0-.27,0-.3.11s.08.24.19.32a3,3,0,0,0,.8.29c.12,0,.32,0,.34.18.06.39.38.46.65.58s.15.21.18.33-.09.15-.18.18-.17.08-.14.1c.19.1.24.32.36.44a1.58,1.58,0,0,0,.91.36c.12,0,.27,0,.36.1H38.5c-.14,0-.31-.05-.37.13a.39.39,0,0,0,.16.48c.16.11.33.22.51.32a1.58,1.58,0,0,1,.81.75,3.28,3.28,0,0,0,1.08,1.31c.26.2.57.32.83.52a7.25,7.25,0,0,0,1.86.93c.28.11.61.15.69.54,0,.09.13.22.24.22a9,9,0,0,0,1.79.07L47.65,30c.12,0,.26-.08.32.07a7.1,7.1,0,0,0,1.59,2.1,1.14,1.14,0,0,1,.26.87c0,.22-.22.37-.17.53a8.11,8.11,0,0,0,.65,2.15s.05.09,0,.13-.07,0-.1,0-.13-.08-.17,0a.12.12,0,0,0,.06.17c.23.1.21.31.23.51s-.11.28.12.31c0,0,0,.08,0,.1-.18.12-.09.28-.08.44s.08.61,0,.8c-.24.36-.11.71-.12,1.06a1,1,0,0,1,0,.25c-.13.47-.12,1-.22,1.43a.2.2,0,0,0,.1.24c.13.08.12-.08.19-.1s.14-.16.18-.27.06-.53.15-.78a7.66,7.66,0,0,0,.33-1.82,7.3,7.3,0,0,0,.11-1c0-.36,0-.36.31-.23.06,0,.13.07.19,0s0-.08,0-.1c-.15-.17-.14-.41-.27-.6a5.6,5.6,0,0,1-.67-2,3.62,3.62,0,0,1,0-.41c.13.05.17.19.26.27s.13.13.22.08.08-.14.06-.23-.1-.45-.14-.67c-.09-.58-.54-1-.46-1.67,0-.23-.09-.46,0-.71s-.05-.29-.17-.18,0,.27-.22.31a.16.16,0,0,1-.07.26c-.14.07-.2-.07-.28-.14a7.48,7.48,0,0,1-1.24-1.77.19.19,0,0,1,0-.26.93.93,0,0,0,.19-.9A17,17,0,0,0,48,26c-.1-.33-.36-.66-.14-1,0-.07,0-.15-.13-.21s-.3-.41-.23-.49,0-.26-.11-.33a1.07,1.07,0,0,1-.22-.26c0-.08,0-.23-.15-.22s-.07.15-.09.24a.35.35,0,0,1,0,.1s-.06,0-.05,0-.11-.28-.08-.43c-.27-.08.09-.5-.28-.53l0-.11c.06-.25-.1-.39-.35-.3-.08,0-.13.06-.2,0a1.69,1.69,0,0,0-1.06-.7c-.07,0-.14-.08-.21-.14a.37.37,0,0,1-.12-.41c0-.19-.2-.4,0-.6,0,0,0-.23-.22-.15s-.09,0-.13,0,0,0,.06-.08.07-.14,0-.21"/><path class="b" d="M44.37,33.61a1.64,1.64,0,0,0,.72-.27A3.25,3.25,0,0,1,47.56,33a4.61,4.61,0,0,1,.62.21.48.48,0,0,0,.57-.21c.1-.14-.06-.21-.1-.27a.6.6,0,0,0-.3-.18,3.8,3.8,0,0,0-2.16,0c-.66.21-1.24.63-1.89.86-.07,0-.18,0-.16.12s.14.11.23.1"/><path class="b" d="M46.87,23.32a.06.06,0,0,0,0-.1c-.09-.05-.11,0-.14.07s.1.08.15,0"/><polyline class="b" points="46.72 23.3 46.71 23.3 46.71 23.31 46.72 23.31 46.72 23.3"/><path class="b" d="M41.94,33c-2,0-3.83-.8-5.81-.68a12.48,12.48,0,0,0-3.07.56,6.91,6.91,0,0,1-2.54.48s0,0,0,0a10,10,0,0,0,3-.75A10.82,10.82,0,0,1,36.12,32c1.95-.13,3.86.42,5.81.46.29,0,.31.46,0,.46m.25-2.31s0-.38-.33-.26c0,0-.05,0-.05,0,0-.25-.19-.35-.35-.47s-.48-.3-.71-.47a1.09,1.09,0,0,0-1.6.18c-.08.1-.14.12-.22,0a1.23,1.23,0,0,0-1-.41c-.18,0-.26.13-.23.3s.11.18.07.27.25.2.08.29-.29-.06-.42-.14a1,1,0,0,1-.11-.09c-.27-.2-.53-.4-.81-.58-.08-.05-.2-.14-.27,0a.24.24,0,0,0,.06.29l.18.15.89.76s.1,0,0,.1-.07,0-.1,0c-.25-.18-.5-.36-.73-.56-.07-.06-.11-.09-.19,0s-.31,0-.46,0a6.86,6.86,0,0,0-1-.33c-.07,0-.16-.05-.2,0a.21.21,0,0,0,0,.24.43.43,0,0,0,.1.1.21.21,0,0,1,.1.31c-.06.14-.16.15-.28.11-.42-.15-.86.07-1.29-.06-.05,0-.15,0-.11.06s0,.29.12.39a.22.22,0,0,1,0,.34.16.16,0,0,0,0,.23s0,.13,0,.12c-.22,0-.42.19-.64.08s-.34,0-.5-.1-.14,0-.17.11a1.58,1.58,0,0,1-.37.66s-.13.07-.1.15.11.05.17.06.16-.06.15.08a.15.15,0,0,1-.13.16c-.17,0-.4-.05-.43-.15-.09-.34-.28-.2-.44-.12a.45.45,0,0,1-.45,0c-.12-.06-.33-.06-.32.14a2.11,2.11,0,0,1-.21.69.69.69,0,0,0-.16.17c.06-.1-.09,0-.16,0l-.33.13-.2.12,0,0a2,2,0,0,0-.33.29c-.48.53.33,1.28.8.76a1.07,1.07,0,0,1,.54-.3,1.35,1.35,0,0,0,.43-.22,3,3,0,0,0,.76-.13c.17-.06.29-.21.46-.21A7.54,7.54,0,0,0,33,33.68c.1,0,.15,0,.16.14a.65.65,0,0,0,.53.65c.52.18,1.08,0,1.61.26a2.86,2.86,0,0,0,1,.14c.29,0,.41.17.35.43,0,0,0,.1,0,.08s.34.08.49,0a2.3,2.3,0,0,1,1-.19.47.47,0,0,1,.37.12,1.14,1.14,0,0,0,1.22,0,2.57,2.57,0,0,1,1.47-.54,6.33,6.33,0,0,0,2.13-.67,2,2,0,0,0,.64-.46,1.66,1.66,0,0,1,.57-.53c.06,0,.07-.09,0-.14-.34-.43-.62-.92-1.19-1.09-.27-.08-.47-.2-.5-.52a.47.47,0,0,0-.27-.38c-.17-.07-.07-.36-.34-.37"/><path class="b" d="M178.14,49.64a32.56,32.56,0,0,1-8.24.22c-3-.42-5.57-1.73-8.28-2.9a22.86,22.86,0,0,0-8.51-1.85,12.55,12.55,0,0,1,3.44-.38,17.35,17.35,0,0,1,9.93,3.81c.28.21.65-.26.37-.48a16.38,16.38,0,0,0-9.85-3.8,13.46,13.46,0,0,0-4.86.76A.11.11,0,0,0,152,45l-.54.14c-1.06,0-2.15.08-3.26.17a9.89,9.89,0,0,1,1.1-.56,40.77,40.77,0,0,1,6.73-2c.23-.06.13-.39-.1-.35-3.9.67-8.5,1.42-11,4.84a41.57,41.57,0,0,0-2.23,3.65,45.88,45.88,0,0,0-4.07,5.61c-.74.88-1.49,1.74-2.25,2.6-.07.07,0,.18.11.11l1.53-1.64a.06.06,0,0,0,.09,0l.21-.32a44.21,44.21,0,0,0,5.49-7,23.63,23.63,0,0,1,1.8-1.64.06.06,0,0,0,.08,0,28.91,28.91,0,0,1,6.53-3.24,19.82,19.82,0,0,1,4.8.52c2.72.68,5.18,2.06,7.74,3.16,4.48,1.92,8.66,1.79,13.41,1.14C178.51,50.13,178.44,49.61,178.14,49.64Zm-33.5-.7a10.84,10.84,0,0,1,3.14-3.39c.92-.07,1.85-.13,2.78-.17A16.37,16.37,0,0,0,144.64,48.94Z"/></svg>