<svg xmlns="http://www.w3.org/2000/svg" viewBox="0 0 111.41 88.84"><defs><style>.a{fill:#231f20;}</style></defs><title>Artboard 6</title><path class="a" d="M14.2,55.06c.1-.14-.07-.29-.2-.26l-.73.13a.94.94,0,0,0-1.5-.16l-1.1,1.42a1,1,0,0,0-.06,1.19,11.28,11.28,0,0,0-1.92,2.18.84.84,0,0,0-.86.3,6.94,6.94,0,0,0-1.46,2.47A1,1,0,0,0,7,63.57c-.09.49-.18,1-.28,1.48a1.14,1.14,0,0,0,0,.61l-.24,1s0,0,0,.06l-.13.36a1,1,0,0,0-.86.75c-.51,1.79-.12,3.55-.34,5.4a1,1,0,0,0,0,.38,1.13,1.13,0,0,0-.07.23l0,.22a1,1,0,0,0-.47.59q-1,3.49-2.11,7a1.06,1.06,0,0,0,1.76,1,10.07,10.07,0,0,0,2.83-6.13l.05-.05c1.23-1.61.82-4.32.93-6.21a.9.9,0,0,0-.33-.76,5.68,5.68,0,0,0,.69-1.63s0,0,0-.07l.83-3.49a1.06,1.06,0,0,0-.1-.81c.08-.47.15-.94.22-1.42a1.06,1.06,0,0,0,.3-.32,9.21,9.21,0,0,1,.76-1.25.82.82,0,0,0,.78-.28l2.06-2.36a1,1,0,0,0-.14-1.5v0C13.46,56.07,13.67,55.77,14.2,55.06Z"/><circle class="a" cx="45.07" cy="43.93"/><path class="a" d="M111.15,18.31a7,7,0,0,0-1.36,0,.88.88,0,0,1-.21,0c0-.1.11-.08.18-.09a3.28,3.28,0,0,0,1.23-.56c.08,0,.22-.1.15-.22s-.16,0-.25,0l-1.19.22a.52.52,0,0,1-.14,0,.41.41,0,0,1,.08-.07c.3-.14.52-.45.9-.41.06,0,.15,0,.13-.1s-.11-.08-.18-.06c-.35.1-.7-.07-1,0-.07,0-.22,0-.23-.07s.14-.15.22-.14a2.94,2.94,0,0,0,.75,0l.1,0-.09-.05c-.08,0-.23,0-.23,0s.16-.06.24-.12.16-.08.22-.14.13-.18.05-.27-.17,0-.21.08a2,2,0,0,1-1.31.52,1.15,1.15,0,0,0-.31.07c0,.41-.32.22-.49.29s-.42,0-.63.06a1.67,1.67,0,0,1-.44.07l.51.17c.11,0,.32,0,.3.14s-.21.06-.33.08h-.15a9.84,9.84,0,0,0-3.3.54c-.38.1-.75.23-1.12.37a1.11,1.11,0,0,0,0-.14c1.11-.51,2.3-.77,3.4-1.17a2.88,2.88,0,0,0-1.08-.11c-.58.1-1.18.12-1.76.18-.07,0-.21,0-.18.14s.13,0,.21,0l.18,0-.07.06-1.55.25c-.08,0-.19,0-.17.08a1,1,0,0,0-.46.2.59.59,0,0,0-.22.11,16.38,16.38,0,0,1-1.81.81c-.43.25-.93.34-1.38.58a18.69,18.69,0,0,1-1.83.8c-.3.12-.42.46-.69.56a8.58,8.58,0,0,0-2.33,1.45c-.34.26-.44.74-.84.89s-.76.65-1.13,1a12.78,12.78,0,0,1-1.85,1.27,11.35,11.35,0,0,0-1.52.95,7.45,7.45,0,0,0-1.39,1.48c-.06.08-.13.16-.12.27s0,0,.09,0,.11,0,.06.09c-.46.65-.92,1.31-1.39,2a4.58,4.58,0,0,0-.32.37c0,.09-.2.22-.27.14-.23-.26-.29,0-.38.11L84,31a.93.93,0,0,0-.37.39l-.12.23a2.46,2.46,0,0,1-.5.47.21.21,0,0,0-.09.12,1.61,1.61,0,0,1-.78,1c-.42.31-.56.84-1,1.15a10.73,10.73,0,0,0-1,1.08c-.68.68-1.5,1.2-2.13,1.94a15.58,15.58,0,0,1-2,1.85c-1.45,1.18-3.3,1.11-5,1.6a.56.56,0,0,1,.19-.11c.07,0,.18,0,.17-.11s-.12-.06-.19,0l-.57.08a1.27,1.27,0,0,0-.27,0l-.18,0-2.2.32-.11,0a.34.34,0,0,1,.06-.08l.73-.59c.21-.18.67-.27.21-.69-.13-.12-.16-.16-.31-.06a2.78,2.78,0,0,1-.93.51c-.33.06-.48.38-.8.38,0,0-.05,0,0,.07s0,.26-.1.27a2.28,2.28,0,0,0-1.54.72.22.22,0,0,1-.17.06.92.92,0,0,0-.57.16,7.41,7.41,0,0,1-3.56.67c-.22,0-.55,0-.65-.19a.33.33,0,0,0-.3-.23,19.19,19.19,0,0,1-5.06-1.57c-1-.47-3.1-.45-3.93,1-.08.13-.16.28-.08.38s.19-.07.29-.1.14-.14.22,0,0,.16-.1.2a2.5,2.5,0,0,1-1.26.23c-.4,0-.73-.34-1.13-.24a1.67,1.67,0,0,1-.64,0c-1-.12-1.89-.41-2.84-.62a6.26,6.26,0,0,0-2-.29,6.48,6.48,0,0,1-1.67-.18,2.25,2.25,0,0,0-.52,0h-.19A23,23,0,0,0,38.5,41a3.54,3.54,0,0,1-1.29.16c-.6-.13-1,.31-1.57.46l.06,0a.62.62,0,0,0-.27.16l-.05,0c-.3.16-.73.18-.74.67,0,0-.1.13-.17.14-.35.06-.4.48-.74.56-.13,0-.3.13-.14.33l-.17.13c-.08.05-.21.1-.26.15a1.61,1.61,0,0,0-.33.09l0-.06c0-.08.07-.19,0-.25s-.15.05-.21.1a1.54,1.54,0,0,0-.38.61l-.08.09a.33.33,0,0,0-.07.23,8.33,8.33,0,0,0-.89,2.39,10.74,10.74,0,0,1-.45,2.1s0,.15-.09.11-.18-.06-.26.09-.34.47-.32.79c0,.11-.15.19-.28.21s-.09.08-.12.13-.18.36-.28.54-.12.35-.26.35a4.75,4.75,0,0,0-1.72.68,10,10,0,0,1-2.52.43c-.78.1-1.56.1-2.35.12a8.94,8.94,0,0,0-1,.17c-1,.12-1.93.17-2.87.35a23.2,23.2,0,0,0-2.61.37,4.76,4.76,0,0,1-1.42,0,2.85,2.85,0,0,0-1.42.32c-.46.26-.94.48-1.38.77-.13.08-.41.13-.31.3s.2-.14.34-.12h.18a.8.8,0,0,1-.12.14c-.12.09-.33.15-.36.26a.51.51,0,0,1-.69.33c-.37-.17-.4.1-.49.27s-.32.46-.52.41-.35,0-.49.15l-.69.58A2.9,2.9,0,0,1,10,55.46c.27-.16.41-.53.81-.48.07,0,.1-.18.07-.3s-.13-.14-.23-.1l-.75.35a.19.19,0,0,0-.12.18c0,.07.19,0,.08.14s-.15,0-.19-.07c-.22-.26-.37-.09-.52.07a3.68,3.68,0,0,1-.44.51c-.6.44-.94,1.15-1.54,1.6a.21.21,0,0,0-.05.1c0,.08,0,.15.08.09s.2,0,.26.09.16-.24.14,0c0,.09-.15.16-.22.25s-.15.24-.06.3.22-.06.26-.18.09-.18.15,0c.18.44.27.11.34,0a5.55,5.55,0,0,1,.51-1c.2.33,0,.57-.17.83a1.36,1.36,0,0,0-.33,1.14c0,.12,0,.24-.16.18-.4-.23-.5,0-.62.33,0,.09-.06.31-.22.24s-.05-.23,0-.36.37-.39.45-.64a.64.64,0,0,0,0-.14.46.46,0,0,0-.13.05A10.2,10.2,0,0,0,6.11,60.1a4.71,4.71,0,0,0-.57,1.54c-.16.52,0,1.06-.22,1.55a0,0,0,0,0,0,0c.29.45,0,.91,0,1.38a4.32,4.32,0,0,1-.11,1.8,5.61,5.61,0,0,1-.25,1,2.07,2.07,0,0,0-.21,1.37c0,.11.21.21.05.36s-.1.33,0,.51a1.09,1.09,0,0,1-.19,1,3.1,3.1,0,0,0-.4,1.35,2.51,2.51,0,0,1,.1.82,4.19,4.19,0,0,1-.15.93,7,7,0,0,1-.36,1.7,2.45,2.45,0,0,0-.3,1.73.81.81,0,0,1-.3.77.59.59,0,0,0-.19.77A.12.12,0,0,1,3,79a5.06,5.06,0,0,0-.42.51c.17.56-.27.67-.62.85-.09,0-.24.07-.11.24s0,.14-.09.18c-.41.25-.74.61-1.12.89s-.39.48-.67.64v2.64a9.16,9.16,0,0,1,.7-.67,8.66,8.66,0,0,0,1-.81.35.35,0,0,1,.13-.06l0,.06-.06.1c-.34.49-.66,1-1,1.46A9.88,9.88,0,0,0,0,86.14v2.7a3.12,3.12,0,0,0,.48-1.57c0-.07,0-.14.09-.15.39,0,.41-.38.59-.61s.2-.59.42-.75a4.86,4.86,0,0,0,.55-.48c.31-.3.59-.71,1-.87s.31-.57.58-.78-.14-.11-.18-.2.07-.08.13-.08c.25,0,.5,0,.76,0s.27-.09.32-.26,0-.24-.14-.27-.1-.17-.09-.21.14,0,.22,0,.92-.31.88-.5.13-.48.33-.65A.19.19,0,0,0,6,81.21a.58.58,0,0,1,0-.41.17.17,0,0,0,.17-.11l0-.06h0a.52.52,0,0,0,.24-.29c.16-.57.45-1.09.64-1.65a19.33,19.33,0,0,0,.73-2.81c.32-1.71.46-3.45.62-5.18,0-.13,0-.29-.18-.29s-.12-.12,0-.14c.41-.09.22-.36.25-.61a2.09,2.09,0,0,0-.08-.84s-.08-.1,0-.11c.36,0,.28-.32.3-.54A1.91,1.91,0,0,1,9,67.39a12.19,12.19,0,0,0,.82-1.57l.06,0a.7.7,0,0,0,.41-.37l.16-.48a.8.8,0,0,0,0-.57.78.78,0,0,0-.18-.27,3.32,3.32,0,0,0,.16-.77,1.17,1.17,0,0,1,.32-.76,15.3,15.3,0,0,0,2.18-3.47,5.07,5.07,0,0,1,.71-1,.65.65,0,0,0,.54-.12,3,3,0,0,0,.66-.69A.9.9,0,0,0,15,57l.06-.05a6.48,6.48,0,0,1,2.52-1.17,5.21,5.21,0,0,1,2.78-.23c.23.07.46.15.69.2a16.9,16.9,0,0,0,3.8,0c.07,0,.17,0,.18-.1s-.11-.09-.18-.1L24,55.33c.15,0,.24-.17.4-.13A3.12,3.12,0,0,0,26,55c.37-.09.76-.13,1.14-.2,0,0,.09,0,.11,0s0,0,0,.06l-1.22.56-.1,0,.12,0a3.21,3.21,0,0,0,1.47,0,3.75,3.75,0,0,0,2-1,10.59,10.59,0,0,1,.76-.76,25.64,25.64,0,0,0,2.64-2.38,22.79,22.79,0,0,0,1.45-2.08,8.29,8.29,0,0,0,1.3-2.46,1.55,1.55,0,0,1,.56-1c.5-.31,1-.64,1.48-1a.56.56,0,0,1,.5-.11,1.13,1.13,0,0,0,1.16-.11.11.11,0,0,1,.16,0,1.27,1.27,0,0,0,.81.26,29.81,29.81,0,0,1,3.06.49c.62.14,1.24.51,1.91.16.22-.11.34,0,.53.12,1.14.76,2.32,1.35,3.73.69l.18-.05a9.87,9.87,0,0,0,2.2-1,7.71,7.71,0,0,1,1.41-.69A9.11,9.11,0,0,1,56.45,44a1.56,1.56,0,0,1,1.23.32.46.46,0,0,0,.35.12c.46-.09.86.21,1.3.17s.59.66,1.08.34c0,0,0,0,.06,0a2,2,0,0,0,2,.33,8.52,8.52,0,0,1,1.44-.19,3.16,3.16,0,0,0,1.58-.28.89.89,0,0,1,.53-.13,10,10,0,0,0,2.16-.22c1.21-.25,2.38-.66,3.57-1,.13,0,.24-.14.37-.17.33-.07.66-.33,1-.15a1.12,1.12,0,0,0,.9.06c.25-.07.49-.18.73-.26a2.41,2.41,0,0,0,1.29-.78,2.93,2.93,0,0,1,1.13-1.17c.09,0,.22-.21.2-.24-.12-.2,0-.22.15-.24a.54.54,0,0,0,.39-.27c.3-.62,1-.81,1.46-1.24s.93-.77,1.4-1.15a.88.88,0,0,0,.46-.2l.3-.25c0,.06-.08.13-.1.19s-.36.32-.21.41.35-.17.42-.33a5.64,5.64,0,0,1,1-1.29,7.31,7.31,0,0,0,.85-1l0,0,0,0c.3-.19.33-.5.55-.69.54-.49.61-1.24,1-1.82a6.09,6.09,0,0,1,.61-.83c0,.09-.07.22.13.13a2.46,2.46,0,0,0,.71-.65,7.14,7.14,0,0,0,.92-1.11.83.83,0,0,0,.28-.22l.21-.24.17-.14a1,1,0,0,0,.39-.59,1,1,0,0,0-.06-.55,3.61,3.61,0,0,1,1.16-.83,11.12,11.12,0,0,0,2.42-1.28c.08-.07.23-.21.31-.06s-.1.21-.2.29l-.1.06L91,27.59s0,.08-.07.12a.38.38,0,0,0,.14,0,3,3,0,0,0,1.65-1.07,6.89,6.89,0,0,1,1.38-1.44,16.28,16.28,0,0,0,1.76-1.34c.47-.48.93-1,1.44-1.41a18.25,18.25,0,0,1,3.35-2,21,21,0,0,1,2.11-.92,7.24,7.24,0,0,1,2.55-.61c1.61,0,3.22-.06,4.83-.11a2.72,2.72,0,0,0,1-.17c.1,0,.25-.09.22-.22S111.24,18.32,111.15,18.31ZM7.31,61c.11,0,.14-.2.14-.33a.64.64,0,0,1,.18-.44c.05-.06.13-.18.2-.13s0,.13-.07.19-.18.36-.14.5c.12.38-.17.64-.23,1s-.24.16-.37.19,0-.12-.11-.17C7,61.43,6.91,61.08,7.31,61Zm.38,9.1c0,.51,0,1,0,1.53a2.46,2.46,0,0,1-.14,1.26c-.1.18,0,.39,0,.58a13,13,0,0,1-.31,2.13,17.83,17.83,0,0,1-1.05,3.67A11.39,11.39,0,0,1,5,81.43a13.91,13.91,0,0,1-1.24,1.22l-.08,0-.08,0,.1-.16c.33-.47.76-.84,1.12-1.27a4.49,4.49,0,0,0,.68-2.06c.08-.39,0-.8.38-1.12a.77.77,0,0,0,.18-.68,2.31,2.31,0,0,1,.39-1.69,4.33,4.33,0,0,0,.41-2,13.21,13.21,0,0,1,.58-2.5,3.78,3.78,0,0,0,.11-1.13.44.44,0,0,1,.16-.37C7.7,69.84,7.69,69.95,7.69,70.06Zm-.8,1,0,.07c-.09.43-.15.84-.25,1.24-.16.63-.07,1.28-.18,1.91,0,0,0,.05,0,.08a.84.84,0,0,1-.2.47c-.06-.15,0-.29,0-.43a20.58,20.58,0,0,0,.16-2.45c0-.33.21-.56.33-.83C6.81,71.08,6.86,71.07,6.89,71Zm0-1.36a5.73,5.73,0,0,1,.37-1.59c.07-.27.16-.53.25-.79a.46.46,0,0,1,.08-.11.47.47,0,0,1,0,.14q-.24,1.17-.48,2.34c0,.08,0,.19-.16.18S6.87,69.73,6.86,69.69Zm1.75-4.09A7.92,7.92,0,0,0,8.28,67a6.21,6.21,0,0,1-.36,1.31.67.67,0,0,1-.06.12c-.1,0-.07-.08-.06-.12a12.31,12.31,0,0,1,.63-2.74c0-.1.09-.29.18-.25S8.63,65.49,8.61,65.59Zm1.22-4.5a19.14,19.14,0,0,1-1.1,2.32c-.35.7-.77,1.37-1.1,2.08a11.85,11.85,0,0,0-1.06,3.09c-.11.68-.3,1.35-.41,2a11.51,11.51,0,0,1-.26,1.45c0,.17-.28.49.13.61a1.15,1.15,0,0,1,0,.22,17.57,17.57,0,0,1-.61,3.39,8.13,8.13,0,0,0-.23,1.6,5.55,5.55,0,0,1-.82,2.29A14.47,14.47,0,0,1,2.94,82c-.06.07-.15.18-.2.15s0-.18,0-.26a3.84,3.84,0,0,1,.71-1.32.28.28,0,0,0,.1-.31c-.14-.32,0-.53.21-.76a1.33,1.33,0,0,0,.28-.57c0-.07-.06-.75.42-.23.12.13.25-.07.29-.19a1.26,1.26,0,0,0,0-.37A15.21,15.21,0,0,1,5,75.84a8.22,8.22,0,0,0,.3-2.8.67.67,0,0,1,.13-.45c.19-.33.07-.7.16-1.05s.34-.69,0-1a8.69,8.69,0,0,1,.81-3.24,3.51,3.51,0,0,0,.17-.77c0-.09,0-.18.08-.27a.81.81,0,0,0,.24-.4c0-.06,0-.11,0-.17l.1-.12A4.72,4.72,0,0,0,8.09,63.6c.18-.51.34-1,.47-1.56a.74.74,0,0,1,.57-.61c.24-.06.3-.36.55-.44.06,0,.1-.14.18-.07S9.85,61,9.83,61.1Zm.9-2.29c-.08.13-.12.35-.37.28a.27.27,0,0,0-.11,0c-.12,0-.27.24-.34.08s.17-.31.25-.47.1-.09.14,0,0,.24.16.19,0-.19,0-.28c.21-.42.25-.93.67-1.23a.77.77,0,0,0,.19-.28,1,1,0,0,1,.58-.58c.14,0,.22-.3.38-.16s-.16.25-.27.36A8.07,8.07,0,0,0,10.73,58.81ZM13,57.18a19.87,19.87,0,0,0-1.86,2.66A.8.8,0,0,1,11,60s-.1.07-.12.06,0-.08,0-.13a12.06,12.06,0,0,1,1.94-2.82c.06-.07.12-.17.24-.17s0,0,0,.07Zm1.24-2.08c-.21.48-.77.39-1.11.71,0,0-.1,0-.12-.06a.14.14,0,0,1,0-.13A7.54,7.54,0,0,1,14.14,55s.07,0,.1,0Zm1.66.79c-.1,0-.23.06-.27,0s.09-.12.18-.16a1.25,1.25,0,0,1,.61-.22A2.16,2.16,0,0,1,15.85,55.89Zm6.93-.57c-1.09-.06-2.15-.32-3.24-.38a4.34,4.34,0,0,0-2.28.32,1.29,1.29,0,0,1-.88.22.22.22,0,0,1,.19-.24A10.87,10.87,0,0,1,19,54.7a13,13,0,0,1,2.3.26c.55.11,1.12.11,1.68.18a1.9,1.9,0,0,1,1,.19A5.39,5.39,0,0,0,22.77,55.32ZM26.88,54a10.5,10.5,0,0,1-1.54.45c-.06,0-.15,0-.17,0s.07-.12.12-.15a1.84,1.84,0,0,1,.87-.22,2.24,2.24,0,0,0,.65-.15c.06,0,.17,0,.17,0S26.92,54,26.88,54Zm2.53-.57a2.61,2.61,0,0,1-1.48,1h-.1s0-.06.06-.07a8.68,8.68,0,0,0,1.46-1,.5.5,0,0,1,.13,0A.73.73,0,0,1,29.41,53.43Zm1.29-2.19a.19.19,0,0,1-.12-.28,8.9,8.9,0,0,1,.53-.91c.1-.16.21-.09.27.06A2,2,0,0,1,30.7,51.24Zm.82-4.16s0-.06,0-.09a7.75,7.75,0,0,1,.58-1.34c0-.07.07,0,.09,0a3.42,3.42,0,0,1-.6,1.36Zm1.17,2.49c-.21.23,0,.58-.24.78,0,0,0,.07-.06.09s-.33.39-.41.32.08-.3.13-.46a17,17,0,0,1,.73-1.68c0-.05,0-.14.11-.12s0,.06,0,.1C32.84,48.91,32.94,49.3,32.7,49.57Zm.39-3.94a20.88,20.88,0,0,1-1,3.34c-.14.27-.25.55-.38.83,0,0,0,.14-.12.11s0-.09,0-.14a3.28,3.28,0,0,1,.34-1.27,12.28,12.28,0,0,0,.72-2.42,2,2,0,0,1,.27-.62c0-.05.06-.14.13-.11s0,.11,0,.14A.7.7,0,0,1,33.08,45.63ZM41,43.44c-.08.18-.27.07-.41,0a5.86,5.86,0,0,0-2.56,0c-1.3.15-1.87,1.15-2.54,2-.15.2-.32.39-.45.6s-.12.29.12.25.22.05.12.2-.06.14-.1.2-.1.33-.22.21-.51-.08-.4-.45a1.61,1.61,0,0,1,.28-.57c.64-.78,1.29-1.54,1.94-2.31a1.59,1.59,0,0,1,1-.49c.53-.1,1.07-.16,1.61-.23a2.29,2.29,0,0,1,1.4.21C40.87,43.15,41.05,43.25,41,43.44Zm2.6,1,0,0h-.1l-1.78-.29c-.16,0-.18-.18-.16-.3s.27-.17.42-.21a1,1,0,0,1,.64.18l.89.41c.07,0,.14.06.14.14ZM46,42l1.28,0a2,2,0,0,1,.91.2,1.37,1.37,0,0,0,.7.11c.07,0,.2,0,.23,0l0,.07v0s-.13,0-.17,0a.37.37,0,0,0-.37.08.31.31,0,0,1-.28.08A16.47,16.47,0,0,1,46,42.11c-.05,0-.16,0-.15-.08S45.91,42,46,42Zm3.87,3.09c-.42.37-.53.41-1.3.49-.36.13-.76-.09-1.16,0-.07,0-.17,0-.13-.12s0-.2.16-.21.47-.07.71-.06a5.28,5.28,0,0,0,1.57-.27c.11,0,.27-.1.32,0S49.91,45,49.84,45.1Zm.94-1.26a9.05,9.05,0,0,1-3.48.76,1.18,1.18,0,0,1-1-.33s-.08,0-.1,0c-.46.38-.83-.24-1.27-.11,0,0-.14-.09-.11-.12a.79.79,0,0,1,.27-.1c-.06-.25-.18-.35-.43-.19-.06,0-.18.11-.19,0s-.17-.2-.17-.29.17-.09.27-.08l1.5.19a22.63,22.63,0,0,0,4.45.15h.27c.05,0,.14,0,.15.05S50.83,43.82,50.78,43.84Zm3.92-.37c-.35,0-.64.32-1,.22,0,0-.12,0-.13,0s.06-.1.12-.12a4.47,4.47,0,0,1,1-.21h.52A.8.8,0,0,1,54.7,43.47ZM56.55,42c-.17-.1-.17.37-.45.1A1.85,1.85,0,0,0,55,41.72c-.07,0-.18,0-.19-.07s.12-.05.15-.07a4.26,4.26,0,0,1,1.16.26l.18.06c.1,0,.23,0,.32.07S56.57,42,56.55,42Zm3.62,2.22a8.49,8.49,0,0,1-1.91-.43.76.76,0,0,0-.71,0,.42.42,0,0,1-.49-.09c-.07-.08,0-.19.08-.24,0,.17.14.22.29.23l.06,0c0-.12-.18-.11-.26-.19l0,0a14.47,14.47,0,0,1,2.41.58c.2.05.4,0,.59.1s.16,0,.18.1A.74.74,0,0,1,60.17,44.24Zm4-.39H64a2.87,2.87,0,0,0-.73.13c-.09,0-.21,0-.22-.09s.11-.07.17-.09a16.22,16.22,0,0,0,2.5-1,15.09,15.09,0,0,1,1.66-.48,3.23,3.23,0,0,1,1-.08s.11,0,.13,0,0,.08-.08.1A26.67,26.67,0,0,1,64.16,43.85Zm12.23-3.2c-.22.2-.43.43-.67.61s-.4.48-.9.37a2.31,2.31,0,0,0-1.33.28,12.54,12.54,0,0,1-1.92.76c-.94.27-1.89.53-2.82.82a8.77,8.77,0,0,1-2.13.44,2,2,0,0,1-.33,0c0-.17.19,0,.28-.09.48-.19,1-.34,1.44-.56a15.55,15.55,0,0,1,2.47-.77c.91-.25,1.85-.36,2.74-.69a28.25,28.25,0,0,0,3.12-1.34c.06,0,.14-.13.24,0Zm10.25-9.75A3.13,3.13,0,0,1,85.77,32c.11-.49.53-.77.81-1.14,0,0,.06,0,.09-.05A.76.76,0,0,1,86.64,30.89Zm2.12-3.78a9.48,9.48,0,0,0-1.1.94.88.88,0,0,0-.34,0h0A2.77,2.77,0,0,1,88.73,27l.1,0A.44.44,0,0,1,88.76,27.11Zm8.8-5.46c-.49.37-1,.76-1.45,1.14s-.83.77-1.29,1.1c0,0,0,.16-.1,0s-.1-.17-.26,0a24.09,24.09,0,0,1-2.54,2,3.43,3.43,0,0,1-.76.32s-.13.07-.15,0,0-.11.07-.12a9.57,9.57,0,0,0,2.74-2c.86-.69,1.83-1.26,2.74-1.89.37-.26.73-.53,1.09-.8l.13-.08,0,.07A2.33,2.33,0,0,1,97.56,21.66Zm2-1.63A26.56,26.56,0,0,0,96,22.26c-.75.5-1.47,1.06-2.21,1.58L92,25.1c-.09.06-.24.18-.29.1s.11-.15.18-.22c.79-.83,1.77-1.46,2.56-2.29a.67.67,0,0,1,.14-.13,38,38,0,0,1,4.08-2.43,3.13,3.13,0,0,1,.85-.3h.17C99.67,20,99.58,20,99.52,20Z"/><path class="a" d="M71.73,36.52a3.32,3.32,0,0,0,1-1.63c0-.13-.06-.26,0-.36a3.33,3.33,0,0,0,.22-.95c0-.33,0-.67,0-1,0-.72.07-1.44.1-2.15-.06-.17,0-.45-.16-.46s-.13.27-.13.42c0,1.11-.34,2.18-.28,3.3,0,.19,0,.55,0,.61a.54.54,0,0,0-.16.66s0,.12,0,.14c-.3.14-.15.58-.48.69a.11.11,0,0,0,0,.1c.18.2,0,.14-.1.16s0,.3-.17.4,0,.1.06.1S71.7,36.56,71.73,36.52Z"/><path class="a" d="M70.47,37.66c.07-.27.15-.53.2-.81s.2-.44.1-.69L70.69,36l-.07.12a3.54,3.54,0,0,0-.4,1.44c0,.15,0,.29.1.31S70.45,37.75,70.47,37.66Z"/><path class="a" d="M71,38.15h0a1.34,1.34,0,0,0-.28.22c-.13.17-.29.4-.17.58s.19-.15.32-.22a.39.39,0,0,0,.14-.58h0Z"/><path class="a" d="M71,38.15c.16-.4.12-.88.46-1.21.05-.05.19-.16,0-.23a.25.25,0,0,0-.31.08,4.55,4.55,0,0,0-.41.92C70.7,37.83,70.67,38.11,71,38.15Z"/><path class="a" d="M108.11,16.85c.07-.07.24,0,.24-.07s-.17,0-.26,0l-.36,0C107.84,16.92,108,16.78,108.11,16.85Z"/><path class="a" d="M104.92,17c.06,0,.2-.06.21-.12s-.1-.06-.16,0-.22,0-.24.13S104.83,17,104.92,17Z"/><path class="a" d="M106,16.83c.07,0,.21.06.2,0s-.17,0-.27,0a1.38,1.38,0,0,0-.21,0C105.84,16.92,106,16.79,106,16.83Z"/><path class="a" d="M85.22,29.58s0-.1,0-.08a1.63,1.63,0,0,0-.22.25s0,.06,0,.09S85.16,29.67,85.22,29.58Z"/><path class="a" d="M69.73,39.52s0-.08-.06-.06a.5.5,0,0,0-.14.11s0,.07,0,.07A.18.18,0,0,0,69.73,39.52Z"/><path class="a" d="M71,35.59c0-.06,0-.1-.06-.06a.31.31,0,0,0-.09.14s0,0,.06.1A1.48,1.48,0,0,0,71,35.59Z"/><path class="a" d="M49.28,44.05l-1.28,0v0c-.14,0-.28,0-.41,0a.12.12,0,0,0-.1.17c0,.09.1,0,.15,0s.33,0,.51,0a2.42,2.42,0,0,0,1.15,0,1.34,1.34,0,0,0,.19-.1C49.43,44,49.35,44.05,49.28,44.05Z"/><path class="a" d="M45.07,43.93a.94.94,0,0,0,.48.14s0-.07,0-.08S45.25,43.81,45.07,43.93Z"/><path class="a" d="M104.83,8.39s0,0,0,0a16.44,16.44,0,0,0,.65-3.72s0,0,0,0a16.51,16.51,0,0,1-.65,3.72M110.6,0a.55.55,0,0,0-.7.29c0,.1-.07.15-.18.15-.36,0-.48.23-.62.5s-.11.41-.38.46a1,1,0,0,0-.78.9c0,.13,0,.37-.11.37s-.08-.22-.1-.35a2.57,2.57,0,0,0-.85-1.63.46.46,0,0,0-.62,0c-.16.17.14.24.23.34a1.93,1.93,0,0,1,.41.83c.13.51-.32.49-.56.65s-.39.37-.59.37-.25-.37-.43-.53-.07-.11-.15-.1a.14.14,0,0,0-.11.18c0,.21,0,.43.09.64s0,.32-.15.39-.24-.06-.32-.19-.15-.23-.18,0-.18.32-.34.45-.28.37-.46.53-.06.13,0,.14c.35,0,0,.15,0,.22-.07.24-.44.16-.49.43-.1.59-.56.73-1,.77a6.61,6.61,0,0,0-1.62.46c-.18.07-.29.14-.26.41.09.71-.1.86-.75.74-.42-.08-.43-.06-.29.35,0,.1.08.2,0,.27A.23.23,0,0,1,99,8a1.75,1.75,0,0,0-.39-.23.44.44,0,0,0-.49.06c-.11.12.06.24.12.36a1.26,1.26,0,0,0,.33.45,3.32,3.32,0,0,1,1,1.75.32.32,0,0,1-.15.4c-.54,0-.25.31-.24.52a.48.48,0,0,0,.22.41.41.41,0,0,1,.17.53.43.43,0,0,0,.12.51.62.62,0,0,1,.17.77A.38.38,0,0,0,100,14,13.28,13.28,0,0,0,101,15.18a1.61,1.61,0,0,1,.22.22,27.18,27.18,0,0,1,3.26-5.81q.4-.61.79-1.22c.67-1.19,1.37-2.35,2-3.55q.41-.82.78-1.65a0,0,0,1,1,0,0c-.25.56-.52,1.11-.8,1.64-.61,1.21-1.29,2.4-2,3.55l-.54,1c-.5.92-1,1.84-1.44,2.78a15.34,15.34,0,0,1,3.9-3.32s0,0,0,0A14,14,0,0,0,103,12.7l-1.43,2.91a.18.18,0,0,1-.24.1,1,1,0,0,1-.24.43c-.44.52-.65,1.21-1.25,1.6,0,0-.08.08,0,.12s.07,0,.1,0c.73-.36,1.53-.63,1.86-1.49a.27.27,0,0,1,.21-.2,4.74,4.74,0,0,0,1.37-.54,1.85,1.85,0,0,0,1.63-1,.8.8,0,0,0,.79-.78c.27-.28.59-.52.86-.8a17.83,17.83,0,0,0,2.23-2.65c.3-.46.63-1,.19-1.6a.33.33,0,0,1,.21-.56,8.12,8.12,0,0,0,1.1-.39.7.7,0,0,0,.42-.36.85.85,0,0,0,.07-.75c-.13-.29-.35-.09-.53-.12a.88.88,0,0,0-.34,0c-.16,0-.24,0-.23-.18,0-.48,0-1,.11-1.43,0-.26,0-.48-.21-.63a.19.19,0,0,1-.08-.29c.18-.26.2-.59.43-.83a.65.65,0,0,0,.13-.71.46.46,0,0,1,.12-.54c.06-.06.19-.13.13-.21s-.14,0-.21.08-.23-.05-.33-.11-.1-.15,0-.19c.44-.21.42-.75.78-1,.12-.1.3-.43,0-.53"/><path class="a" d="M102.92,55.27a23,23,0,0,0-2.28-1.6l-.61-.33.19.22c.56.68,1.11,1.43,1.62,2.16.07.1,0,.25-.15.18a6.28,6.28,0,0,1-1.65-2c-.22-.31-.45-.61-.67-.91l-.57-.36c-.5-.33-1-.67-1.45-1a.4.4,0,0,1-.37.28A.45.45,0,0,1,96.7,51a10.94,10.94,0,0,1-.86-.85c-.62-.69-1.24-1.38-1.91-2a20.8,20.8,0,0,0,1.44,3.61,27.22,27.22,0,0,1,2,3.82,0,0,0,0,1-.09,0c-.62-1.44-1.51-2.73-2.19-4.13a27.28,27.28,0,0,1-1.24-3.37,7.46,7.46,0,0,0-5.46-2.38.07.07,0,0,1,0-.14,7.25,7.25,0,0,1,5.13,1.57l-.12-.32s0,0,0,0l.14.35c.27.2.53.42.78.65a.56.56,0,0,1,0-.17,0,0,0,0,1,0,0,.64.64,0,0,0,0,.2l.46.43a5.38,5.38,0,0,0,.73.26l.5.13c.76.12,1.56.15,1.93.21A.06.06,0,0,1,98,49c-.64-.12-1.28-.19-1.91-.34a4.22,4.22,0,0,1-1.18-.33l.54.56A21,21,0,0,0,98,51.35c.41,0,.82.14,1.23.22a12.85,12.85,0,0,0,2.48.3c.17,0,.25.26.07.3-1.36.34-2.49-.56-3.72-.77l.52.39-.09-.19s0,0,0,0l.21.3.58.39c.62.4,1.28.74,1.89,1.16a22,22,0,0,1,1.84,1.68c.1.09,0,.23-.13.16m4.86,2.82c-.08-.17-.25-.31-.14-.52.22-.41-.35-.54-.31-.88-.79-.18-1.33-.86-2.11-1.06-.23-.06-.37-.36-.67-.24,0,0-.08-.08-.06-.15s0-.17.05-.2a.13.13,0,0,1,.2.06c.1.22.16.12.29,0a.37.37,0,0,0,0-.64.57.57,0,0,1-.29-.58.81.81,0,0,0-.13-.39c-.15-.27-.26-.57-.4-.84a2.33,2.33,0,0,0-.72-1,4.15,4.15,0,0,1-1.1-1,1,1,0,0,0-1.26-.48l-.07,0-.09-.1a.1.1,0,0,0,0-.08.14.14,0,0,0,0-.1c-.06-.05-.11,0-.17,0l-.08-.08a.29.29,0,0,0,0-.17c0-.14,0-.19.15-.21s.38-.21.27-.46c-.22-.51-.21-1.12-.67-1.54a.29.29,0,0,1-.07-.17,6.56,6.56,0,0,0-.75-1.9,1.19,1.19,0,0,0-.66-.67c-.4-.1-.46-.33-.52-.63,0-.11,0-.22-.14-.28a6.75,6.75,0,0,0-2.19-.52,15.85,15.85,0,0,0-1.94-.13c-.77,0-1.54-.18-2.32-.11a12.1,12.1,0,0,0-3.78,1c-.29.12-.45.4-.68.59s.13.25.09.41,0,.12,0,.18l-.15-.1A11.74,11.74,0,0,1,86,43.67a.62.62,0,0,1-.1-.24,1.45,1.45,0,0,0-.86-1,9.73,9.73,0,0,0-1.33-.51,3.58,3.58,0,0,0-2,0c-1.57.47-3.15.92-4.76,1.24a1.36,1.36,0,0,0-.52.22,1.08,1.08,0,0,0-.13.13c.06,0,.11.07.17.06a9,9,0,0,0,1.06-.09,15.09,15.09,0,0,0,2.06-.31,12.51,12.51,0,0,1,3.13-.66,11.89,11.89,0,0,1,1.5.07,1.2,1.2,0,0,1,1.09.65A5.9,5.9,0,0,0,87.38,46c.18.14.55.19.24.62a1.6,1.6,0,0,0-.09,1.13c.06.39-.07.85.44,1.05.07,0,0,.07,0,.11a.26.26,0,0,0,.08.34c.32.3.55.71,1,.81a.37.37,0,0,1,.2.1c.1.13.44.14.31.34s-.26-.09-.4-.14-.26-.12-.35-.08.21.19,0,.3a3.66,3.66,0,0,1,.57,1,.83.83,0,0,0,.52.6,4.35,4.35,0,0,1,.95.56c.29.26.72.3,1,.58.11.11.28.18.35.31s.22.56.59.56c.15,0,.22.11.3.2a2.39,2.39,0,0,0,.5.45,3.54,3.54,0,0,1,1.6,1.35,2.92,2.92,0,0,0,.49.46.28.28,0,0,0,.44,0c.1-.15.16-.1.3-.06s.55.45.69-.11c0,0,.07,0,.1,0a2.16,2.16,0,0,1,1.37.71c.27.54,1,1.1,1.44.88a2.57,2.57,0,0,1,1.46-.1h.11a12,12,0,0,1,1.44-.13.84.84,0,0,0,.58-.38c.2-.23.8-.44,1.06-.26.48.34,1.09.46,1.5.9.05.06.16.15.16,0s.15-.15.22-.07A.52.52,0,0,0,107,58a.58.58,0,0,1,.46.3,1,1,0,0,0,.53.45c.07-.26-.09-.47-.19-.68"/><path class="a" d="M81.44,56.76a14.48,14.48,0,0,1-2.32,4.6,0,0,0,0,1,0,0c.8-1.72,1.75-3.3,2.41-5.09a63.76,63.76,0,0,1,2.22-6s0,0,0,0a54,54,0,0,0-2.31,6.51m-3,.38A44,44,0,0,1,73.86,62s-.07,0,0,0a60.28,60.28,0,0,0,4.39-5.06,25.28,25.28,0,0,1,2-2.66l.25-.26c-.84.52-1.65,1.1-2.53,1.55-1.13.58-2.32,1-3.48,1.56,0,0,0,0,0,0a44.89,44.89,0,0,0,4.15-1.9c.66-.39,1.29-.83,1.94-1.23.69-.71,1.42-1.38,2.12-2.08.14-.14.37,0,.23.2-.77.91-1.65,1.72-2.47,2.59a25.66,25.66,0,0,0-1.95,2.47m8.39-8.38c-.15-.4-.53-.73-.33-1.25a.69.69,0,0,0,0-.5c0-.09-.05-.21-.16-.24s-.21.08-.27.16a.56.56,0,0,0-.1.43.62.62,0,0,1-.1.39,1.67,1.67,0,0,1-1.56.88c-.9,0-1.79.07-2.68.13a12,12,0,0,0-3.78,1c-.21.09-.5.2-.49.51s-.08.32-.26.34-.46.22-.76.22-.4.33-.64.47-.41.45-.65.62-.59.43-.29.83c.17.22.06.68.36.69.5,0,.18.21.11.32a13.66,13.66,0,0,0-.82,1.48c0,.08-.23.28.06.3s.11.14.06.23-.15.15-.17.24a5.88,5.88,0,0,1-1,1.87c-.19.29-.25.52.05.74.06,0,.09.11,0,.13-.32.07-.26.31-.21.51A1.62,1.62,0,0,1,72.8,61a.47.47,0,0,0-.1.53.37.37,0,0,1,0,.33,1.35,1.35,0,0,0,.09,1.23c.14.32.27.31.5.12s.22-.28.41-.2a.87.87,0,0,0,1-.22.79.79,0,0,1,.34-.22c.59-.14,1.18-.27,1.78-.36a5.12,5.12,0,0,0,1.76-.57l.4-.22A2.11,2.11,0,0,1,80.42,61l.25,0a1,1,0,0,0,1,.05l.2-.1.38-.08c.51-.14.81-.08,1-.45l.48-.13a.86.86,0,0,0,.6-.93,4.05,4.05,0,0,0,.23-.73,1.57,1.57,0,0,0,0-1.13c0-.1,0-.34-.13-.36s-.08.2-.12.31,0,.17-.11.15a.12.12,0,0,1-.08-.15c.08-.28-.15-.75.45-.7,0,0,0,0,.06-.07a4.56,4.56,0,0,1,.65-1.64,2.16,2.16,0,0,0,.22-1.32,14.9,14.9,0,0,1,1-4.13.43.43,0,0,1,.14-.17.58.58,0,0,0,.19-.74"/><path class="a" d="M83.84,50.09a0,0,0,1,1,0,0,0,0,0,1,1,0,0"/><path class="a" d="M91.34,53.14s-.07,0-.08.06,0,.11.11.11,0,0,.07-.06,0-.11-.1-.1"/><path class="a" d="M45.92,16.09a13.55,13.55,0,0,0-2.45,5.18,34.85,34.85,0,0,1,.22,5.16.09.09,0,0,1-.18,0c-.18-1.71-.18-3.43-.39-5.13-.05-.42-.12-.83-.21-1.24-1.37-1.47-3-2.61-4.44-4-.11-.1,0-.28.15-.18C40,17.29,41.56,18.57,42.9,20c-.23-1.09-.54-2.16-.77-3.25-.61-2.91-.85-6-2.63-8.51-.05-.07.06-.15.11-.08,1.74,2.29,2.18,5.18,2.73,7.93.32,1.6.84,3.15,1.08,4.77,0,.1,0,.21,0,.31A14.6,14.6,0,0,1,45.87,16s.07,0,0,0M43.2,12.66s0,0,0,0a12.73,12.73,0,0,0,.06,4s0,0,0,0a12.8,12.8,0,0,1-.06-4m5.48,2.21c-.25.09-.1-.29-.3-.26a2.76,2.76,0,0,0-1.14.35c-.13.08-.22.15-.35.08s-.28-.18-.29-.33.22-.1.31-.2.15,0,.2-.07c.2-.13.55-.14.5-.51a.29.29,0,0,1,0-.11c.1-.38,0-.52-.36-.5a1.27,1.27,0,0,0-1.06.47c-.11.16-.11.1-.19,0a1.9,1.9,0,0,1,.19-1.57l.07,0c.25,0,.28-.24.26-.43s-.06-.26.15-.29c0,0,.09-.17.09-.26s-.13-.16-.23-.15a1.36,1.36,0,0,0-.83.29c-.19.18-.32.32-.4-.07,0-.14-.19-.28-.31-.21s.05.19.11.25,0,.41.07.6c0,0-.05.06-.11.06l-.17-.06a.62.62,0,0,1-.2-.37,3.91,3.91,0,0,0-.41-1A1.16,1.16,0,0,1,44,9.65a.6.6,0,0,0-.12-.48c-.08-.14-.25,0-.37.05s-.35.07-.53.17-.34-.1-.49-.21,0-.2.06-.29c.28-.5,0-.94-.17-1.4A.3.3,0,0,0,42,7.36c-.22.14-.54,0-.72.29,0,0-.36.25-.49.06A3.83,3.83,0,0,0,40.21,7a3.85,3.85,0,0,1-.59-1.2c-.17-.35-.61-.53-.59-1,0-.17-.15-.1-.25,0-.26.18-.43.5-.82.49-.05,0-.2.07-.18.17.07.31-.17.46-.29.68s-.22.46,0,.67c.42.5,1.06.85,1,1.63,0,0,0,0,0,0a7.56,7.56,0,0,1,.6,1.38s.08.11,0,.15S39,9.95,39,9.91a2.9,2.9,0,0,0-.66-.68c-.12-.09-.26-.24-.39-.16s-.14.3-.1.48a4,4,0,0,0,.53,1c.08.15.27.33.18.48-.29.44,0,.79.12,1.16.1.21,0,.34-.12.48s-.22.07-.34,0-.24-.08-.22,0c.1.28-.05.53,0,.76a2.1,2.1,0,0,0,.57,1.17c.11.13.29.21.26.42l-.35-.32c-.14-.12-.26-.33-.48-.21a.52.52,0,0,0-.27.61c.06.26.14.51.22.76a2.09,2.09,0,0,1,.12,1.45,4.36,4.36,0,0,0-.11,2.24c.08.43.28.82.35,1.25a9.63,9.63,0,0,0,1,2.58c.18.36.47.7.19,1.15a.39.39,0,0,0,0,.43c.61.51,1,1.27,1.7,1.67l1.84,1.05c.14.08.33.15.25.36a9.41,9.41,0,0,0-.3,3.48,1.52,1.52,0,0,1-.53,1.09c-.2.21-.54.16-.64.37a10.78,10.78,0,0,0-1.27,2.7c0,.06,0,.13-.1.14s-.08-.05-.09-.1-.06-.19-.17-.14a.16.16,0,0,0-.09.22c.13.31-.06.49-.23.7s-.36.18-.16.41c0,0,0,.1-.08.1-.29,0-.34.2-.47.35s-.46.67-.76.75c-.56.14-.74.6-1.06.94a1.35,1.35,0,0,1-.25.23c-.55.34-1,.84-1.49,1.21a.27.27,0,0,0-.11.33c.06.2.19,0,.28.07s.28,0,.41-.11c.32-.17.53-.47.84-.64A10.07,10.07,0,0,0,39,38.65a9.53,9.53,0,0,0,1-.92c.31-.36.31-.36.5.05,0,.08.06.18.17.18s.11,0,.11-.07c0-.31.23-.53.28-.83a7.43,7.43,0,0,1,1.08-2.52,4.47,4.47,0,0,1,.32-.44c.08.17,0,.33,0,.5s0,.24.15.28.21-.07.26-.17c.16-.26.3-.53.46-.78.43-.65.4-1.51,1-2.06.24-.2.33-.53.58-.74s.21-.33,0-.33-.29.22-.5.1c0,.19-.17.22-.3.19s-.13-.25-.14-.39a9.92,9.92,0,0,1,.36-2.85c0-.13.09-.25.24-.25.5,0,.75-.36,1-.72A22.86,22.86,0,0,0,47,24c.2-.42.24-1,.8-1.15.1,0,.11-.17.06-.32s.07-.67.2-.69c.37-.06.21-.28.19-.42a1.42,1.42,0,0,1,0-.45c0-.12.16-.27,0-.35s-.21.09-.3.17a.56.56,0,0,1-.13.05s0-.09,0-.09c.19-.12.14-.37.3-.5-.2-.32.53-.41.2-.77l.12-.09c.28-.2.25-.47-.07-.61-.1,0-.18-.06-.18-.2a2.24,2.24,0,0,0-.42-1.64.71.71,0,0,1-.09-.32c0-.23.07-.36.25-.51s.15-.57.58-.55c.08,0,.16-.27-.08-.35-.07,0-.12-.05-.11-.13s.09,0,.13,0,.19-.07.21-.19"/><path class="a" d="M36.65,28.28a2.2,2.2,0,0,0,.95.37,4.3,4.3,0,0,1,2.76,1.84,6.05,6.05,0,0,1,.42.76.64.64,0,0,0,.75.3c.22-.05.12-.26.14-.35a.78.78,0,0,0-.13-.45,5,5,0,0,0-2.13-1.91c-.84-.39-1.78-.49-2.63-.85-.09,0-.2-.14-.27,0s0,.24.14.31"/><path class="a" d="M48.29,20.4a.08.08,0,0,0,.07-.11c0-.13-.12-.08-.2,0s0,.17.13.16"/><polyline class="a" points="48.16 20.24 48.16 20.23 48.15 20.24 48.15 20.24 48.16 20.24"/><path class="a" d="M34.84,25.46c-1.94-1.76-3.05-4.2-5.11-5.86a16.57,16.57,0,0,0-3.52-2.2,9.17,9.17,0,0,1-2.93-1.8s0-.06,0,0a13.33,13.33,0,0,0,3.6,1.93,14.33,14.33,0,0,1,3,1.86C32,21,33.37,23.22,35.24,25c.28.27-.1.73-.4.46m2.31-2.05s.31-.41-.1-.55c0,0,0-.08,0-.09.24-.24.12-.52.08-.77s-.2-.73-.28-1.09a1.44,1.44,0,0,0-1.74-1.25c-.17,0-.24,0-.22-.18a1.64,1.64,0,0,0-.63-1.31.3.3,0,0,0-.5.09c-.07.1,0,.27-.17.32s.07.42-.19.36-.23-.31-.29-.51,0-.13,0-.19c-.09-.43-.17-.87-.27-1.3,0-.12-.07-.32-.24-.28a.32.32,0,0,0-.19.34c0,.1,0,.2,0,.3.07.51.13,1,.19,1.54,0,0,.05.13,0,.14s-.05-.08-.06-.13c-.08-.4-.17-.8-.22-1.21,0-.12,0-.19-.15-.21s-.33-.24-.43-.43A9.08,9.08,0,0,0,31,15.74c-.06-.08-.11-.19-.24-.14a.28.28,0,0,0-.17.27.57.57,0,0,0,0,.19.29.29,0,0,1-.18.39c-.19.09-.29,0-.37-.14-.28-.53-.91-.7-1.21-1.21,0-.06-.13-.15-.16,0s-.25.28-.23.49-.05.35-.27.37-.19.1-.21.22-.09.15-.12.1c-.19-.23-.58-.19-.69-.49s-.32-.32-.41-.54-.15-.11-.26,0a2.11,2.11,0,0,1-1,.32c-.08,0-.19,0-.24.06s.06.15.11.22.21.09.08.22a.19.19,0,0,1-.27,0c-.19-.13-.35-.41-.29-.53.21-.41-.09-.44-.32-.51a.6.6,0,0,1-.46-.39c-.06-.17-.27-.36-.44-.15a2.85,2.85,0,0,1-.83.5.86.86,0,0,0-.31,0c.16,0-.08-.09-.17-.13a3.4,3.4,0,0,0-.45-.17l-.3-.06h-.06a2.67,2.67,0,0,0-.58,0,.73.73,0,0,0,.11,1.46,1.41,1.41,0,0,1,.79.18,1.8,1.8,0,0,0,.62.17,4,4,0,0,0,.86.55c.21.09.48.06.63.2a9.9,9.9,0,0,0,1.38,1c.12.08.12.17,0,.28a.87.87,0,0,0-.06,1.11c.34.65,1.07,1,1.35,1.7a3.74,3.74,0,0,0,.83,1c.27.28.25.53,0,.73,0,0-.11.09-.06.1.27,0,.27.38.5.43a3.05,3.05,0,0,1,1.13.7.62.62,0,0,1,.25.45,1.52,1.52,0,0,0,1.16,1.13,3.42,3.42,0,0,1,1.93.78,8.41,8.41,0,0,0,2.69,1.24,2.66,2.66,0,0,0,1,.12,2.17,2.17,0,0,1,1,0c.09,0,.15,0,.15-.12a3.4,3.4,0,0,0-.2-2.13.78.78,0,0,1,0-1,.62.62,0,0,0,.07-.62c-.11-.22.25-.42,0-.66"/><path class="a" d="M54.14,79.57a30.79,30.79,0,0,0-2.31-2.93L51.19,76l.15.35c.46,1.09.87,2.27,1.24,3.39,0,.15-.15.3-.27.17A8.41,8.41,0,0,1,51,76.67c-.16-.48-.34-.95-.51-1.42-.2-.22-.4-.45-.6-.68-.51-.61-1-1.24-1.45-1.89a.54.54,0,0,1-.58.22.6.6,0,0,1,0-1.15A15.16,15.16,0,0,1,47,70.31C46.52,69.2,46,68.07,45.37,67a27.82,27.82,0,0,0,.46,5.18A36.47,36.47,0,0,1,47,77.87a.06.06,0,0,1-.12,0c-.25-2.08-.88-4.07-1.22-6.14a36.52,36.52,0,0,1-.3-4.79c-1.38-2.37-3.16-4.38-6.08-5.16a.09.09,0,0,1,0-.18,9.7,9.7,0,0,1,6,4c0-.15,0-.3,0-.45s0,0,0,0c0,.17,0,.33,0,.5.27.36.51.74.75,1.13a.8.8,0,0,1,0-.23,0,0,0,0,1,0,0,.87.87,0,0,0,0,.27q.22.36.42.73a7.09,7.09,0,0,0,.84.61c.19.13.39.25.59.36.92.45,1.94.79,2.4,1,.1,0,0,.2-.08.15-.77-.4-1.56-.74-2.32-1.17a5.69,5.69,0,0,1-1.38-.88c.16.3.32.61.47.92a28.13,28.13,0,0,0,2.37,4.12c.51.21,1,.49,1.5.75a17.2,17.2,0,0,0,3.07,1.34c.21.06.22.42,0,.41-1.88-.09-3-1.67-4.47-2.42.17.24.34.47.52.7,0-.09,0-.19,0-.28s0,0,0,0,.1.31.15.46.39.49.6.73c.65.75,1.35,1.45,2,2.22a29.58,29.58,0,0,1,1.71,2.86c.1.15-.12.28-.23.15m5.14,5.49c0-.24-.2-.49,0-.72.43-.44-.23-.83-.05-1.25-.94-.53-1.37-1.62-2.29-2.18-.27-.17-.33-.61-.77-.57-.07,0-.07-.13,0-.21s.08-.21.15-.24a.18.18,0,0,1,.23.15c0,.32.15.22.37.12a.5.5,0,0,0,.21-.83.77.77,0,0,1-.15-.86,1.07,1.07,0,0,0,0-.55c-.09-.41-.11-.84-.19-1.23a3.12,3.12,0,0,0-.54-1.54,5.52,5.52,0,0,1-1-1.73,1.4,1.4,0,0,0-1.43-1.1h-.1l-.08-.16a.13.13,0,0,0,.1-.08.18.18,0,0,0,0-.14c-.06-.09-.14-.07-.22-.06l-.07-.14a.4.4,0,0,0,.06-.21c0-.19.12-.23.27-.21.35,0,.57-.13.53-.49-.09-.74.16-1.52-.26-2.22a.38.38,0,0,1,0-.25,8.8,8.8,0,0,0-.23-2.73,1.59,1.59,0,0,0-.59-1.12.85.85,0,0,1-.42-1c0-.15.08-.29-.07-.41A9.05,9.05,0,0,0,50,61.61a20.83,20.83,0,0,0-2.43-.92c-1-.26-1.91-.83-2.93-1a16.24,16.24,0,0,0-5.24-.15,4,4,0,0,0-1.1.5c-.23.1.07.37,0,.56s-.07.14-.11.21a1.77,1.77,0,0,1-.16-.18,15.63,15.63,0,0,1-1.15-2.42.82.82,0,0,1,0-.35,2,2,0,0,0-.7-1.66A12.82,12.82,0,0,0,34.66,55a4.8,4.8,0,0,0-2.54-.71c-2.2,0-4.39,0-6.58-.24a1.83,1.83,0,0,0-.75.08,1.54,1.54,0,0,0-.21.11c.06.05.12.13.19.15a12.13,12.13,0,0,0,1.39.3,20.21,20.21,0,0,0,2.75.4,16.82,16.82,0,0,1,4.26.36,15.89,15.89,0,0,1,1.89.67c.53.2,1.13.65,1.14,1.26a7.89,7.89,0,0,0,1.62,4.28c.17.25.64.45.07.88a2.14,2.14,0,0,0-.55,1.41c-.08.53-.42,1.06.15,1.52.08.07,0,.1,0,.15a.35.35,0,0,0,0,.47c.29.5.43,1.12,1,1.44a.49.49,0,0,1,.22.2c.08.2.52.35.27.56s-.3-.22-.46-.34-.28-.25-.42-.24.19.32-.11.38a4.91,4.91,0,0,1,.36,1.48,1.11,1.11,0,0,0,.43,1,5.86,5.86,0,0,1,1,1.08c.28.44.81.66,1.08,1.13.11.18.29.34.32.53.06.4.07.8.54.95.19.06.23.23.31.37a3.19,3.19,0,0,0,.47.77A4.74,4.74,0,0,1,44,77.7a3.85,3.85,0,0,0,.45.77.37.37,0,0,0,.56.15c.19-.15.25-.07.41,0s.53.79.92.12c0,0,.1,0,.14,0a2.9,2.9,0,0,1,1.48,1.44c.14.79.88,1.79,1.51,1.68a3.44,3.44,0,0,1,1.9.43l.15,0a16.23,16.23,0,0,1,1.9.39,1.13,1.13,0,0,0,.9-.26c.34-.22,1.2-.26,1.45.08.48.62,1.22,1,1.58,1.74,0,.09.15.25.21,0s.25-.13.31,0a.69.69,0,0,0,.44.36.78.78,0,0,1,.47.57,1.39,1.39,0,0,0,.5.78c.19-.31.06-.63,0-1"/><path class="a" d="M29.91,65.61a13.26,13.26,0,0,1,.33,4.72,0,0,0,0,1,0,0c-.18-1.73-.17-3.42-.49-5.15a58.38,58.38,0,0,1-1.07-5.79s0,0,0,0a49.67,49.67,0,0,0,1.23,6.22m-2.18,1.71a40.23,40.23,0,0,1-1.32,6,0,0,0,0,1-.06,0,55.11,55.11,0,0,0,1.09-6.05,23.22,23.22,0,0,1,.33-3c0-.11,0-.21.07-.32-.42.81-.78,1.64-1.27,2.41-.62,1-1.34,1.91-2,2.87,0,0,0,0,0,0a41.4,41.4,0,0,0,2.38-3.45c.34-.62.62-1.26,1-1.88.21-.88.48-1.75.7-2.63a.14.14,0,0,1,.28,0c-.18,1.08-.49,2.13-.74,3.2a23.74,23.74,0,0,0-.38,2.86m2.69-10.55c-.3-.25-.76-.33-.85-.84a.62.62,0,0,0-.23-.4c-.08,0-.14-.14-.24-.12s-.13.16-.14.26a.52.52,0,0,0,.13.39.56.56,0,0,1,.11.36,1.53,1.53,0,0,1-.82,1.43c-.7.43-1.37.9-2.06,1.36a11.05,11.05,0,0,0-2.51,2.56c-.13.17-.3.4-.15.63a.26.26,0,0,1,0,.39c-.19.15-.26.39-.49.53s-.16.45-.28.67-.11.55-.22.8-.27.61.16.79c.23.1.36.51.61.38.4-.22.24.08.24.2a12.5,12.5,0,0,0,0,1.56c0,.08-.05.33.19.21s.15.06.15.15,0,.19,0,.27a5.43,5.43,0,0,1,.09,1.94c0,.31,0,.52.39.56.07,0,.12,0,.06.11-.22.21-.06.37.08.5A1.49,1.49,0,0,1,25.1,73a.43.43,0,0,0,.17.46.34.34,0,0,1,.15.26,1.24,1.24,0,0,0,.65.93c.26.18.36.12.45-.14s0-.32.24-.35a.8.8,0,0,0,.71-.66.72.72,0,0,1,.16-.34c.4-.38.81-.77,1.23-1.12A4.67,4.67,0,0,0,30,70.8l.21-.36a2,2,0,0,1,.92-1l.21-.09a.91.91,0,0,0,.85-.45l.11-.17.26-.24c.33-.34.6-.44.57-.82l.32-.33a.79.79,0,0,0,0-1,3.67,3.67,0,0,0-.16-.68,1.44,1.44,0,0,0-.54-.88c-.08-.05-.14-.28-.27-.22s0,.2,0,.3.09.13,0,.17a.11.11,0,0,1-.14-.08c-.07-.25-.47-.52,0-.76,0,0,0-.06,0-.08a4.17,4.17,0,0,1-.26-1.6c.05-.42-.24-.77-.45-1.14a13.71,13.71,0,0,1-1.16-3.72.37.37,0,0,1,0-.2.53.53,0,0,0-.19-.67"/><path class="a" d="M31.7,65.58s0,0,0,0a0,0,0,0,1,0,0"/><path class="a" d="M40.13,72.38a.14.14,0,0,0-.12,0,.12.12,0,0,0,.1.18s.08,0,.11,0,0-.16-.09-.17"/></svg>