<svg id="Layer_2" data-name="Layer 2" xmlns="http://www.w3.org/2000/svg" viewBox="0 0 420.97 17.58"><defs><style>.cls-1{fill:#e36;}</style></defs><title>Artboard 2</title><path class="cls-1" d="M113.91,7.74l233.49,3.9,65.86,1.1,1.13-1.63-303.85-3-86-.84c-1.06,0-3.1,1.55-1.13,1.63q139.14,5.83,278.42,6.88,39.43.29,78.86.2c1.07,0,3.09-1.62,1.13-1.63q-126.62-.83-253.21-4.29l-1.13,1.63q120.19-2,240.14-10.5l.4-1.59Q261,7.91,153.58,10.7q-30.23.78-60.47,1.12C92,11.83,90,13.46,92,13.44Q205.14,12.2,318,3.78c1-.07,2.59-1.63.77-1.61q-123.52,1.22-247,5.28L70.69,9.08C140,6.4,209.3,3,278.63,1.17A572.83,572.83,0,0,1,337,2.2l.77-1.61c-85.5,9.62-171.58,4.66-257.39,5.07-23.76.11-47.51.67-71.24,2-1,.06-2.58,1.49-.77,1.61C95.86,15,183.63,13.84,271.28,13.35l74-.41.77-1.61Q246.46,17,146.72,16.75L146,18.36Q272.57,5.63,399.8.81l.77-1.61C318.8,13,235.52,13.2,153,7.35L151.87,9l238,1C391,10,393,8.4,391,8.38l-17-.1c-1.08,0-3.08,1.62-1.13,1.63l17,.1L391,8.38l-238-1c-1,0-3.12,1.49-1.13,1.63,64.38,4.57,129.18,5.51,193.47-.86Q372.87,5.39,400.17.79c.89-.15,2.65-1.68.77-1.61Q301.76,2.93,202.85,11.48q-28.27,2.45-56.5,5.29c-1,.1-2.61,1.6-.77,1.61q100.06.27,200-5.46c1-.06,2.58-1.62.77-1.61-87.73.49-175.57,2.15-263.29-.29C58.52,10.33,34,9.25,9.48,7.64L8.71,9.25c85.83-4.83,171.79,1.19,257.66-2,23.71-.87,47.39-2.46,71-5.12,1-.11,2.61-1.47.77-1.61-34.28-2.61-68.68-.75-103,.57l-104.56,4L71.82,7.45c-1.06,0-3.08,1.69-1.13,1.63Q194.15,5,317.68,3.8l.77-1.61Q206,10.57,93.11,11.81L92,13.44q107.26-1.23,214.37-7.92Q337,3.6,367.67,1.22c1.42-.11,2.41-1.73.4-1.59Q248.53,8.08,128.66,10.1c-1,0-3.11,1.58-1.13,1.63Q254.11,15.18,380.74,16l1.13-1.63q-139.26.32-278.48-4.15Q64,9,24.58,7.31L23.45,8.94l303.85,3,86,.84c1.08,0,3.09-1.6,1.13-1.63L180.9,7.21,115,6.11c-1.09,0-3.08,1.6-1.13,1.63Z"/></svg>