<svg id="Layer_2" data-name="Layer 2" xmlns="http://www.w3.org/2000/svg" viewBox="0 0 420.97 17.1"><defs><style>.cls-1{fill:#e36;}</style></defs><title>Artboard 3</title><path class="cls-1" d="M373.07-.83,117.89,12.51,46.12,16.27c-1,.05-2.55,1.71-.75,1.68l284.39-4.77,80.83-1.36,1.11-1.7q-121.43,2.1-242.89,1.93Q134,12,99.12,11.77l-.75,1.68q106.81-5,213.75-6.26l1.11-1.7Q209.14,8.6,105,10.26q-29.77.47-59.53.83l-1.11,1.7q116.94-1.59,233.9-.52,33.34.31,66.67.83L346,11.4c-78.62,2.69-157.29,3.44-235.95,3.75q-33.37.13-66.75.19L42.23,17l269.39-.64,75.83-.18,1.11-1.7Q258.43,15.17,128.31,12q-36.72-.9-73.43-2.1l-1.11,1.7q100-2.21,200-.47l1.11-1.7Q133.5,10.58,12.14,8L11,9.69q102.23-.14,204.46,1.14,29.41.37,58.83.86l1.11-1.7c-82.76,1.71-165.55,1.66-248.33,1.6L26,13.29,241.4,9.46l61.83-1.1L304,6.68q-79.81,4-159.74,3.8l-1.11,1.7q81-3.51,162.17-2.69c1.13,0,3.07-1.68,1.11-1.7Q225.31,7,144.24,10.48c-1.06,0-3.11,1.69-1.11,1.7q80.27.14,160.47-3.83c1.05-.05,2.55-1.71.75-1.68L88.93,10.5,27.1,11.59c-1.1,0-3.08,1.69-1.11,1.7,82.78.06,165.56.11,248.33-1.6,1.08,0,3.1-1.66,1.11-1.7Q173.22,8.3,71,8,41.57,8,12.14,8C11,8,9.06,9.65,11,9.69q121.34,2.59,242.72,1.44c1.1,0,3.09-1.66,1.11-1.7q-100-1.74-200,.47c-1.07,0-3.11,1.63-1.11,1.7q130,4.25,260.16,4.68,36.76.12,73.53-.07c1.12,0,3.07-1.7,1.11-1.7l-269.39.64-75.83.18c-1.12,0-3.06,1.7-1.11,1.7,78.69-.18,157.38-.37,236.05-2.08q33.33-.73,66.64-1.86c1.07,0,3.11-1.66,1.11-1.7q-116.94-1.83-233.89-1-33.34.24-66.68.7c-1.12,0-3.06,1.72-1.11,1.7q104.16-1.25,208.3-3.94,29.74-.77,59.47-1.66c1.09,0,3.08-1.72,1.11-1.7Q206,6.77,98.76,11.79c-1,0-2.56,1.67-.75,1.68q121.46.82,242.91-.62,34.83-.42,69.67-1c1.12,0,3.06-1.73,1.11-1.7L127.31,14.89,46.48,16.25l-.75,1.68L300.92,4.58,372.69.83c1.46-.08,2.39-1.77.38-1.66Z"/></svg>