<svg id="Layer_2" data-name="Layer 2" xmlns="http://www.w3.org/2000/svg" viewBox="0 0 420.97 28.91"><defs><style>.cls-1{fill:#e36;}</style></defs><title>Artboard 1</title><path class="cls-1" d="M169.36,23c83-12.47,167.12-9.71,250.69-6.42l1.52-1.35c-109.11-2.78-218.26-1.84-327.38,0q-45.91.75-91.83,1.64l-1.2,1.35q161.2-7.65,322.64-7.69,45.82,0,91.63.61l1.2-1.35c-71.95,6.49-144.34,10.7-216.49,5L199,16.06a1111.27,1111.27,0,0,1,186.22-5.33l1.52-1.35Q281,13,175.2,11.33q-30.77-.48-61.54-1.41l-1.52,1.35a1289.39,1289.39,0,0,1,205.63,1.26l1.52-1.35C253.2,16.4,187,11.51,121.11,5.48l-1.84,1.34C196.33,9,273.4,11.11,350.38,15.44l1.52-1.35q-113.09,1-226-7.42Q94.18,4.3,62.51,1.18L60.67,2.52,275.08,16l61.54,3.86,1.52-1.35c-78.13,3.79-156.37,2.37-234.51-.27Q70.8,17.1,38,15.81c-.71,0-3.34,1.26-1.84,1.34q52.76,2.63,105.59,3c35,.22,70.25.41,105.14-2.88a363.86,363.86,0,0,0,55.9-9.43c1.24-.32,1.84-1.4.09-1.2L114.2,28.27l-.48,1.28c35-5.84,70.52-5.26,105.86-3.87l1.52-1.35a1461.87,1461.87,0,0,1-191.9-10l-.39,1.1,4.5-1.82c1.89-.76.13-1.35-1.06-.87l-4.5,1.82c-.49.2-1.5,1-.39,1.1a1466.73,1466.73,0,0,0,192.53,10c.61,0,3-1.29,1.52-1.35-35.79-1.41-71.76-2-107.21,3.92-1.24.21-2.54,1.52-.48,1.28L302.37,7.9l.09-1.2c-33.49,8.55-68,11-102.48,11.73-33.91.73-67.86.49-101.76-.35Q68.08,17.33,38,15.81l-1.84,1.34c78,3,156.08,5.91,234.16,4.76q33.34-.49,66.65-2.08c.55,0,3.06-1.25,1.52-1.35L124.05,5,62.51,1.18c-.69,0-3.38,1.19-1.84,1.34q112.41,11,225.47,12.74,32.27.48,64.55.19c.61,0,3-1.26,1.52-1.35-77-4.33-154-6.49-231.11-8.63-.65,0-3.4,1.19-1.84,1.34,66.06,6.06,132.52,11,198.82,5.72.51,0,3.1-1.21,1.52-1.35A1293.43,1293.43,0,0,0,113.35,9.91c-.54,0-3.05,1.3-1.52,1.35q106.39,3.18,212.84,1.11,30.43-.6,60.85-1.64c.58,0,3-1.26,1.52-1.35a1119.23,1119.23,0,0,0-187.57,5.39c-.47.05-2.64,1.19-1.16,1.31,72.36,5.71,145,1.51,217.13-5,.82-.07,3.19-1.33,1.2-1.35Q255.28,7.6,94,13.08q-45.8,1.56-91.58,3.74c-.87,0-3.15,1.39-1.2,1.35,109.12-2,218.25-4,327.39-3.13q45.91.39,91.82,1.53c.66,0,3-1.29,1.52-1.35C356.3,12.65,290.5,10.3,225,15.45q-27.66,2.17-55.13,6.26c-1.25.19-2.51,1.59-.48,1.28Z"/></svg>